StartChar: custom_5_9_0_0_0
Encoding: 17956 -1 17711
Width: 70
Flags: H
LayerCount: 2
Fore
SplineSet
9 25 m 1
 7 25 l 1
 7 27 l 1
 9 27 l 1
 9 25 l 1
9 29 m 1
 7 29 l 1
 7 31 l 1
 9 31 l 1
 9 29 l 1
9 33 m 1
 7 33 l 1
 7 35 l 1
 9 35 l 1
 9 33 l 1
9 37 m 1
 7 37 l 1
 7 39 l 1
 9 39 l 1
 9 37 l 1
9 41 m 1
 7 41 l 1
 7 43 l 1
 9 43 l 1
 9 41 l 1
12 25 m 1
 10 25 l 1
 10 27 l 1
 11 27 l 1
 11 26 l 1
 12 26 l 1
 12 25 l 1
14 25 m 1
 13 25 l 1
 13 26 l 1
 12 26 l 1
 12 27 l 1
 14 27 l 1
 14 25 l 1
17 25 m 1
 15 25 l 1
 15 27 l 1
 17 27 l 1
 17 25 l 1
17 29 m 1
 15 29 l 1
 15 31 l 1
 17 31 l 1
 17 29 l 1
23 25 m 1
 21 25 l 1
 21 27 l 1
 23 27 l 1
 23 25 l 1
26 25 m 1
 24 25 l 1
 24 27 l 1
 25 27 l 1
 25 26 l 1
 26 26 l 1
 26 25 l 1
23 29 m 1
 21 29 l 1
 21 31 l 1
 23 31 l 1
 23 29 l 1
17 33 m 1
 15 33 l 1
 15 35 l 1
 17 35 l 1
 17 33 l 1
17 37 m 1
 15 37 l 1
 15 39 l 1
 17 39 l 1
 17 37 l 1
23 33 m 1
 21 33 l 1
 21 35 l 1
 23 35 l 1
 23 33 l 1
23 37 m 1
 21 37 l 1
 21 39 l 1
 23 39 l 1
 23 37 l 1
28 25 m 1
 27 25 l 1
 27 26 l 1
 26 26 l 1
 26 27 l 1
 28 27 l 1
 28 25 l 1
31 25 m 1
 29 25 l 1
 29 27 l 1
 31 27 l 1
 31 25 l 1
31 29 m 1
 29 29 l 1
 29 31 l 1
 31 31 l 1
 31 29 l 1
41 25 m 1
 39 25 l 1
 39 27 l 1
 41 27 l 1
 41 25 l 1
41 29 m 1
 39 29 l 1
 39 31 l 1
 41 31 l 1
 41 29 l 1
31 33 m 1
 29 33 l 1
 29 35 l 1
 31 35 l 1
 31 33 l 1
31 37 m 1
 29 37 l 1
 29 39 l 1
 31 39 l 1
 31 37 l 1
36 31 m 1
 34 31 l 1
 34 33 l 1
 36 33 l 1
 36 31 l 1
41 33 m 1
 39 33 l 1
 39 35 l 1
 41 35 l 1
 41 33 l 1
36 35 m 1
 34 35 l 1
 34 37 l 1
 36 37 l 1
 36 35 l 1
44 25 m 1
 42 25 l 1
 42 27 l 1
 43 27 l 1
 43 26 l 1
 44 26 l 1
 44 25 l 1
46 25 m 1
 45 25 l 1
 45 26 l 1
 44 26 l 1
 44 27 l 1
 46 27 l 1
 46 25 l 1
49 25 m 1
 47 25 l 1
 47 27 l 1
 49 27 l 1
 49 25 l 1
55 25 m 1
 53 25 l 1
 53 27 l 1
 55 27 l 1
 55 25 l 1
58 25 m 1
 56 25 l 1
 56 27 l 1
 57 27 l 1
 57 26 l 1
 58 26 l 1
 58 25 l 1
55 29 m 1
 53 29 l 1
 53 31 l 1
 55 31 l 1
 55 29 l 1
43 33 m 1
 42 33 l 1
 42 35 l 1
 44 35 l 1
 44 34 l 1
 43 34 l 1
 43 33 l 1
46 33 m 1
 44 33 l 1
 44 34 l 1
 45 34 l 1
 45 35 l 1
 46 35 l 1
 46 33 l 1
49 33 m 1
 47 33 l 1
 47 35 l 1
 49 35 l 1
 49 33 l 1
49 37 m 1
 47 37 l 1
 47 39 l 1
 49 39 l 1
 49 37 l 1
55 33 m 1
 53 33 l 1
 53 35 l 1
 55 35 l 1
 55 33 l 1
57 33 m 1
 56 33 l 1
 56 35 l 1
 58 35 l 1
 58 34 l 1
 57 34 l 1
 57 33 l 1
60 25 m 1
 59 25 l 1
 59 26 l 1
 58 26 l 1
 58 27 l 1
 60 27 l 1
 60 25 l 1
63 25 m 1
 61 25 l 1
 61 27 l 1
 63 27 l 1
 63 25 l 1
63 29 m 1
 61 29 l 1
 61 31 l 1
 63 31 l 1
 63 29 l 1
60 33 m 1
 58 33 l 1
 58 34 l 1
 59 34 l 1
 59 35 l 1
 60 35 l 1
 60 33 l 1
63 33 m 1
 61 33 l 1
 61 35 l 1
 63 35 l 1
 63 33 l 1
63 37 m 1
 61 37 l 1
 61 39 l 1
 63 39 l 1
 63 37 l 1
12 41 m 1
 10 41 l 1
 10 43 l 1
 11 43 l 1
 11 42 l 1
 12 42 l 1
 12 41 l 1
14 41 m 1
 13 41 l 1
 13 42 l 1
 12 42 l 1
 12 43 l 1
 14 43 l 1
 14 41 l 1
17 41 m 1
 15 41 l 1
 15 43 l 1
 17 43 l 1
 17 41 l 1
23 41 m 1
 21 41 l 1
 21 43 l 1
 23 43 l 1
 23 41 l 1
26 41 m 1
 24 41 l 1
 24 43 l 1
 25 43 l 1
 25 42 l 1
 26 42 l 1
 26 41 l 1
28 41 m 1
 27 41 l 1
 27 42 l 1
 26 42 l 1
 26 43 l 1
 28 43 l 1
 28 41 l 1
31 41 m 1
 29 41 l 1
 29 43 l 1
 31 43 l 1
 31 41 l 1
41 41 m 1
 39 41 l 1
 39 43 l 1
 41 43 l 1
 41 41 l 1
44 41 m 1
 42 41 l 1
 42 43 l 1
 43 43 l 1
 43 42 l 1
 44 42 l 1
 44 41 l 1
46 41 m 1
 45 41 l 1
 45 42 l 1
 44 42 l 1
 44 43 l 1
 46 43 l 1
 46 41 l 1
49 41 m 1
 47 41 l 1
 47 43 l 1
 49 43 l 1
 49 41 l 1
55 41 m 1
 53 41 l 1
 53 43 l 1
 55 43 l 1
 55 41 l 1
58 41 m 1
 56 41 l 1
 56 43 l 1
 57 43 l 1
 57 42 l 1
 58 42 l 1
 58 41 l 1
60 41 m 1
 59 41 l 1
 59 42 l 1
 58 42 l 1
 58 43 l 1
 60 43 l 1
 60 41 l 1
63 41 m 1
 61 41 l 1
 61 43 l 1
 63 43 l 1
 63 41 l 1
EndSplineSet
Ligature2: "'liga' Standard Ligatures in Latin lookup 0-1" five nine zero zero zero
LCarets2: 1 0
EndChar

StartChar: custom_5_9_0_0_1
Encoding: 17957 -1 17712
Width: 70
Flags: H
LayerCount: 2
Fore
SplineSet
9 25 m 1
 7 25 l 1
 7 27 l 1
 9 27 l 1
 9 25 l 1
9 29 m 1
 7 29 l 1
 7 31 l 1
 9 31 l 1
 9 29 l 1
9 33 m 1
 7 33 l 1
 7 35 l 1
 9 35 l 1
 9 33 l 1
9 37 m 1
 7 37 l 1
 7 39 l 1
 9 39 l 1
 9 37 l 1
9 41 m 1
 7 41 l 1
 7 43 l 1
 9 43 l 1
 9 41 l 1
12 25 m 1
 10 25 l 1
 10 27 l 1
 11 27 l 1
 11 26 l 1
 12 26 l 1
 12 25 l 1
14 25 m 1
 13 25 l 1
 13 26 l 1
 12 26 l 1
 12 27 l 1
 14 27 l 1
 14 25 l 1
17 25 m 1
 15 25 l 1
 15 27 l 1
 17 27 l 1
 17 25 l 1
17 29 m 1
 15 29 l 1
 15 31 l 1
 17 31 l 1
 17 29 l 1
23 25 m 1
 21 25 l 1
 21 27 l 1
 23 27 l 1
 23 25 l 1
26 25 m 1
 24 25 l 1
 24 27 l 1
 25 27 l 1
 25 26 l 1
 26 26 l 1
 26 25 l 1
23 29 m 1
 21 29 l 1
 21 31 l 1
 23 31 l 1
 23 29 l 1
17 33 m 1
 15 33 l 1
 15 35 l 1
 17 35 l 1
 17 33 l 1
17 37 m 1
 15 37 l 1
 15 39 l 1
 17 39 l 1
 17 37 l 1
23 33 m 1
 21 33 l 1
 21 35 l 1
 23 35 l 1
 23 33 l 1
23 37 m 1
 21 37 l 1
 21 39 l 1
 23 39 l 1
 23 37 l 1
28 25 m 1
 27 25 l 1
 27 26 l 1
 26 26 l 1
 26 27 l 1
 28 27 l 1
 28 25 l 1
31 25 m 1
 29 25 l 1
 29 27 l 1
 31 27 l 1
 31 25 l 1
31 29 m 1
 29 29 l 1
 29 31 l 1
 31 31 l 1
 31 29 l 1
41 25 m 1
 39 25 l 1
 39 27 l 1
 41 27 l 1
 41 25 l 1
41 29 m 1
 39 29 l 1
 39 31 l 1
 41 31 l 1
 41 29 l 1
31 33 m 1
 29 33 l 1
 29 35 l 1
 31 35 l 1
 31 33 l 1
31 37 m 1
 29 37 l 1
 29 39 l 1
 31 39 l 1
 31 37 l 1
36 31 m 1
 34 31 l 1
 34 33 l 1
 36 33 l 1
 36 31 l 1
41 33 m 1
 39 33 l 1
 39 35 l 1
 41 35 l 1
 41 33 l 1
36 35 m 1
 34 35 l 1
 34 37 l 1
 36 37 l 1
 36 35 l 1
44 25 m 1
 42 25 l 1
 42 27 l 1
 43 27 l 1
 43 26 l 1
 44 26 l 1
 44 25 l 1
46 25 m 1
 45 25 l 1
 45 26 l 1
 44 26 l 1
 44 27 l 1
 46 27 l 1
 46 25 l 1
49 25 m 1
 47 25 l 1
 47 27 l 1
 49 27 l 1
 49 25 l 1
55 25 m 1
 53 25 l 1
 53 27 l 1
 55 27 l 1
 55 25 l 1
58 25 m 1
 56 25 l 1
 56 27 l 1
 57 27 l 1
 57 26 l 1
 58 26 l 1
 58 25 l 1
55 29 m 1
 53 29 l 1
 53 31 l 1
 55 31 l 1
 55 29 l 1
43 33 m 1
 42 33 l 1
 42 35 l 1
 44 35 l 1
 44 34 l 1
 43 34 l 1
 43 33 l 1
46 33 m 1
 44 33 l 1
 44 34 l 1
 45 34 l 1
 45 35 l 1
 46 35 l 1
 46 33 l 1
49 33 m 1
 47 33 l 1
 47 35 l 1
 49 35 l 1
 49 33 l 1
49 37 m 1
 47 37 l 1
 47 39 l 1
 49 39 l 1
 49 37 l 1
55 33 m 1
 53 33 l 1
 53 35 l 1
 55 35 l 1
 55 33 l 1
57 33 m 1
 56 33 l 1
 56 35 l 1
 58 35 l 1
 58 34 l 1
 57 34 l 1
 57 33 l 1
60 25 m 1
 59 25 l 1
 59 26 l 1
 58 26 l 1
 58 27 l 1
 60 27 l 1
 60 25 l 1
63 25 m 1
 61 25 l 1
 61 27 l 1
 63 27 l 1
 63 25 l 1
63 29 m 1
 61 29 l 1
 61 31 l 1
 63 31 l 1
 63 29 l 1
60 33 m 1
 58 33 l 1
 58 34 l 1
 59 34 l 1
 59 35 l 1
 60 35 l 1
 60 33 l 1
63 33 m 1
 61 33 l 1
 61 35 l 1
 63 35 l 1
 63 33 l 1
63 37 m 1
 61 37 l 1
 61 39 l 1
 63 39 l 1
 63 37 l 1
12 41 m 1
 10 41 l 1
 10 43 l 1
 11 43 l 1
 11 42 l 1
 12 42 l 1
 12 41 l 1
14 41 m 1
 13 41 l 1
 13 42 l 1
 12 42 l 1
 12 43 l 1
 14 43 l 1
 14 41 l 1
17 41 m 1
 15 41 l 1
 15 43 l 1
 17 43 l 1
 17 41 l 1
23 41 m 1
 21 41 l 1
 21 43 l 1
 23 43 l 1
 23 41 l 1
26 41 m 1
 24 41 l 1
 24 43 l 1
 25 43 l 1
 25 42 l 1
 26 42 l 1
 26 41 l 1
28 41 m 1
 27 41 l 1
 27 42 l 1
 26 42 l 1
 26 43 l 1
 28 43 l 1
 28 41 l 1
31 41 m 1
 29 41 l 1
 29 43 l 1
 31 43 l 1
 31 41 l 1
41 41 m 1
 39 41 l 1
 39 43 l 1
 41 43 l 1
 41 41 l 1
44 41 m 1
 42 41 l 1
 42 43 l 1
 43 43 l 1
 43 42 l 1
 44 42 l 1
 44 41 l 1
46 41 m 1
 45 41 l 1
 45 42 l 1
 44 42 l 1
 44 43 l 1
 46 43 l 1
 46 41 l 1
49 41 m 1
 47 41 l 1
 47 43 l 1
 49 43 l 1
 49 41 l 1
55 41 m 1
 53 41 l 1
 53 43 l 1
 55 43 l 1
 55 41 l 1
58 41 m 1
 56 41 l 1
 56 43 l 1
 57 43 l 1
 57 42 l 1
 58 42 l 1
 58 41 l 1
60 41 m 1
 59 41 l 1
 59 42 l 1
 58 42 l 1
 58 43 l 1
 60 43 l 1
 60 41 l 1
63 41 m 1
 61 41 l 1
 61 43 l 1
 63 43 l 1
 63 41 l 1
EndSplineSet
Ligature2: "'liga' Standard Ligatures in Latin lookup 0-1" five nine zero zero one
LCarets2: 1 0
EndChar

StartChar: custom_5_9_0_0_2
Encoding: 17958 -1 17713
Width: 70
Flags: H
LayerCount: 2
Fore
SplineSet
9 25 m 1
 7 25 l 1
 7 27 l 1
 9 27 l 1
 9 25 l 1
9 29 m 1
 7 29 l 1
 7 31 l 1
 9 31 l 1
 9 29 l 1
9 33 m 1
 7 33 l 1
 7 35 l 1
 9 35 l 1
 9 33 l 1
9 37 m 1
 7 37 l 1
 7 39 l 1
 9 39 l 1
 9 37 l 1
9 41 m 1
 7 41 l 1
 7 43 l 1
 9 43 l 1
 9 41 l 1
12 25 m 1
 10 25 l 1
 10 27 l 1
 11 27 l 1
 11 26 l 1
 12 26 l 1
 12 25 l 1
14 25 m 1
 13 25 l 1
 13 26 l 1
 12 26 l 1
 12 27 l 1
 14 27 l 1
 14 25 l 1
17 25 m 1
 15 25 l 1
 15 27 l 1
 17 27 l 1
 17 25 l 1
17 29 m 1
 15 29 l 1
 15 31 l 1
 17 31 l 1
 17 29 l 1
23 25 m 1
 21 25 l 1
 21 27 l 1
 23 27 l 1
 23 25 l 1
26 25 m 1
 24 25 l 1
 24 27 l 1
 25 27 l 1
 25 26 l 1
 26 26 l 1
 26 25 l 1
23 29 m 1
 21 29 l 1
 21 31 l 1
 23 31 l 1
 23 29 l 1
17 33 m 1
 15 33 l 1
 15 35 l 1
 17 35 l 1
 17 33 l 1
17 37 m 1
 15 37 l 1
 15 39 l 1
 17 39 l 1
 17 37 l 1
23 33 m 1
 21 33 l 1
 21 35 l 1
 23 35 l 1
 23 33 l 1
23 37 m 1
 21 37 l 1
 21 39 l 1
 23 39 l 1
 23 37 l 1
28 25 m 1
 27 25 l 1
 27 26 l 1
 26 26 l 1
 26 27 l 1
 28 27 l 1
 28 25 l 1
31 25 m 1
 29 25 l 1
 29 27 l 1
 31 27 l 1
 31 25 l 1
31 29 m 1
 29 29 l 1
 29 31 l 1
 31 31 l 1
 31 29 l 1
41 25 m 1
 39 25 l 1
 39 27 l 1
 41 27 l 1
 41 25 l 1
41 29 m 1
 39 29 l 1
 39 31 l 1
 41 31 l 1
 41 29 l 1
31 33 m 1
 29 33 l 1
 29 35 l 1
 31 35 l 1
 31 33 l 1
31 37 m 1
 29 37 l 1
 29 39 l 1
 31 39 l 1
 31 37 l 1
36 31 m 1
 34 31 l 1
 34 33 l 1
 36 33 l 1
 36 31 l 1
41 33 m 1
 39 33 l 1
 39 35 l 1
 41 35 l 1
 41 33 l 1
36 35 m 1
 34 35 l 1
 34 37 l 1
 36 37 l 1
 36 35 l 1
44 25 m 1
 42 25 l 1
 42 27 l 1
 43 27 l 1
 43 26 l 1
 44 26 l 1
 44 25 l 1
46 25 m 1
 45 25 l 1
 45 26 l 1
 44 26 l 1
 44 27 l 1
 46 27 l 1
 46 25 l 1
49 25 m 1
 47 25 l 1
 47 27 l 1
 49 27 l 1
 49 25 l 1
55 25 m 1
 53 25 l 1
 53 27 l 1
 55 27 l 1
 55 25 l 1
58 25 m 1
 56 25 l 1
 56 27 l 1
 57 27 l 1
 57 26 l 1
 58 26 l 1
 58 25 l 1
55 29 m 1
 53 29 l 1
 53 31 l 1
 55 31 l 1
 55 29 l 1
43 33 m 1
 42 33 l 1
 42 35 l 1
 44 35 l 1
 44 34 l 1
 43 34 l 1
 43 33 l 1
46 33 m 1
 44 33 l 1
 44 34 l 1
 45 34 l 1
 45 35 l 1
 46 35 l 1
 46 33 l 1
49 33 m 1
 47 33 l 1
 47 35 l 1
 49 35 l 1
 49 33 l 1
49 37 m 1
 47 37 l 1
 47 39 l 1
 49 39 l 1
 49 37 l 1
55 33 m 1
 53 33 l 1
 53 35 l 1
 55 35 l 1
 55 33 l 1
57 33 m 1
 56 33 l 1
 56 35 l 1
 58 35 l 1
 58 34 l 1
 57 34 l 1
 57 33 l 1
60 25 m 1
 59 25 l 1
 59 26 l 1
 58 26 l 1
 58 27 l 1
 60 27 l 1
 60 25 l 1
63 25 m 1
 61 25 l 1
 61 27 l 1
 63 27 l 1
 63 25 l 1
63 29 m 1
 61 29 l 1
 61 31 l 1
 63 31 l 1
 63 29 l 1
60 33 m 1
 58 33 l 1
 58 34 l 1
 59 34 l 1
 59 35 l 1
 60 35 l 1
 60 33 l 1
63 33 m 1
 61 33 l 1
 61 35 l 1
 63 35 l 1
 63 33 l 1
63 37 m 1
 61 37 l 1
 61 39 l 1
 63 39 l 1
 63 37 l 1
12 41 m 1
 10 41 l 1
 10 43 l 1
 11 43 l 1
 11 42 l 1
 12 42 l 1
 12 41 l 1
14 41 m 1
 13 41 l 1
 13 42 l 1
 12 42 l 1
 12 43 l 1
 14 43 l 1
 14 41 l 1
17 41 m 1
 15 41 l 1
 15 43 l 1
 17 43 l 1
 17 41 l 1
23 41 m 1
 21 41 l 1
 21 43 l 1
 23 43 l 1
 23 41 l 1
26 41 m 1
 24 41 l 1
 24 43 l 1
 25 43 l 1
 25 42 l 1
 26 42 l 1
 26 41 l 1
28 41 m 1
 27 41 l 1
 27 42 l 1
 26 42 l 1
 26 43 l 1
 28 43 l 1
 28 41 l 1
31 41 m 1
 29 41 l 1
 29 43 l 1
 31 43 l 1
 31 41 l 1
41 41 m 1
 39 41 l 1
 39 43 l 1
 41 43 l 1
 41 41 l 1
44 41 m 1
 42 41 l 1
 42 43 l 1
 43 43 l 1
 43 42 l 1
 44 42 l 1
 44 41 l 1
46 41 m 1
 45 41 l 1
 45 42 l 1
 44 42 l 1
 44 43 l 1
 46 43 l 1
 46 41 l 1
49 41 m 1
 47 41 l 1
 47 43 l 1
 49 43 l 1
 49 41 l 1
55 41 m 1
 53 41 l 1
 53 43 l 1
 55 43 l 1
 55 41 l 1
58 41 m 1
 56 41 l 1
 56 43 l 1
 57 43 l 1
 57 42 l 1
 58 42 l 1
 58 41 l 1
60 41 m 1
 59 41 l 1
 59 42 l 1
 58 42 l 1
 58 43 l 1
 60 43 l 1
 60 41 l 1
63 41 m 1
 61 41 l 1
 61 43 l 1
 63 43 l 1
 63 41 l 1
EndSplineSet
Ligature2: "'liga' Standard Ligatures in Latin lookup 0-1" five nine zero zero two
LCarets2: 1 0
EndChar

StartChar: custom_5_9_0_0_3
Encoding: 17959 -1 17714
Width: 70
Flags: H
LayerCount: 2
Fore
SplineSet
9 25 m 1
 7 25 l 1
 7 27 l 1
 9 27 l 1
 9 25 l 1
9 29 m 1
 7 29 l 1
 7 31 l 1
 9 31 l 1
 9 29 l 1
9 33 m 1
 7 33 l 1
 7 35 l 1
 9 35 l 1
 9 33 l 1
9 37 m 1
 7 37 l 1
 7 39 l 1
 9 39 l 1
 9 37 l 1
9 41 m 1
 7 41 l 1
 7 43 l 1
 9 43 l 1
 9 41 l 1
12 25 m 1
 10 25 l 1
 10 27 l 1
 11 27 l 1
 11 26 l 1
 12 26 l 1
 12 25 l 1
14 25 m 1
 13 25 l 1
 13 26 l 1
 12 26 l 1
 12 27 l 1
 14 27 l 1
 14 25 l 1
17 25 m 1
 15 25 l 1
 15 27 l 1
 17 27 l 1
 17 25 l 1
17 29 m 1
 15 29 l 1
 15 31 l 1
 17 31 l 1
 17 29 l 1
23 25 m 1
 21 25 l 1
 21 27 l 1
 23 27 l 1
 23 25 l 1
26 25 m 1
 24 25 l 1
 24 27 l 1
 25 27 l 1
 25 26 l 1
 26 26 l 1
 26 25 l 1
23 29 m 1
 21 29 l 1
 21 31 l 1
 23 31 l 1
 23 29 l 1
17 33 m 1
 15 33 l 1
 15 35 l 1
 17 35 l 1
 17 33 l 1
17 37 m 1
 15 37 l 1
 15 39 l 1
 17 39 l 1
 17 37 l 1
23 33 m 1
 21 33 l 1
 21 35 l 1
 23 35 l 1
 23 33 l 1
23 37 m 1
 21 37 l 1
 21 39 l 1
 23 39 l 1
 23 37 l 1
28 25 m 1
 27 25 l 1
 27 26 l 1
 26 26 l 1
 26 27 l 1
 28 27 l 1
 28 25 l 1
31 25 m 1
 29 25 l 1
 29 27 l 1
 31 27 l 1
 31 25 l 1
31 29 m 1
 29 29 l 1
 29 31 l 1
 31 31 l 1
 31 29 l 1
41 25 m 1
 39 25 l 1
 39 27 l 1
 41 27 l 1
 41 25 l 1
41 29 m 1
 39 29 l 1
 39 31 l 1
 41 31 l 1
 41 29 l 1
31 33 m 1
 29 33 l 1
 29 35 l 1
 31 35 l 1
 31 33 l 1
31 37 m 1
 29 37 l 1
 29 39 l 1
 31 39 l 1
 31 37 l 1
36 31 m 1
 34 31 l 1
 34 33 l 1
 36 33 l 1
 36 31 l 1
41 33 m 1
 39 33 l 1
 39 35 l 1
 41 35 l 1
 41 33 l 1
36 35 m 1
 34 35 l 1
 34 37 l 1
 36 37 l 1
 36 35 l 1
44 25 m 1
 42 25 l 1
 42 27 l 1
 43 27 l 1
 43 26 l 1
 44 26 l 1
 44 25 l 1
46 25 m 1
 45 25 l 1
 45 26 l 1
 44 26 l 1
 44 27 l 1
 46 27 l 1
 46 25 l 1
49 25 m 1
 47 25 l 1
 47 27 l 1
 49 27 l 1
 49 25 l 1
55 25 m 1
 53 25 l 1
 53 27 l 1
 55 27 l 1
 55 25 l 1
58 25 m 1
 56 25 l 1
 56 27 l 1
 57 27 l 1
 57 26 l 1
 58 26 l 1
 58 25 l 1
55 29 m 1
 53 29 l 1
 53 31 l 1
 55 31 l 1
 55 29 l 1
43 33 m 1
 42 33 l 1
 42 35 l 1
 44 35 l 1
 44 34 l 1
 43 34 l 1
 43 33 l 1
46 33 m 1
 44 33 l 1
 44 34 l 1
 45 34 l 1
 45 35 l 1
 46 35 l 1
 46 33 l 1
49 33 m 1
 47 33 l 1
 47 35 l 1
 49 35 l 1
 49 33 l 1
49 37 m 1
 47 37 l 1
 47 39 l 1
 49 39 l 1
 49 37 l 1
55 33 m 1
 53 33 l 1
 53 35 l 1
 55 35 l 1
 55 33 l 1
57 33 m 1
 56 33 l 1
 56 35 l 1
 58 35 l 1
 58 34 l 1
 57 34 l 1
 57 33 l 1
60 25 m 1
 59 25 l 1
 59 26 l 1
 58 26 l 1
 58 27 l 1
 60 27 l 1
 60 25 l 1
63 25 m 1
 61 25 l 1
 61 27 l 1
 63 27 l 1
 63 25 l 1
63 29 m 1
 61 29 l 1
 61 31 l 1
 63 31 l 1
 63 29 l 1
60 33 m 1
 58 33 l 1
 58 34 l 1
 59 34 l 1
 59 35 l 1
 60 35 l 1
 60 33 l 1
63 33 m 1
 61 33 l 1
 61 35 l 1
 63 35 l 1
 63 33 l 1
63 37 m 1
 61 37 l 1
 61 39 l 1
 63 39 l 1
 63 37 l 1
12 41 m 1
 10 41 l 1
 10 43 l 1
 11 43 l 1
 11 42 l 1
 12 42 l 1
 12 41 l 1
14 41 m 1
 13 41 l 1
 13 42 l 1
 12 42 l 1
 12 43 l 1
 14 43 l 1
 14 41 l 1
17 41 m 1
 15 41 l 1
 15 43 l 1
 17 43 l 1
 17 41 l 1
23 41 m 1
 21 41 l 1
 21 43 l 1
 23 43 l 1
 23 41 l 1
26 41 m 1
 24 41 l 1
 24 43 l 1
 25 43 l 1
 25 42 l 1
 26 42 l 1
 26 41 l 1
28 41 m 1
 27 41 l 1
 27 42 l 1
 26 42 l 1
 26 43 l 1
 28 43 l 1
 28 41 l 1
31 41 m 1
 29 41 l 1
 29 43 l 1
 31 43 l 1
 31 41 l 1
41 41 m 1
 39 41 l 1
 39 43 l 1
 41 43 l 1
 41 41 l 1
44 41 m 1
 42 41 l 1
 42 43 l 1
 43 43 l 1
 43 42 l 1
 44 42 l 1
 44 41 l 1
46 41 m 1
 45 41 l 1
 45 42 l 1
 44 42 l 1
 44 43 l 1
 46 43 l 1
 46 41 l 1
49 41 m 1
 47 41 l 1
 47 43 l 1
 49 43 l 1
 49 41 l 1
55 41 m 1
 53 41 l 1
 53 43 l 1
 55 43 l 1
 55 41 l 1
58 41 m 1
 56 41 l 1
 56 43 l 1
 57 43 l 1
 57 42 l 1
 58 42 l 1
 58 41 l 1
60 41 m 1
 59 41 l 1
 59 42 l 1
 58 42 l 1
 58 43 l 1
 60 43 l 1
 60 41 l 1
63 41 m 1
 61 41 l 1
 61 43 l 1
 63 43 l 1
 63 41 l 1
EndSplineSet
Ligature2: "'liga' Standard Ligatures in Latin lookup 0-1" five nine zero zero three
LCarets2: 1 0
EndChar

StartChar: custom_5_9_0_0_4
Encoding: 17960 -1 17715
Width: 70
Flags: H
LayerCount: 2
Fore
SplineSet
9 25 m 1
 7 25 l 1
 7 27 l 1
 9 27 l 1
 9 25 l 1
9 29 m 1
 7 29 l 1
 7 31 l 1
 9 31 l 1
 9 29 l 1
9 33 m 1
 7 33 l 1
 7 35 l 1
 9 35 l 1
 9 33 l 1
9 37 m 1
 7 37 l 1
 7 39 l 1
 9 39 l 1
 9 37 l 1
9 41 m 1
 7 41 l 1
 7 43 l 1
 9 43 l 1
 9 41 l 1
12 25 m 1
 10 25 l 1
 10 27 l 1
 11 27 l 1
 11 26 l 1
 12 26 l 1
 12 25 l 1
14 25 m 1
 13 25 l 1
 13 26 l 1
 12 26 l 1
 12 27 l 1
 14 27 l 1
 14 25 l 1
17 25 m 1
 15 25 l 1
 15 27 l 1
 17 27 l 1
 17 25 l 1
17 29 m 1
 15 29 l 1
 15 31 l 1
 17 31 l 1
 17 29 l 1
23 25 m 1
 21 25 l 1
 21 27 l 1
 23 27 l 1
 23 25 l 1
26 25 m 1
 24 25 l 1
 24 27 l 1
 25 27 l 1
 25 26 l 1
 26 26 l 1
 26 25 l 1
23 29 m 1
 21 29 l 1
 21 31 l 1
 23 31 l 1
 23 29 l 1
17 33 m 1
 15 33 l 1
 15 35 l 1
 17 35 l 1
 17 33 l 1
17 37 m 1
 15 37 l 1
 15 39 l 1
 17 39 l 1
 17 37 l 1
23 33 m 1
 21 33 l 1
 21 35 l 1
 23 35 l 1
 23 33 l 1
23 37 m 1
 21 37 l 1
 21 39 l 1
 23 39 l 1
 23 37 l 1
28 25 m 1
 27 25 l 1
 27 26 l 1
 26 26 l 1
 26 27 l 1
 28 27 l 1
 28 25 l 1
31 25 m 1
 29 25 l 1
 29 27 l 1
 31 27 l 1
 31 25 l 1
31 29 m 1
 29 29 l 1
 29 31 l 1
 31 31 l 1
 31 29 l 1
41 25 m 1
 39 25 l 1
 39 27 l 1
 41 27 l 1
 41 25 l 1
41 29 m 1
 39 29 l 1
 39 31 l 1
 41 31 l 1
 41 29 l 1
31 33 m 1
 29 33 l 1
 29 35 l 1
 31 35 l 1
 31 33 l 1
31 37 m 1
 29 37 l 1
 29 39 l 1
 31 39 l 1
 31 37 l 1
36 31 m 1
 34 31 l 1
 34 33 l 1
 36 33 l 1
 36 31 l 1
41 33 m 1
 39 33 l 1
 39 35 l 1
 41 35 l 1
 41 33 l 1
36 35 m 1
 34 35 l 1
 34 37 l 1
 36 37 l 1
 36 35 l 1
44 25 m 1
 42 25 l 1
 42 27 l 1
 43 27 l 1
 43 26 l 1
 44 26 l 1
 44 25 l 1
46 25 m 1
 45 25 l 1
 45 26 l 1
 44 26 l 1
 44 27 l 1
 46 27 l 1
 46 25 l 1
49 25 m 1
 47 25 l 1
 47 27 l 1
 49 27 l 1
 49 25 l 1
55 25 m 1
 53 25 l 1
 53 27 l 1
 55 27 l 1
 55 25 l 1
58 25 m 1
 56 25 l 1
 56 27 l 1
 57 27 l 1
 57 26 l 1
 58 26 l 1
 58 25 l 1
55 29 m 1
 53 29 l 1
 53 31 l 1
 55 31 l 1
 55 29 l 1
43 33 m 1
 42 33 l 1
 42 35 l 1
 44 35 l 1
 44 34 l 1
 43 34 l 1
 43 33 l 1
46 33 m 1
 44 33 l 1
 44 34 l 1
 45 34 l 1
 45 35 l 1
 46 35 l 1
 46 33 l 1
49 33 m 1
 47 33 l 1
 47 35 l 1
 49 35 l 1
 49 33 l 1
49 37 m 1
 47 37 l 1
 47 39 l 1
 49 39 l 1
 49 37 l 1
55 33 m 1
 53 33 l 1
 53 35 l 1
 55 35 l 1
 55 33 l 1
57 33 m 1
 56 33 l 1
 56 35 l 1
 58 35 l 1
 58 34 l 1
 57 34 l 1
 57 33 l 1
60 25 m 1
 59 25 l 1
 59 26 l 1
 58 26 l 1
 58 27 l 1
 60 27 l 1
 60 25 l 1
63 25 m 1
 61 25 l 1
 61 27 l 1
 63 27 l 1
 63 25 l 1
63 29 m 1
 61 29 l 1
 61 31 l 1
 63 31 l 1
 63 29 l 1
60 33 m 1
 58 33 l 1
 58 34 l 1
 59 34 l 1
 59 35 l 1
 60 35 l 1
 60 33 l 1
63 33 m 1
 61 33 l 1
 61 35 l 1
 63 35 l 1
 63 33 l 1
63 37 m 1
 61 37 l 1
 61 39 l 1
 63 39 l 1
 63 37 l 1
12 41 m 1
 10 41 l 1
 10 43 l 1
 11 43 l 1
 11 42 l 1
 12 42 l 1
 12 41 l 1
14 41 m 1
 13 41 l 1
 13 42 l 1
 12 42 l 1
 12 43 l 1
 14 43 l 1
 14 41 l 1
17 41 m 1
 15 41 l 1
 15 43 l 1
 17 43 l 1
 17 41 l 1
23 41 m 1
 21 41 l 1
 21 43 l 1
 23 43 l 1
 23 41 l 1
26 41 m 1
 24 41 l 1
 24 43 l 1
 25 43 l 1
 25 42 l 1
 26 42 l 1
 26 41 l 1
28 41 m 1
 27 41 l 1
 27 42 l 1
 26 42 l 1
 26 43 l 1
 28 43 l 1
 28 41 l 1
31 41 m 1
 29 41 l 1
 29 43 l 1
 31 43 l 1
 31 41 l 1
41 41 m 1
 39 41 l 1
 39 43 l 1
 41 43 l 1
 41 41 l 1
44 41 m 1
 42 41 l 1
 42 43 l 1
 43 43 l 1
 43 42 l 1
 44 42 l 1
 44 41 l 1
46 41 m 1
 45 41 l 1
 45 42 l 1
 44 42 l 1
 44 43 l 1
 46 43 l 1
 46 41 l 1
49 41 m 1
 47 41 l 1
 47 43 l 1
 49 43 l 1
 49 41 l 1
55 41 m 1
 53 41 l 1
 53 43 l 1
 55 43 l 1
 55 41 l 1
58 41 m 1
 56 41 l 1
 56 43 l 1
 57 43 l 1
 57 42 l 1
 58 42 l 1
 58 41 l 1
60 41 m 1
 59 41 l 1
 59 42 l 1
 58 42 l 1
 58 43 l 1
 60 43 l 1
 60 41 l 1
63 41 m 1
 61 41 l 1
 61 43 l 1
 63 43 l 1
 63 41 l 1
EndSplineSet
Ligature2: "'liga' Standard Ligatures in Latin lookup 0-1" five nine zero zero four
LCarets2: 1 0
EndChar

StartChar: custom_5_9_0_0_5
Encoding: 17961 -1 17716
Width: 70
Flags: H
LayerCount: 2
Fore
SplineSet
9 25 m 1
 7 25 l 1
 7 27 l 1
 9 27 l 1
 9 25 l 1
9 29 m 1
 7 29 l 1
 7 31 l 1
 9 31 l 1
 9 29 l 1
9 33 m 1
 7 33 l 1
 7 35 l 1
 9 35 l 1
 9 33 l 1
9 37 m 1
 7 37 l 1
 7 39 l 1
 9 39 l 1
 9 37 l 1
9 41 m 1
 7 41 l 1
 7 43 l 1
 9 43 l 1
 9 41 l 1
12 25 m 1
 10 25 l 1
 10 27 l 1
 11 27 l 1
 11 26 l 1
 12 26 l 1
 12 25 l 1
14 25 m 1
 13 25 l 1
 13 26 l 1
 12 26 l 1
 12 27 l 1
 14 27 l 1
 14 25 l 1
17 25 m 1
 15 25 l 1
 15 27 l 1
 17 27 l 1
 17 25 l 1
17 29 m 1
 15 29 l 1
 15 31 l 1
 17 31 l 1
 17 29 l 1
23 25 m 1
 21 25 l 1
 21 27 l 1
 23 27 l 1
 23 25 l 1
26 25 m 1
 24 25 l 1
 24 27 l 1
 25 27 l 1
 25 26 l 1
 26 26 l 1
 26 25 l 1
23 29 m 1
 21 29 l 1
 21 31 l 1
 23 31 l 1
 23 29 l 1
17 33 m 1
 15 33 l 1
 15 35 l 1
 17 35 l 1
 17 33 l 1
17 37 m 1
 15 37 l 1
 15 39 l 1
 17 39 l 1
 17 37 l 1
23 33 m 1
 21 33 l 1
 21 35 l 1
 23 35 l 1
 23 33 l 1
23 37 m 1
 21 37 l 1
 21 39 l 1
 23 39 l 1
 23 37 l 1
28 25 m 1
 27 25 l 1
 27 26 l 1
 26 26 l 1
 26 27 l 1
 28 27 l 1
 28 25 l 1
31 25 m 1
 29 25 l 1
 29 27 l 1
 31 27 l 1
 31 25 l 1
31 29 m 1
 29 29 l 1
 29 31 l 1
 31 31 l 1
 31 29 l 1
41 25 m 1
 39 25 l 1
 39 27 l 1
 41 27 l 1
 41 25 l 1
41 29 m 1
 39 29 l 1
 39 31 l 1
 41 31 l 1
 41 29 l 1
31 33 m 1
 29 33 l 1
 29 35 l 1
 31 35 l 1
 31 33 l 1
31 37 m 1
 29 37 l 1
 29 39 l 1
 31 39 l 1
 31 37 l 1
36 31 m 1
 34 31 l 1
 34 33 l 1
 36 33 l 1
 36 31 l 1
41 33 m 1
 39 33 l 1
 39 35 l 1
 41 35 l 1
 41 33 l 1
36 35 m 1
 34 35 l 1
 34 37 l 1
 36 37 l 1
 36 35 l 1
44 25 m 1
 42 25 l 1
 42 27 l 1
 43 27 l 1
 43 26 l 1
 44 26 l 1
 44 25 l 1
46 25 m 1
 45 25 l 1
 45 26 l 1
 44 26 l 1
 44 27 l 1
 46 27 l 1
 46 25 l 1
49 25 m 1
 47 25 l 1
 47 27 l 1
 49 27 l 1
 49 25 l 1
55 25 m 1
 53 25 l 1
 53 27 l 1
 55 27 l 1
 55 25 l 1
58 25 m 1
 56 25 l 1
 56 27 l 1
 57 27 l 1
 57 26 l 1
 58 26 l 1
 58 25 l 1
55 29 m 1
 53 29 l 1
 53 31 l 1
 55 31 l 1
 55 29 l 1
43 33 m 1
 42 33 l 1
 42 35 l 1
 44 35 l 1
 44 34 l 1
 43 34 l 1
 43 33 l 1
46 33 m 1
 44 33 l 1
 44 34 l 1
 45 34 l 1
 45 35 l 1
 46 35 l 1
 46 33 l 1
49 33 m 1
 47 33 l 1
 47 35 l 1
 49 35 l 1
 49 33 l 1
49 37 m 1
 47 37 l 1
 47 39 l 1
 49 39 l 1
 49 37 l 1
55 33 m 1
 53 33 l 1
 53 35 l 1
 55 35 l 1
 55 33 l 1
57 33 m 1
 56 33 l 1
 56 35 l 1
 58 35 l 1
 58 34 l 1
 57 34 l 1
 57 33 l 1
60 25 m 1
 59 25 l 1
 59 26 l 1
 58 26 l 1
 58 27 l 1
 60 27 l 1
 60 25 l 1
63 25 m 1
 61 25 l 1
 61 27 l 1
 63 27 l 1
 63 25 l 1
63 29 m 1
 61 29 l 1
 61 31 l 1
 63 31 l 1
 63 29 l 1
60 33 m 1
 58 33 l 1
 58 34 l 1
 59 34 l 1
 59 35 l 1
 60 35 l 1
 60 33 l 1
63 33 m 1
 61 33 l 1
 61 35 l 1
 63 35 l 1
 63 33 l 1
63 37 m 1
 61 37 l 1
 61 39 l 1
 63 39 l 1
 63 37 l 1
12 41 m 1
 10 41 l 1
 10 43 l 1
 11 43 l 1
 11 42 l 1
 12 42 l 1
 12 41 l 1
14 41 m 1
 13 41 l 1
 13 42 l 1
 12 42 l 1
 12 43 l 1
 14 43 l 1
 14 41 l 1
17 41 m 1
 15 41 l 1
 15 43 l 1
 17 43 l 1
 17 41 l 1
23 41 m 1
 21 41 l 1
 21 43 l 1
 23 43 l 1
 23 41 l 1
26 41 m 1
 24 41 l 1
 24 43 l 1
 25 43 l 1
 25 42 l 1
 26 42 l 1
 26 41 l 1
28 41 m 1
 27 41 l 1
 27 42 l 1
 26 42 l 1
 26 43 l 1
 28 43 l 1
 28 41 l 1
31 41 m 1
 29 41 l 1
 29 43 l 1
 31 43 l 1
 31 41 l 1
41 41 m 1
 39 41 l 1
 39 43 l 1
 41 43 l 1
 41 41 l 1
44 41 m 1
 42 41 l 1
 42 43 l 1
 43 43 l 1
 43 42 l 1
 44 42 l 1
 44 41 l 1
46 41 m 1
 45 41 l 1
 45 42 l 1
 44 42 l 1
 44 43 l 1
 46 43 l 1
 46 41 l 1
49 41 m 1
 47 41 l 1
 47 43 l 1
 49 43 l 1
 49 41 l 1
55 41 m 1
 53 41 l 1
 53 43 l 1
 55 43 l 1
 55 41 l 1
58 41 m 1
 56 41 l 1
 56 43 l 1
 57 43 l 1
 57 42 l 1
 58 42 l 1
 58 41 l 1
60 41 m 1
 59 41 l 1
 59 42 l 1
 58 42 l 1
 58 43 l 1
 60 43 l 1
 60 41 l 1
63 41 m 1
 61 41 l 1
 61 43 l 1
 63 43 l 1
 63 41 l 1
EndSplineSet
Ligature2: "'liga' Standard Ligatures in Latin lookup 0-1" five nine zero zero five
LCarets2: 1 0
EndChar

StartChar: custom_5_9_0_0_6
Encoding: 17962 -1 17717
Width: 70
Flags: H
LayerCount: 2
Fore
SplineSet
9 25 m 1
 7 25 l 1
 7 27 l 1
 9 27 l 1
 9 25 l 1
9 29 m 1
 7 29 l 1
 7 31 l 1
 9 31 l 1
 9 29 l 1
9 33 m 1
 7 33 l 1
 7 35 l 1
 9 35 l 1
 9 33 l 1
9 37 m 1
 7 37 l 1
 7 39 l 1
 9 39 l 1
 9 37 l 1
9 41 m 1
 7 41 l 1
 7 43 l 1
 9 43 l 1
 9 41 l 1
12 25 m 1
 10 25 l 1
 10 27 l 1
 11 27 l 1
 11 26 l 1
 12 26 l 1
 12 25 l 1
14 25 m 1
 13 25 l 1
 13 26 l 1
 12 26 l 1
 12 27 l 1
 14 27 l 1
 14 25 l 1
17 25 m 1
 15 25 l 1
 15 27 l 1
 17 27 l 1
 17 25 l 1
17 29 m 1
 15 29 l 1
 15 31 l 1
 17 31 l 1
 17 29 l 1
23 25 m 1
 21 25 l 1
 21 27 l 1
 23 27 l 1
 23 25 l 1
26 25 m 1
 24 25 l 1
 24 27 l 1
 25 27 l 1
 25 26 l 1
 26 26 l 1
 26 25 l 1
23 29 m 1
 21 29 l 1
 21 31 l 1
 23 31 l 1
 23 29 l 1
17 33 m 1
 15 33 l 1
 15 35 l 1
 17 35 l 1
 17 33 l 1
17 37 m 1
 15 37 l 1
 15 39 l 1
 17 39 l 1
 17 37 l 1
23 33 m 1
 21 33 l 1
 21 35 l 1
 23 35 l 1
 23 33 l 1
23 37 m 1
 21 37 l 1
 21 39 l 1
 23 39 l 1
 23 37 l 1
28 25 m 1
 27 25 l 1
 27 26 l 1
 26 26 l 1
 26 27 l 1
 28 27 l 1
 28 25 l 1
31 25 m 1
 29 25 l 1
 29 27 l 1
 31 27 l 1
 31 25 l 1
31 29 m 1
 29 29 l 1
 29 31 l 1
 31 31 l 1
 31 29 l 1
41 25 m 1
 39 25 l 1
 39 27 l 1
 41 27 l 1
 41 25 l 1
41 29 m 1
 39 29 l 1
 39 31 l 1
 41 31 l 1
 41 29 l 1
31 33 m 1
 29 33 l 1
 29 35 l 1
 31 35 l 1
 31 33 l 1
31 37 m 1
 29 37 l 1
 29 39 l 1
 31 39 l 1
 31 37 l 1
36 31 m 1
 34 31 l 1
 34 33 l 1
 36 33 l 1
 36 31 l 1
41 33 m 1
 39 33 l 1
 39 35 l 1
 41 35 l 1
 41 33 l 1
36 35 m 1
 34 35 l 1
 34 37 l 1
 36 37 l 1
 36 35 l 1
44 25 m 1
 42 25 l 1
 42 27 l 1
 43 27 l 1
 43 26 l 1
 44 26 l 1
 44 25 l 1
46 25 m 1
 45 25 l 1
 45 26 l 1
 44 26 l 1
 44 27 l 1
 46 27 l 1
 46 25 l 1
49 25 m 1
 47 25 l 1
 47 27 l 1
 49 27 l 1
 49 25 l 1
55 25 m 1
 53 25 l 1
 53 27 l 1
 55 27 l 1
 55 25 l 1
58 25 m 1
 56 25 l 1
 56 27 l 1
 57 27 l 1
 57 26 l 1
 58 26 l 1
 58 25 l 1
55 29 m 1
 53 29 l 1
 53 31 l 1
 55 31 l 1
 55 29 l 1
43 33 m 1
 42 33 l 1
 42 35 l 1
 44 35 l 1
 44 34 l 1
 43 34 l 1
 43 33 l 1
46 33 m 1
 44 33 l 1
 44 34 l 1
 45 34 l 1
 45 35 l 1
 46 35 l 1
 46 33 l 1
49 33 m 1
 47 33 l 1
 47 35 l 1
 49 35 l 1
 49 33 l 1
49 37 m 1
 47 37 l 1
 47 39 l 1
 49 39 l 1
 49 37 l 1
55 33 m 1
 53 33 l 1
 53 35 l 1
 55 35 l 1
 55 33 l 1
57 33 m 1
 56 33 l 1
 56 35 l 1
 58 35 l 1
 58 34 l 1
 57 34 l 1
 57 33 l 1
60 25 m 1
 59 25 l 1
 59 26 l 1
 58 26 l 1
 58 27 l 1
 60 27 l 1
 60 25 l 1
63 25 m 1
 61 25 l 1
 61 27 l 1
 63 27 l 1
 63 25 l 1
63 29 m 1
 61 29 l 1
 61 31 l 1
 63 31 l 1
 63 29 l 1
60 33 m 1
 58 33 l 1
 58 34 l 1
 59 34 l 1
 59 35 l 1
 60 35 l 1
 60 33 l 1
63 33 m 1
 61 33 l 1
 61 35 l 1
 63 35 l 1
 63 33 l 1
63 37 m 1
 61 37 l 1
 61 39 l 1
 63 39 l 1
 63 37 l 1
12 41 m 1
 10 41 l 1
 10 43 l 1
 11 43 l 1
 11 42 l 1
 12 42 l 1
 12 41 l 1
14 41 m 1
 13 41 l 1
 13 42 l 1
 12 42 l 1
 12 43 l 1
 14 43 l 1
 14 41 l 1
17 41 m 1
 15 41 l 1
 15 43 l 1
 17 43 l 1
 17 41 l 1
23 41 m 1
 21 41 l 1
 21 43 l 1
 23 43 l 1
 23 41 l 1
26 41 m 1
 24 41 l 1
 24 43 l 1
 25 43 l 1
 25 42 l 1
 26 42 l 1
 26 41 l 1
28 41 m 1
 27 41 l 1
 27 42 l 1
 26 42 l 1
 26 43 l 1
 28 43 l 1
 28 41 l 1
31 41 m 1
 29 41 l 1
 29 43 l 1
 31 43 l 1
 31 41 l 1
41 41 m 1
 39 41 l 1
 39 43 l 1
 41 43 l 1
 41 41 l 1
44 41 m 1
 42 41 l 1
 42 43 l 1
 43 43 l 1
 43 42 l 1
 44 42 l 1
 44 41 l 1
46 41 m 1
 45 41 l 1
 45 42 l 1
 44 42 l 1
 44 43 l 1
 46 43 l 1
 46 41 l 1
49 41 m 1
 47 41 l 1
 47 43 l 1
 49 43 l 1
 49 41 l 1
55 41 m 1
 53 41 l 1
 53 43 l 1
 55 43 l 1
 55 41 l 1
58 41 m 1
 56 41 l 1
 56 43 l 1
 57 43 l 1
 57 42 l 1
 58 42 l 1
 58 41 l 1
60 41 m 1
 59 41 l 1
 59 42 l 1
 58 42 l 1
 58 43 l 1
 60 43 l 1
 60 41 l 1
63 41 m 1
 61 41 l 1
 61 43 l 1
 63 43 l 1
 63 41 l 1
EndSplineSet
Ligature2: "'liga' Standard Ligatures in Latin lookup 0-1" five nine zero zero six
LCarets2: 1 0
EndChar

StartChar: custom_5_9_0_0_7
Encoding: 17963 -1 17718
Width: 70
Flags: H
LayerCount: 2
Fore
SplineSet
9 25 m 1
 7 25 l 1
 7 27 l 1
 9 27 l 1
 9 25 l 1
9 29 m 1
 7 29 l 1
 7 31 l 1
 9 31 l 1
 9 29 l 1
9 33 m 1
 7 33 l 1
 7 35 l 1
 9 35 l 1
 9 33 l 1
9 37 m 1
 7 37 l 1
 7 39 l 1
 9 39 l 1
 9 37 l 1
9 41 m 1
 7 41 l 1
 7 43 l 1
 9 43 l 1
 9 41 l 1
12 25 m 1
 10 25 l 1
 10 27 l 1
 11 27 l 1
 11 26 l 1
 12 26 l 1
 12 25 l 1
14 25 m 1
 13 25 l 1
 13 26 l 1
 12 26 l 1
 12 27 l 1
 14 27 l 1
 14 25 l 1
17 25 m 1
 15 25 l 1
 15 27 l 1
 17 27 l 1
 17 25 l 1
17 29 m 1
 15 29 l 1
 15 31 l 1
 17 31 l 1
 17 29 l 1
23 25 m 1
 21 25 l 1
 21 27 l 1
 23 27 l 1
 23 25 l 1
26 25 m 1
 24 25 l 1
 24 27 l 1
 25 27 l 1
 25 26 l 1
 26 26 l 1
 26 25 l 1
23 29 m 1
 21 29 l 1
 21 31 l 1
 23 31 l 1
 23 29 l 1
17 33 m 1
 15 33 l 1
 15 35 l 1
 17 35 l 1
 17 33 l 1
17 37 m 1
 15 37 l 1
 15 39 l 1
 17 39 l 1
 17 37 l 1
23 33 m 1
 21 33 l 1
 21 35 l 1
 23 35 l 1
 23 33 l 1
23 37 m 1
 21 37 l 1
 21 39 l 1
 23 39 l 1
 23 37 l 1
28 25 m 1
 27 25 l 1
 27 26 l 1
 26 26 l 1
 26 27 l 1
 28 27 l 1
 28 25 l 1
31 25 m 1
 29 25 l 1
 29 27 l 1
 31 27 l 1
 31 25 l 1
31 29 m 1
 29 29 l 1
 29 31 l 1
 31 31 l 1
 31 29 l 1
41 25 m 1
 39 25 l 1
 39 27 l 1
 41 27 l 1
 41 25 l 1
41 29 m 1
 39 29 l 1
 39 31 l 1
 41 31 l 1
 41 29 l 1
31 33 m 1
 29 33 l 1
 29 35 l 1
 31 35 l 1
 31 33 l 1
31 37 m 1
 29 37 l 1
 29 39 l 1
 31 39 l 1
 31 37 l 1
36 31 m 1
 34 31 l 1
 34 33 l 1
 36 33 l 1
 36 31 l 1
41 33 m 1
 39 33 l 1
 39 35 l 1
 41 35 l 1
 41 33 l 1
36 35 m 1
 34 35 l 1
 34 37 l 1
 36 37 l 1
 36 35 l 1
44 25 m 1
 42 25 l 1
 42 27 l 1
 43 27 l 1
 43 26 l 1
 44 26 l 1
 44 25 l 1
46 25 m 1
 45 25 l 1
 45 26 l 1
 44 26 l 1
 44 27 l 1
 46 27 l 1
 46 25 l 1
49 25 m 1
 47 25 l 1
 47 27 l 1
 49 27 l 1
 49 25 l 1
55 25 m 1
 53 25 l 1
 53 27 l 1
 55 27 l 1
 55 25 l 1
58 25 m 1
 56 25 l 1
 56 27 l 1
 57 27 l 1
 57 26 l 1
 58 26 l 1
 58 25 l 1
55 29 m 1
 53 29 l 1
 53 31 l 1
 55 31 l 1
 55 29 l 1
43 33 m 1
 42 33 l 1
 42 35 l 1
 44 35 l 1
 44 34 l 1
 43 34 l 1
 43 33 l 1
46 33 m 1
 44 33 l 1
 44 34 l 1
 45 34 l 1
 45 35 l 1
 46 35 l 1
 46 33 l 1
49 33 m 1
 47 33 l 1
 47 35 l 1
 49 35 l 1
 49 33 l 1
49 37 m 1
 47 37 l 1
 47 39 l 1
 49 39 l 1
 49 37 l 1
55 33 m 1
 53 33 l 1
 53 35 l 1
 55 35 l 1
 55 33 l 1
57 33 m 1
 56 33 l 1
 56 35 l 1
 58 35 l 1
 58 34 l 1
 57 34 l 1
 57 33 l 1
60 25 m 1
 59 25 l 1
 59 26 l 1
 58 26 l 1
 58 27 l 1
 60 27 l 1
 60 25 l 1
63 25 m 1
 61 25 l 1
 61 27 l 1
 63 27 l 1
 63 25 l 1
63 29 m 1
 61 29 l 1
 61 31 l 1
 63 31 l 1
 63 29 l 1
60 33 m 1
 58 33 l 1
 58 34 l 1
 59 34 l 1
 59 35 l 1
 60 35 l 1
 60 33 l 1
63 33 m 1
 61 33 l 1
 61 35 l 1
 63 35 l 1
 63 33 l 1
63 37 m 1
 61 37 l 1
 61 39 l 1
 63 39 l 1
 63 37 l 1
12 41 m 1
 10 41 l 1
 10 43 l 1
 11 43 l 1
 11 42 l 1
 12 42 l 1
 12 41 l 1
14 41 m 1
 13 41 l 1
 13 42 l 1
 12 42 l 1
 12 43 l 1
 14 43 l 1
 14 41 l 1
17 41 m 1
 15 41 l 1
 15 43 l 1
 17 43 l 1
 17 41 l 1
23 41 m 1
 21 41 l 1
 21 43 l 1
 23 43 l 1
 23 41 l 1
26 41 m 1
 24 41 l 1
 24 43 l 1
 25 43 l 1
 25 42 l 1
 26 42 l 1
 26 41 l 1
28 41 m 1
 27 41 l 1
 27 42 l 1
 26 42 l 1
 26 43 l 1
 28 43 l 1
 28 41 l 1
31 41 m 1
 29 41 l 1
 29 43 l 1
 31 43 l 1
 31 41 l 1
41 41 m 1
 39 41 l 1
 39 43 l 1
 41 43 l 1
 41 41 l 1
44 41 m 1
 42 41 l 1
 42 43 l 1
 43 43 l 1
 43 42 l 1
 44 42 l 1
 44 41 l 1
46 41 m 1
 45 41 l 1
 45 42 l 1
 44 42 l 1
 44 43 l 1
 46 43 l 1
 46 41 l 1
49 41 m 1
 47 41 l 1
 47 43 l 1
 49 43 l 1
 49 41 l 1
55 41 m 1
 53 41 l 1
 53 43 l 1
 55 43 l 1
 55 41 l 1
58 41 m 1
 56 41 l 1
 56 43 l 1
 57 43 l 1
 57 42 l 1
 58 42 l 1
 58 41 l 1
60 41 m 1
 59 41 l 1
 59 42 l 1
 58 42 l 1
 58 43 l 1
 60 43 l 1
 60 41 l 1
63 41 m 1
 61 41 l 1
 61 43 l 1
 63 43 l 1
 63 41 l 1
EndSplineSet
Ligature2: "'liga' Standard Ligatures in Latin lookup 0-1" five nine zero zero seven
LCarets2: 1 0
EndChar

StartChar: custom_5_9_0_0_8
Encoding: 17964 -1 17719
Width: 70
Flags: H
LayerCount: 2
Fore
SplineSet
9 25 m 1
 7 25 l 1
 7 27 l 1
 9 27 l 1
 9 25 l 1
9 29 m 1
 7 29 l 1
 7 31 l 1
 9 31 l 1
 9 29 l 1
9 33 m 1
 7 33 l 1
 7 35 l 1
 9 35 l 1
 9 33 l 1
9 37 m 1
 7 37 l 1
 7 39 l 1
 9 39 l 1
 9 37 l 1
9 41 m 1
 7 41 l 1
 7 43 l 1
 9 43 l 1
 9 41 l 1
12 25 m 1
 10 25 l 1
 10 27 l 1
 11 27 l 1
 11 26 l 1
 12 26 l 1
 12 25 l 1
14 25 m 1
 13 25 l 1
 13 26 l 1
 12 26 l 1
 12 27 l 1
 14 27 l 1
 14 25 l 1
17 25 m 1
 15 25 l 1
 15 27 l 1
 17 27 l 1
 17 25 l 1
17 29 m 1
 15 29 l 1
 15 31 l 1
 17 31 l 1
 17 29 l 1
23 25 m 1
 21 25 l 1
 21 27 l 1
 23 27 l 1
 23 25 l 1
26 25 m 1
 24 25 l 1
 24 27 l 1
 25 27 l 1
 25 26 l 1
 26 26 l 1
 26 25 l 1
23 29 m 1
 21 29 l 1
 21 31 l 1
 23 31 l 1
 23 29 l 1
17 33 m 1
 15 33 l 1
 15 35 l 1
 17 35 l 1
 17 33 l 1
17 37 m 1
 15 37 l 1
 15 39 l 1
 17 39 l 1
 17 37 l 1
23 33 m 1
 21 33 l 1
 21 35 l 1
 23 35 l 1
 23 33 l 1
23 37 m 1
 21 37 l 1
 21 39 l 1
 23 39 l 1
 23 37 l 1
28 25 m 1
 27 25 l 1
 27 26 l 1
 26 26 l 1
 26 27 l 1
 28 27 l 1
 28 25 l 1
31 25 m 1
 29 25 l 1
 29 27 l 1
 31 27 l 1
 31 25 l 1
31 29 m 1
 29 29 l 1
 29 31 l 1
 31 31 l 1
 31 29 l 1
41 25 m 1
 39 25 l 1
 39 27 l 1
 41 27 l 1
 41 25 l 1
41 29 m 1
 39 29 l 1
 39 31 l 1
 41 31 l 1
 41 29 l 1
31 33 m 1
 29 33 l 1
 29 35 l 1
 31 35 l 1
 31 33 l 1
31 37 m 1
 29 37 l 1
 29 39 l 1
 31 39 l 1
 31 37 l 1
36 31 m 1
 34 31 l 1
 34 33 l 1
 36 33 l 1
 36 31 l 1
41 33 m 1
 39 33 l 1
 39 35 l 1
 41 35 l 1
 41 33 l 1
36 35 m 1
 34 35 l 1
 34 37 l 1
 36 37 l 1
 36 35 l 1
44 25 m 1
 42 25 l 1
 42 27 l 1
 43 27 l 1
 43 26 l 1
 44 26 l 1
 44 25 l 1
46 25 m 1
 45 25 l 1
 45 26 l 1
 44 26 l 1
 44 27 l 1
 46 27 l 1
 46 25 l 1
49 25 m 1
 47 25 l 1
 47 27 l 1
 49 27 l 1
 49 25 l 1
55 25 m 1
 53 25 l 1
 53 27 l 1
 55 27 l 1
 55 25 l 1
58 25 m 1
 56 25 l 1
 56 27 l 1
 57 27 l 1
 57 26 l 1
 58 26 l 1
 58 25 l 1
55 29 m 1
 53 29 l 1
 53 31 l 1
 55 31 l 1
 55 29 l 1
43 33 m 1
 42 33 l 1
 42 35 l 1
 44 35 l 1
 44 34 l 1
 43 34 l 1
 43 33 l 1
46 33 m 1
 44 33 l 1
 44 34 l 1
 45 34 l 1
 45 35 l 1
 46 35 l 1
 46 33 l 1
49 33 m 1
 47 33 l 1
 47 35 l 1
 49 35 l 1
 49 33 l 1
49 37 m 1
 47 37 l 1
 47 39 l 1
 49 39 l 1
 49 37 l 1
55 33 m 1
 53 33 l 1
 53 35 l 1
 55 35 l 1
 55 33 l 1
57 33 m 1
 56 33 l 1
 56 35 l 1
 58 35 l 1
 58 34 l 1
 57 34 l 1
 57 33 l 1
60 25 m 1
 59 25 l 1
 59 26 l 1
 58 26 l 1
 58 27 l 1
 60 27 l 1
 60 25 l 1
63 25 m 1
 61 25 l 1
 61 27 l 1
 63 27 l 1
 63 25 l 1
63 29 m 1
 61 29 l 1
 61 31 l 1
 63 31 l 1
 63 29 l 1
60 33 m 1
 58 33 l 1
 58 34 l 1
 59 34 l 1
 59 35 l 1
 60 35 l 1
 60 33 l 1
63 33 m 1
 61 33 l 1
 61 35 l 1
 63 35 l 1
 63 33 l 1
63 37 m 1
 61 37 l 1
 61 39 l 1
 63 39 l 1
 63 37 l 1
12 41 m 1
 10 41 l 1
 10 43 l 1
 11 43 l 1
 11 42 l 1
 12 42 l 1
 12 41 l 1
14 41 m 1
 13 41 l 1
 13 42 l 1
 12 42 l 1
 12 43 l 1
 14 43 l 1
 14 41 l 1
17 41 m 1
 15 41 l 1
 15 43 l 1
 17 43 l 1
 17 41 l 1
23 41 m 1
 21 41 l 1
 21 43 l 1
 23 43 l 1
 23 41 l 1
26 41 m 1
 24 41 l 1
 24 43 l 1
 25 43 l 1
 25 42 l 1
 26 42 l 1
 26 41 l 1
28 41 m 1
 27 41 l 1
 27 42 l 1
 26 42 l 1
 26 43 l 1
 28 43 l 1
 28 41 l 1
31 41 m 1
 29 41 l 1
 29 43 l 1
 31 43 l 1
 31 41 l 1
41 41 m 1
 39 41 l 1
 39 43 l 1
 41 43 l 1
 41 41 l 1
44 41 m 1
 42 41 l 1
 42 43 l 1
 43 43 l 1
 43 42 l 1
 44 42 l 1
 44 41 l 1
46 41 m 1
 45 41 l 1
 45 42 l 1
 44 42 l 1
 44 43 l 1
 46 43 l 1
 46 41 l 1
49 41 m 1
 47 41 l 1
 47 43 l 1
 49 43 l 1
 49 41 l 1
55 41 m 1
 53 41 l 1
 53 43 l 1
 55 43 l 1
 55 41 l 1
58 41 m 1
 56 41 l 1
 56 43 l 1
 57 43 l 1
 57 42 l 1
 58 42 l 1
 58 41 l 1
60 41 m 1
 59 41 l 1
 59 42 l 1
 58 42 l 1
 58 43 l 1
 60 43 l 1
 60 41 l 1
63 41 m 1
 61 41 l 1
 61 43 l 1
 63 43 l 1
 63 41 l 1
EndSplineSet
Ligature2: "'liga' Standard Ligatures in Latin lookup 0-1" five nine zero zero eight
LCarets2: 1 0
EndChar

StartChar: custom_5_9_0_0_9
Encoding: 17965 -1 17720
Width: 70
Flags: H
LayerCount: 2
Fore
SplineSet
9 25 m 1
 7 25 l 1
 7 27 l 1
 9 27 l 1
 9 25 l 1
9 29 m 1
 7 29 l 1
 7 31 l 1
 9 31 l 1
 9 29 l 1
9 33 m 1
 7 33 l 1
 7 35 l 1
 9 35 l 1
 9 33 l 1
9 37 m 1
 7 37 l 1
 7 39 l 1
 9 39 l 1
 9 37 l 1
9 41 m 1
 7 41 l 1
 7 43 l 1
 9 43 l 1
 9 41 l 1
12 25 m 1
 10 25 l 1
 10 27 l 1
 11 27 l 1
 11 26 l 1
 12 26 l 1
 12 25 l 1
14 25 m 1
 13 25 l 1
 13 26 l 1
 12 26 l 1
 12 27 l 1
 14 27 l 1
 14 25 l 1
17 25 m 1
 15 25 l 1
 15 27 l 1
 17 27 l 1
 17 25 l 1
17 29 m 1
 15 29 l 1
 15 31 l 1
 17 31 l 1
 17 29 l 1
23 25 m 1
 21 25 l 1
 21 27 l 1
 23 27 l 1
 23 25 l 1
26 25 m 1
 24 25 l 1
 24 27 l 1
 25 27 l 1
 25 26 l 1
 26 26 l 1
 26 25 l 1
23 29 m 1
 21 29 l 1
 21 31 l 1
 23 31 l 1
 23 29 l 1
17 33 m 1
 15 33 l 1
 15 35 l 1
 17 35 l 1
 17 33 l 1
17 37 m 1
 15 37 l 1
 15 39 l 1
 17 39 l 1
 17 37 l 1
23 33 m 1
 21 33 l 1
 21 35 l 1
 23 35 l 1
 23 33 l 1
23 37 m 1
 21 37 l 1
 21 39 l 1
 23 39 l 1
 23 37 l 1
28 25 m 1
 27 25 l 1
 27 26 l 1
 26 26 l 1
 26 27 l 1
 28 27 l 1
 28 25 l 1
31 25 m 1
 29 25 l 1
 29 27 l 1
 31 27 l 1
 31 25 l 1
31 29 m 1
 29 29 l 1
 29 31 l 1
 31 31 l 1
 31 29 l 1
41 25 m 1
 39 25 l 1
 39 27 l 1
 41 27 l 1
 41 25 l 1
41 29 m 1
 39 29 l 1
 39 31 l 1
 41 31 l 1
 41 29 l 1
31 33 m 1
 29 33 l 1
 29 35 l 1
 31 35 l 1
 31 33 l 1
31 37 m 1
 29 37 l 1
 29 39 l 1
 31 39 l 1
 31 37 l 1
36 31 m 1
 34 31 l 1
 34 33 l 1
 36 33 l 1
 36 31 l 1
41 33 m 1
 39 33 l 1
 39 35 l 1
 41 35 l 1
 41 33 l 1
36 35 m 1
 34 35 l 1
 34 37 l 1
 36 37 l 1
 36 35 l 1
44 25 m 1
 42 25 l 1
 42 27 l 1
 43 27 l 1
 43 26 l 1
 44 26 l 1
 44 25 l 1
46 25 m 1
 45 25 l 1
 45 26 l 1
 44 26 l 1
 44 27 l 1
 46 27 l 1
 46 25 l 1
49 25 m 1
 47 25 l 1
 47 27 l 1
 49 27 l 1
 49 25 l 1
55 25 m 1
 53 25 l 1
 53 27 l 1
 55 27 l 1
 55 25 l 1
58 25 m 1
 56 25 l 1
 56 27 l 1
 57 27 l 1
 57 26 l 1
 58 26 l 1
 58 25 l 1
55 29 m 1
 53 29 l 1
 53 31 l 1
 55 31 l 1
 55 29 l 1
43 33 m 1
 42 33 l 1
 42 35 l 1
 44 35 l 1
 44 34 l 1
 43 34 l 1
 43 33 l 1
46 33 m 1
 44 33 l 1
 44 34 l 1
 45 34 l 1
 45 35 l 1
 46 35 l 1
 46 33 l 1
49 33 m 1
 47 33 l 1
 47 35 l 1
 49 35 l 1
 49 33 l 1
49 37 m 1
 47 37 l 1
 47 39 l 1
 49 39 l 1
 49 37 l 1
55 33 m 1
 53 33 l 1
 53 35 l 1
 55 35 l 1
 55 33 l 1
57 33 m 1
 56 33 l 1
 56 35 l 1
 58 35 l 1
 58 34 l 1
 57 34 l 1
 57 33 l 1
60 25 m 1
 59 25 l 1
 59 26 l 1
 58 26 l 1
 58 27 l 1
 60 27 l 1
 60 25 l 1
63 25 m 1
 61 25 l 1
 61 27 l 1
 63 27 l 1
 63 25 l 1
63 29 m 1
 61 29 l 1
 61 31 l 1
 63 31 l 1
 63 29 l 1
60 33 m 1
 58 33 l 1
 58 34 l 1
 59 34 l 1
 59 35 l 1
 60 35 l 1
 60 33 l 1
63 33 m 1
 61 33 l 1
 61 35 l 1
 63 35 l 1
 63 33 l 1
63 37 m 1
 61 37 l 1
 61 39 l 1
 63 39 l 1
 63 37 l 1
12 41 m 1
 10 41 l 1
 10 43 l 1
 11 43 l 1
 11 42 l 1
 12 42 l 1
 12 41 l 1
14 41 m 1
 13 41 l 1
 13 42 l 1
 12 42 l 1
 12 43 l 1
 14 43 l 1
 14 41 l 1
17 41 m 1
 15 41 l 1
 15 43 l 1
 17 43 l 1
 17 41 l 1
23 41 m 1
 21 41 l 1
 21 43 l 1
 23 43 l 1
 23 41 l 1
26 41 m 1
 24 41 l 1
 24 43 l 1
 25 43 l 1
 25 42 l 1
 26 42 l 1
 26 41 l 1
28 41 m 1
 27 41 l 1
 27 42 l 1
 26 42 l 1
 26 43 l 1
 28 43 l 1
 28 41 l 1
31 41 m 1
 29 41 l 1
 29 43 l 1
 31 43 l 1
 31 41 l 1
41 41 m 1
 39 41 l 1
 39 43 l 1
 41 43 l 1
 41 41 l 1
44 41 m 1
 42 41 l 1
 42 43 l 1
 43 43 l 1
 43 42 l 1
 44 42 l 1
 44 41 l 1
46 41 m 1
 45 41 l 1
 45 42 l 1
 44 42 l 1
 44 43 l 1
 46 43 l 1
 46 41 l 1
49 41 m 1
 47 41 l 1
 47 43 l 1
 49 43 l 1
 49 41 l 1
55 41 m 1
 53 41 l 1
 53 43 l 1
 55 43 l 1
 55 41 l 1
58 41 m 1
 56 41 l 1
 56 43 l 1
 57 43 l 1
 57 42 l 1
 58 42 l 1
 58 41 l 1
60 41 m 1
 59 41 l 1
 59 42 l 1
 58 42 l 1
 58 43 l 1
 60 43 l 1
 60 41 l 1
63 41 m 1
 61 41 l 1
 61 43 l 1
 63 43 l 1
 63 41 l 1
EndSplineSet
Ligature2: "'liga' Standard Ligatures in Latin lookup 0-1" five nine zero zero nine
LCarets2: 1 0
EndChar

StartChar: custom_5_9_0_1_0
Encoding: 17966 -1 17721
Width: 70
Flags: H
LayerCount: 2
Fore
SplineSet
9 25 m 1
 7 25 l 1
 7 27 l 1
 9 27 l 1
 9 25 l 1
9 29 m 1
 7 29 l 1
 7 31 l 1
 9 31 l 1
 9 29 l 1
9 33 m 1
 7 33 l 1
 7 35 l 1
 9 35 l 1
 9 33 l 1
9 37 m 1
 7 37 l 1
 7 39 l 1
 9 39 l 1
 9 37 l 1
9 41 m 1
 7 41 l 1
 7 43 l 1
 9 43 l 1
 9 41 l 1
12 25 m 1
 10 25 l 1
 10 27 l 1
 11 27 l 1
 11 26 l 1
 12 26 l 1
 12 25 l 1
14 25 m 1
 13 25 l 1
 13 26 l 1
 12 26 l 1
 12 27 l 1
 14 27 l 1
 14 25 l 1
17 25 m 1
 15 25 l 1
 15 27 l 1
 17 27 l 1
 17 25 l 1
17 29 m 1
 15 29 l 1
 15 31 l 1
 17 31 l 1
 17 29 l 1
23 25 m 1
 21 25 l 1
 21 27 l 1
 23 27 l 1
 23 25 l 1
26 25 m 1
 24 25 l 1
 24 27 l 1
 25 27 l 1
 25 26 l 1
 26 26 l 1
 26 25 l 1
23 29 m 1
 21 29 l 1
 21 31 l 1
 23 31 l 1
 23 29 l 1
17 33 m 1
 15 33 l 1
 15 35 l 1
 17 35 l 1
 17 33 l 1
17 37 m 1
 15 37 l 1
 15 39 l 1
 17 39 l 1
 17 37 l 1
23 33 m 1
 21 33 l 1
 21 35 l 1
 23 35 l 1
 23 33 l 1
23 37 m 1
 21 37 l 1
 21 39 l 1
 23 39 l 1
 23 37 l 1
28 25 m 1
 27 25 l 1
 27 26 l 1
 26 26 l 1
 26 27 l 1
 28 27 l 1
 28 25 l 1
31 25 m 1
 29 25 l 1
 29 27 l 1
 31 27 l 1
 31 25 l 1
31 29 m 1
 29 29 l 1
 29 31 l 1
 31 31 l 1
 31 29 l 1
41 25 m 1
 39 25 l 1
 39 27 l 1
 41 27 l 1
 41 25 l 1
41 29 m 1
 39 29 l 1
 39 31 l 1
 41 31 l 1
 41 29 l 1
31 33 m 1
 29 33 l 1
 29 35 l 1
 31 35 l 1
 31 33 l 1
31 37 m 1
 29 37 l 1
 29 39 l 1
 31 39 l 1
 31 37 l 1
36 31 m 1
 34 31 l 1
 34 33 l 1
 36 33 l 1
 36 31 l 1
41 33 m 1
 39 33 l 1
 39 35 l 1
 41 35 l 1
 41 33 l 1
36 35 m 1
 34 35 l 1
 34 37 l 1
 36 37 l 1
 36 35 l 1
44 25 m 1
 42 25 l 1
 42 27 l 1
 43 27 l 1
 43 26 l 1
 44 26 l 1
 44 25 l 1
46 25 m 1
 45 25 l 1
 45 26 l 1
 44 26 l 1
 44 27 l 1
 46 27 l 1
 46 25 l 1
49 25 m 1
 47 25 l 1
 47 27 l 1
 49 27 l 1
 49 25 l 1
55 25 m 1
 53 25 l 1
 53 27 l 1
 55 27 l 1
 55 25 l 1
58 25 m 1
 56 25 l 1
 56 27 l 1
 57 27 l 1
 57 26 l 1
 58 26 l 1
 58 25 l 1
55 29 m 1
 53 29 l 1
 53 31 l 1
 55 31 l 1
 55 29 l 1
43 33 m 1
 42 33 l 1
 42 35 l 1
 44 35 l 1
 44 34 l 1
 43 34 l 1
 43 33 l 1
46 33 m 1
 44 33 l 1
 44 34 l 1
 45 34 l 1
 45 35 l 1
 46 35 l 1
 46 33 l 1
49 33 m 1
 47 33 l 1
 47 35 l 1
 49 35 l 1
 49 33 l 1
49 37 m 1
 47 37 l 1
 47 39 l 1
 49 39 l 1
 49 37 l 1
55 33 m 1
 53 33 l 1
 53 35 l 1
 55 35 l 1
 55 33 l 1
57 33 m 1
 56 33 l 1
 56 35 l 1
 58 35 l 1
 58 34 l 1
 57 34 l 1
 57 33 l 1
60 25 m 1
 59 25 l 1
 59 26 l 1
 58 26 l 1
 58 27 l 1
 60 27 l 1
 60 25 l 1
63 25 m 1
 61 25 l 1
 61 27 l 1
 63 27 l 1
 63 25 l 1
63 29 m 1
 61 29 l 1
 61 31 l 1
 63 31 l 1
 63 29 l 1
60 33 m 1
 58 33 l 1
 58 34 l 1
 59 34 l 1
 59 35 l 1
 60 35 l 1
 60 33 l 1
63 33 m 1
 61 33 l 1
 61 35 l 1
 63 35 l 1
 63 33 l 1
63 37 m 1
 61 37 l 1
 61 39 l 1
 63 39 l 1
 63 37 l 1
12 41 m 1
 10 41 l 1
 10 43 l 1
 11 43 l 1
 11 42 l 1
 12 42 l 1
 12 41 l 1
14 41 m 1
 13 41 l 1
 13 42 l 1
 12 42 l 1
 12 43 l 1
 14 43 l 1
 14 41 l 1
17 41 m 1
 15 41 l 1
 15 43 l 1
 17 43 l 1
 17 41 l 1
23 41 m 1
 21 41 l 1
 21 43 l 1
 23 43 l 1
 23 41 l 1
26 41 m 1
 24 41 l 1
 24 43 l 1
 25 43 l 1
 25 42 l 1
 26 42 l 1
 26 41 l 1
28 41 m 1
 27 41 l 1
 27 42 l 1
 26 42 l 1
 26 43 l 1
 28 43 l 1
 28 41 l 1
31 41 m 1
 29 41 l 1
 29 43 l 1
 31 43 l 1
 31 41 l 1
41 41 m 1
 39 41 l 1
 39 43 l 1
 41 43 l 1
 41 41 l 1
44 41 m 1
 42 41 l 1
 42 43 l 1
 43 43 l 1
 43 42 l 1
 44 42 l 1
 44 41 l 1
46 41 m 1
 45 41 l 1
 45 42 l 1
 44 42 l 1
 44 43 l 1
 46 43 l 1
 46 41 l 1
49 41 m 1
 47 41 l 1
 47 43 l 1
 49 43 l 1
 49 41 l 1
55 41 m 1
 53 41 l 1
 53 43 l 1
 55 43 l 1
 55 41 l 1
58 41 m 1
 56 41 l 1
 56 43 l 1
 57 43 l 1
 57 42 l 1
 58 42 l 1
 58 41 l 1
60 41 m 1
 59 41 l 1
 59 42 l 1
 58 42 l 1
 58 43 l 1
 60 43 l 1
 60 41 l 1
63 41 m 1
 61 41 l 1
 61 43 l 1
 63 43 l 1
 63 41 l 1
EndSplineSet
Ligature2: "'liga' Standard Ligatures in Latin lookup 0-1" five nine zero one zero
LCarets2: 1 0
EndChar

StartChar: custom_5_9_0_1_1
Encoding: 17967 -1 17722
Width: 70
Flags: H
LayerCount: 2
Fore
SplineSet
9 25 m 1
 7 25 l 1
 7 27 l 1
 9 27 l 1
 9 25 l 1
9 29 m 1
 7 29 l 1
 7 31 l 1
 9 31 l 1
 9 29 l 1
9 33 m 1
 7 33 l 1
 7 35 l 1
 9 35 l 1
 9 33 l 1
9 37 m 1
 7 37 l 1
 7 39 l 1
 9 39 l 1
 9 37 l 1
9 41 m 1
 7 41 l 1
 7 43 l 1
 9 43 l 1
 9 41 l 1
12 25 m 1
 10 25 l 1
 10 27 l 1
 11 27 l 1
 11 26 l 1
 12 26 l 1
 12 25 l 1
14 25 m 1
 13 25 l 1
 13 26 l 1
 12 26 l 1
 12 27 l 1
 14 27 l 1
 14 25 l 1
17 25 m 1
 15 25 l 1
 15 27 l 1
 17 27 l 1
 17 25 l 1
17 29 m 1
 15 29 l 1
 15 31 l 1
 17 31 l 1
 17 29 l 1
23 25 m 1
 21 25 l 1
 21 27 l 1
 23 27 l 1
 23 25 l 1
26 25 m 1
 24 25 l 1
 24 27 l 1
 25 27 l 1
 25 26 l 1
 26 26 l 1
 26 25 l 1
23 29 m 1
 21 29 l 1
 21 31 l 1
 23 31 l 1
 23 29 l 1
17 33 m 1
 15 33 l 1
 15 35 l 1
 17 35 l 1
 17 33 l 1
17 37 m 1
 15 37 l 1
 15 39 l 1
 17 39 l 1
 17 37 l 1
23 33 m 1
 21 33 l 1
 21 35 l 1
 23 35 l 1
 23 33 l 1
23 37 m 1
 21 37 l 1
 21 39 l 1
 23 39 l 1
 23 37 l 1
28 25 m 1
 27 25 l 1
 27 26 l 1
 26 26 l 1
 26 27 l 1
 28 27 l 1
 28 25 l 1
31 25 m 1
 29 25 l 1
 29 27 l 1
 31 27 l 1
 31 25 l 1
31 29 m 1
 29 29 l 1
 29 31 l 1
 31 31 l 1
 31 29 l 1
41 25 m 1
 39 25 l 1
 39 27 l 1
 41 27 l 1
 41 25 l 1
41 29 m 1
 39 29 l 1
 39 31 l 1
 41 31 l 1
 41 29 l 1
31 33 m 1
 29 33 l 1
 29 35 l 1
 31 35 l 1
 31 33 l 1
31 37 m 1
 29 37 l 1
 29 39 l 1
 31 39 l 1
 31 37 l 1
36 31 m 1
 34 31 l 1
 34 33 l 1
 36 33 l 1
 36 31 l 1
41 33 m 1
 39 33 l 1
 39 35 l 1
 41 35 l 1
 41 33 l 1
36 35 m 1
 34 35 l 1
 34 37 l 1
 36 37 l 1
 36 35 l 1
44 25 m 1
 42 25 l 1
 42 27 l 1
 43 27 l 1
 43 26 l 1
 44 26 l 1
 44 25 l 1
46 25 m 1
 45 25 l 1
 45 26 l 1
 44 26 l 1
 44 27 l 1
 46 27 l 1
 46 25 l 1
49 25 m 1
 47 25 l 1
 47 27 l 1
 49 27 l 1
 49 25 l 1
55 25 m 1
 53 25 l 1
 53 27 l 1
 55 27 l 1
 55 25 l 1
58 25 m 1
 56 25 l 1
 56 27 l 1
 57 27 l 1
 57 26 l 1
 58 26 l 1
 58 25 l 1
55 29 m 1
 53 29 l 1
 53 31 l 1
 55 31 l 1
 55 29 l 1
43 33 m 1
 42 33 l 1
 42 35 l 1
 44 35 l 1
 44 34 l 1
 43 34 l 1
 43 33 l 1
46 33 m 1
 44 33 l 1
 44 34 l 1
 45 34 l 1
 45 35 l 1
 46 35 l 1
 46 33 l 1
49 33 m 1
 47 33 l 1
 47 35 l 1
 49 35 l 1
 49 33 l 1
49 37 m 1
 47 37 l 1
 47 39 l 1
 49 39 l 1
 49 37 l 1
55 33 m 1
 53 33 l 1
 53 35 l 1
 55 35 l 1
 55 33 l 1
57 33 m 1
 56 33 l 1
 56 35 l 1
 58 35 l 1
 58 34 l 1
 57 34 l 1
 57 33 l 1
60 25 m 1
 59 25 l 1
 59 26 l 1
 58 26 l 1
 58 27 l 1
 60 27 l 1
 60 25 l 1
63 25 m 1
 61 25 l 1
 61 27 l 1
 63 27 l 1
 63 25 l 1
63 29 m 1
 61 29 l 1
 61 31 l 1
 63 31 l 1
 63 29 l 1
60 33 m 1
 58 33 l 1
 58 34 l 1
 59 34 l 1
 59 35 l 1
 60 35 l 1
 60 33 l 1
63 33 m 1
 61 33 l 1
 61 35 l 1
 63 35 l 1
 63 33 l 1
63 37 m 1
 61 37 l 1
 61 39 l 1
 63 39 l 1
 63 37 l 1
12 41 m 1
 10 41 l 1
 10 43 l 1
 11 43 l 1
 11 42 l 1
 12 42 l 1
 12 41 l 1
14 41 m 1
 13 41 l 1
 13 42 l 1
 12 42 l 1
 12 43 l 1
 14 43 l 1
 14 41 l 1
17 41 m 1
 15 41 l 1
 15 43 l 1
 17 43 l 1
 17 41 l 1
23 41 m 1
 21 41 l 1
 21 43 l 1
 23 43 l 1
 23 41 l 1
26 41 m 1
 24 41 l 1
 24 43 l 1
 25 43 l 1
 25 42 l 1
 26 42 l 1
 26 41 l 1
28 41 m 1
 27 41 l 1
 27 42 l 1
 26 42 l 1
 26 43 l 1
 28 43 l 1
 28 41 l 1
31 41 m 1
 29 41 l 1
 29 43 l 1
 31 43 l 1
 31 41 l 1
41 41 m 1
 39 41 l 1
 39 43 l 1
 41 43 l 1
 41 41 l 1
44 41 m 1
 42 41 l 1
 42 43 l 1
 43 43 l 1
 43 42 l 1
 44 42 l 1
 44 41 l 1
46 41 m 1
 45 41 l 1
 45 42 l 1
 44 42 l 1
 44 43 l 1
 46 43 l 1
 46 41 l 1
49 41 m 1
 47 41 l 1
 47 43 l 1
 49 43 l 1
 49 41 l 1
55 41 m 1
 53 41 l 1
 53 43 l 1
 55 43 l 1
 55 41 l 1
58 41 m 1
 56 41 l 1
 56 43 l 1
 57 43 l 1
 57 42 l 1
 58 42 l 1
 58 41 l 1
60 41 m 1
 59 41 l 1
 59 42 l 1
 58 42 l 1
 58 43 l 1
 60 43 l 1
 60 41 l 1
63 41 m 1
 61 41 l 1
 61 43 l 1
 63 43 l 1
 63 41 l 1
EndSplineSet
Ligature2: "'liga' Standard Ligatures in Latin lookup 0-1" five nine zero one one
LCarets2: 1 0
EndChar

StartChar: custom_5_9_0_1_2
Encoding: 17968 -1 17723
Width: 70
Flags: H
LayerCount: 2
Fore
SplineSet
9 25 m 1
 7 25 l 1
 7 27 l 1
 9 27 l 1
 9 25 l 1
9 29 m 1
 7 29 l 1
 7 31 l 1
 9 31 l 1
 9 29 l 1
9 33 m 1
 7 33 l 1
 7 35 l 1
 9 35 l 1
 9 33 l 1
9 37 m 1
 7 37 l 1
 7 39 l 1
 9 39 l 1
 9 37 l 1
9 41 m 1
 7 41 l 1
 7 43 l 1
 9 43 l 1
 9 41 l 1
12 25 m 1
 10 25 l 1
 10 27 l 1
 11 27 l 1
 11 26 l 1
 12 26 l 1
 12 25 l 1
14 25 m 1
 13 25 l 1
 13 26 l 1
 12 26 l 1
 12 27 l 1
 14 27 l 1
 14 25 l 1
17 25 m 1
 15 25 l 1
 15 27 l 1
 17 27 l 1
 17 25 l 1
17 29 m 1
 15 29 l 1
 15 31 l 1
 17 31 l 1
 17 29 l 1
23 25 m 1
 21 25 l 1
 21 27 l 1
 23 27 l 1
 23 25 l 1
26 25 m 1
 24 25 l 1
 24 27 l 1
 25 27 l 1
 25 26 l 1
 26 26 l 1
 26 25 l 1
23 29 m 1
 21 29 l 1
 21 31 l 1
 23 31 l 1
 23 29 l 1
17 33 m 1
 15 33 l 1
 15 35 l 1
 17 35 l 1
 17 33 l 1
17 37 m 1
 15 37 l 1
 15 39 l 1
 17 39 l 1
 17 37 l 1
23 33 m 1
 21 33 l 1
 21 35 l 1
 23 35 l 1
 23 33 l 1
23 37 m 1
 21 37 l 1
 21 39 l 1
 23 39 l 1
 23 37 l 1
28 25 m 1
 27 25 l 1
 27 26 l 1
 26 26 l 1
 26 27 l 1
 28 27 l 1
 28 25 l 1
31 25 m 1
 29 25 l 1
 29 27 l 1
 31 27 l 1
 31 25 l 1
31 29 m 1
 29 29 l 1
 29 31 l 1
 31 31 l 1
 31 29 l 1
41 25 m 1
 39 25 l 1
 39 27 l 1
 41 27 l 1
 41 25 l 1
41 29 m 1
 39 29 l 1
 39 31 l 1
 41 31 l 1
 41 29 l 1
31 33 m 1
 29 33 l 1
 29 35 l 1
 31 35 l 1
 31 33 l 1
31 37 m 1
 29 37 l 1
 29 39 l 1
 31 39 l 1
 31 37 l 1
36 31 m 1
 34 31 l 1
 34 33 l 1
 36 33 l 1
 36 31 l 1
41 33 m 1
 39 33 l 1
 39 35 l 1
 41 35 l 1
 41 33 l 1
36 35 m 1
 34 35 l 1
 34 37 l 1
 36 37 l 1
 36 35 l 1
44 25 m 1
 42 25 l 1
 42 27 l 1
 43 27 l 1
 43 26 l 1
 44 26 l 1
 44 25 l 1
46 25 m 1
 45 25 l 1
 45 26 l 1
 44 26 l 1
 44 27 l 1
 46 27 l 1
 46 25 l 1
49 25 m 1
 47 25 l 1
 47 27 l 1
 49 27 l 1
 49 25 l 1
55 25 m 1
 53 25 l 1
 53 27 l 1
 55 27 l 1
 55 25 l 1
58 25 m 1
 56 25 l 1
 56 27 l 1
 57 27 l 1
 57 26 l 1
 58 26 l 1
 58 25 l 1
55 29 m 1
 53 29 l 1
 53 31 l 1
 55 31 l 1
 55 29 l 1
43 33 m 1
 42 33 l 1
 42 35 l 1
 44 35 l 1
 44 34 l 1
 43 34 l 1
 43 33 l 1
46 33 m 1
 44 33 l 1
 44 34 l 1
 45 34 l 1
 45 35 l 1
 46 35 l 1
 46 33 l 1
49 33 m 1
 47 33 l 1
 47 35 l 1
 49 35 l 1
 49 33 l 1
49 37 m 1
 47 37 l 1
 47 39 l 1
 49 39 l 1
 49 37 l 1
55 33 m 1
 53 33 l 1
 53 35 l 1
 55 35 l 1
 55 33 l 1
57 33 m 1
 56 33 l 1
 56 35 l 1
 58 35 l 1
 58 34 l 1
 57 34 l 1
 57 33 l 1
60 25 m 1
 59 25 l 1
 59 26 l 1
 58 26 l 1
 58 27 l 1
 60 27 l 1
 60 25 l 1
63 25 m 1
 61 25 l 1
 61 27 l 1
 63 27 l 1
 63 25 l 1
63 29 m 1
 61 29 l 1
 61 31 l 1
 63 31 l 1
 63 29 l 1
60 33 m 1
 58 33 l 1
 58 34 l 1
 59 34 l 1
 59 35 l 1
 60 35 l 1
 60 33 l 1
63 33 m 1
 61 33 l 1
 61 35 l 1
 63 35 l 1
 63 33 l 1
63 37 m 1
 61 37 l 1
 61 39 l 1
 63 39 l 1
 63 37 l 1
12 41 m 1
 10 41 l 1
 10 43 l 1
 11 43 l 1
 11 42 l 1
 12 42 l 1
 12 41 l 1
14 41 m 1
 13 41 l 1
 13 42 l 1
 12 42 l 1
 12 43 l 1
 14 43 l 1
 14 41 l 1
17 41 m 1
 15 41 l 1
 15 43 l 1
 17 43 l 1
 17 41 l 1
23 41 m 1
 21 41 l 1
 21 43 l 1
 23 43 l 1
 23 41 l 1
26 41 m 1
 24 41 l 1
 24 43 l 1
 25 43 l 1
 25 42 l 1
 26 42 l 1
 26 41 l 1
28 41 m 1
 27 41 l 1
 27 42 l 1
 26 42 l 1
 26 43 l 1
 28 43 l 1
 28 41 l 1
31 41 m 1
 29 41 l 1
 29 43 l 1
 31 43 l 1
 31 41 l 1
41 41 m 1
 39 41 l 1
 39 43 l 1
 41 43 l 1
 41 41 l 1
44 41 m 1
 42 41 l 1
 42 43 l 1
 43 43 l 1
 43 42 l 1
 44 42 l 1
 44 41 l 1
46 41 m 1
 45 41 l 1
 45 42 l 1
 44 42 l 1
 44 43 l 1
 46 43 l 1
 46 41 l 1
49 41 m 1
 47 41 l 1
 47 43 l 1
 49 43 l 1
 49 41 l 1
55 41 m 1
 53 41 l 1
 53 43 l 1
 55 43 l 1
 55 41 l 1
58 41 m 1
 56 41 l 1
 56 43 l 1
 57 43 l 1
 57 42 l 1
 58 42 l 1
 58 41 l 1
60 41 m 1
 59 41 l 1
 59 42 l 1
 58 42 l 1
 58 43 l 1
 60 43 l 1
 60 41 l 1
63 41 m 1
 61 41 l 1
 61 43 l 1
 63 43 l 1
 63 41 l 1
EndSplineSet
Ligature2: "'liga' Standard Ligatures in Latin lookup 0-1" five nine zero one two
LCarets2: 1 0
EndChar

StartChar: custom_5_9_0_1_3
Encoding: 17969 -1 17724
Width: 70
Flags: H
LayerCount: 2
Fore
SplineSet
9 25 m 1
 7 25 l 1
 7 27 l 1
 9 27 l 1
 9 25 l 1
9 29 m 1
 7 29 l 1
 7 31 l 1
 9 31 l 1
 9 29 l 1
9 33 m 1
 7 33 l 1
 7 35 l 1
 9 35 l 1
 9 33 l 1
9 37 m 1
 7 37 l 1
 7 39 l 1
 9 39 l 1
 9 37 l 1
9 41 m 1
 7 41 l 1
 7 43 l 1
 9 43 l 1
 9 41 l 1
12 25 m 1
 10 25 l 1
 10 27 l 1
 11 27 l 1
 11 26 l 1
 12 26 l 1
 12 25 l 1
14 25 m 1
 13 25 l 1
 13 26 l 1
 12 26 l 1
 12 27 l 1
 14 27 l 1
 14 25 l 1
17 25 m 1
 15 25 l 1
 15 27 l 1
 17 27 l 1
 17 25 l 1
17 29 m 1
 15 29 l 1
 15 31 l 1
 17 31 l 1
 17 29 l 1
23 25 m 1
 21 25 l 1
 21 27 l 1
 23 27 l 1
 23 25 l 1
26 25 m 1
 24 25 l 1
 24 27 l 1
 25 27 l 1
 25 26 l 1
 26 26 l 1
 26 25 l 1
23 29 m 1
 21 29 l 1
 21 31 l 1
 23 31 l 1
 23 29 l 1
17 33 m 1
 15 33 l 1
 15 35 l 1
 17 35 l 1
 17 33 l 1
17 37 m 1
 15 37 l 1
 15 39 l 1
 17 39 l 1
 17 37 l 1
23 33 m 1
 21 33 l 1
 21 35 l 1
 23 35 l 1
 23 33 l 1
23 37 m 1
 21 37 l 1
 21 39 l 1
 23 39 l 1
 23 37 l 1
28 25 m 1
 27 25 l 1
 27 26 l 1
 26 26 l 1
 26 27 l 1
 28 27 l 1
 28 25 l 1
31 25 m 1
 29 25 l 1
 29 27 l 1
 31 27 l 1
 31 25 l 1
31 29 m 1
 29 29 l 1
 29 31 l 1
 31 31 l 1
 31 29 l 1
41 25 m 1
 39 25 l 1
 39 27 l 1
 41 27 l 1
 41 25 l 1
41 29 m 1
 39 29 l 1
 39 31 l 1
 41 31 l 1
 41 29 l 1
31 33 m 1
 29 33 l 1
 29 35 l 1
 31 35 l 1
 31 33 l 1
31 37 m 1
 29 37 l 1
 29 39 l 1
 31 39 l 1
 31 37 l 1
36 31 m 1
 34 31 l 1
 34 33 l 1
 36 33 l 1
 36 31 l 1
41 33 m 1
 39 33 l 1
 39 35 l 1
 41 35 l 1
 41 33 l 1
36 35 m 1
 34 35 l 1
 34 37 l 1
 36 37 l 1
 36 35 l 1
44 25 m 1
 42 25 l 1
 42 27 l 1
 43 27 l 1
 43 26 l 1
 44 26 l 1
 44 25 l 1
46 25 m 1
 45 25 l 1
 45 26 l 1
 44 26 l 1
 44 27 l 1
 46 27 l 1
 46 25 l 1
49 25 m 1
 47 25 l 1
 47 27 l 1
 49 27 l 1
 49 25 l 1
55 25 m 1
 53 25 l 1
 53 27 l 1
 55 27 l 1
 55 25 l 1
58 25 m 1
 56 25 l 1
 56 27 l 1
 57 27 l 1
 57 26 l 1
 58 26 l 1
 58 25 l 1
55 29 m 1
 53 29 l 1
 53 31 l 1
 55 31 l 1
 55 29 l 1
43 33 m 1
 42 33 l 1
 42 35 l 1
 44 35 l 1
 44 34 l 1
 43 34 l 1
 43 33 l 1
46 33 m 1
 44 33 l 1
 44 34 l 1
 45 34 l 1
 45 35 l 1
 46 35 l 1
 46 33 l 1
49 33 m 1
 47 33 l 1
 47 35 l 1
 49 35 l 1
 49 33 l 1
49 37 m 1
 47 37 l 1
 47 39 l 1
 49 39 l 1
 49 37 l 1
55 33 m 1
 53 33 l 1
 53 35 l 1
 55 35 l 1
 55 33 l 1
57 33 m 1
 56 33 l 1
 56 35 l 1
 58 35 l 1
 58 34 l 1
 57 34 l 1
 57 33 l 1
60 25 m 1
 59 25 l 1
 59 26 l 1
 58 26 l 1
 58 27 l 1
 60 27 l 1
 60 25 l 1
63 25 m 1
 61 25 l 1
 61 27 l 1
 63 27 l 1
 63 25 l 1
63 29 m 1
 61 29 l 1
 61 31 l 1
 63 31 l 1
 63 29 l 1
60 33 m 1
 58 33 l 1
 58 34 l 1
 59 34 l 1
 59 35 l 1
 60 35 l 1
 60 33 l 1
63 33 m 1
 61 33 l 1
 61 35 l 1
 63 35 l 1
 63 33 l 1
63 37 m 1
 61 37 l 1
 61 39 l 1
 63 39 l 1
 63 37 l 1
12 41 m 1
 10 41 l 1
 10 43 l 1
 11 43 l 1
 11 42 l 1
 12 42 l 1
 12 41 l 1
14 41 m 1
 13 41 l 1
 13 42 l 1
 12 42 l 1
 12 43 l 1
 14 43 l 1
 14 41 l 1
17 41 m 1
 15 41 l 1
 15 43 l 1
 17 43 l 1
 17 41 l 1
23 41 m 1
 21 41 l 1
 21 43 l 1
 23 43 l 1
 23 41 l 1
26 41 m 1
 24 41 l 1
 24 43 l 1
 25 43 l 1
 25 42 l 1
 26 42 l 1
 26 41 l 1
28 41 m 1
 27 41 l 1
 27 42 l 1
 26 42 l 1
 26 43 l 1
 28 43 l 1
 28 41 l 1
31 41 m 1
 29 41 l 1
 29 43 l 1
 31 43 l 1
 31 41 l 1
41 41 m 1
 39 41 l 1
 39 43 l 1
 41 43 l 1
 41 41 l 1
44 41 m 1
 42 41 l 1
 42 43 l 1
 43 43 l 1
 43 42 l 1
 44 42 l 1
 44 41 l 1
46 41 m 1
 45 41 l 1
 45 42 l 1
 44 42 l 1
 44 43 l 1
 46 43 l 1
 46 41 l 1
49 41 m 1
 47 41 l 1
 47 43 l 1
 49 43 l 1
 49 41 l 1
55 41 m 1
 53 41 l 1
 53 43 l 1
 55 43 l 1
 55 41 l 1
58 41 m 1
 56 41 l 1
 56 43 l 1
 57 43 l 1
 57 42 l 1
 58 42 l 1
 58 41 l 1
60 41 m 1
 59 41 l 1
 59 42 l 1
 58 42 l 1
 58 43 l 1
 60 43 l 1
 60 41 l 1
63 41 m 1
 61 41 l 1
 61 43 l 1
 63 43 l 1
 63 41 l 1
EndSplineSet
Ligature2: "'liga' Standard Ligatures in Latin lookup 0-1" five nine zero one three
LCarets2: 1 0
EndChar

StartChar: custom_5_9_0_1_4
Encoding: 17970 -1 17725
Width: 70
Flags: H
LayerCount: 2
Fore
SplineSet
9 25 m 1
 7 25 l 1
 7 27 l 1
 9 27 l 1
 9 25 l 1
9 29 m 1
 7 29 l 1
 7 31 l 1
 9 31 l 1
 9 29 l 1
9 33 m 1
 7 33 l 1
 7 35 l 1
 9 35 l 1
 9 33 l 1
9 37 m 1
 7 37 l 1
 7 39 l 1
 9 39 l 1
 9 37 l 1
9 41 m 1
 7 41 l 1
 7 43 l 1
 9 43 l 1
 9 41 l 1
12 25 m 1
 10 25 l 1
 10 27 l 1
 11 27 l 1
 11 26 l 1
 12 26 l 1
 12 25 l 1
14 25 m 1
 13 25 l 1
 13 26 l 1
 12 26 l 1
 12 27 l 1
 14 27 l 1
 14 25 l 1
17 25 m 1
 15 25 l 1
 15 27 l 1
 17 27 l 1
 17 25 l 1
17 29 m 1
 15 29 l 1
 15 31 l 1
 17 31 l 1
 17 29 l 1
23 25 m 1
 21 25 l 1
 21 27 l 1
 23 27 l 1
 23 25 l 1
26 25 m 1
 24 25 l 1
 24 27 l 1
 25 27 l 1
 25 26 l 1
 26 26 l 1
 26 25 l 1
23 29 m 1
 21 29 l 1
 21 31 l 1
 23 31 l 1
 23 29 l 1
17 33 m 1
 15 33 l 1
 15 35 l 1
 17 35 l 1
 17 33 l 1
17 37 m 1
 15 37 l 1
 15 39 l 1
 17 39 l 1
 17 37 l 1
23 33 m 1
 21 33 l 1
 21 35 l 1
 23 35 l 1
 23 33 l 1
23 37 m 1
 21 37 l 1
 21 39 l 1
 23 39 l 1
 23 37 l 1
28 25 m 1
 27 25 l 1
 27 26 l 1
 26 26 l 1
 26 27 l 1
 28 27 l 1
 28 25 l 1
31 25 m 1
 29 25 l 1
 29 27 l 1
 31 27 l 1
 31 25 l 1
31 29 m 1
 29 29 l 1
 29 31 l 1
 31 31 l 1
 31 29 l 1
41 25 m 1
 39 25 l 1
 39 27 l 1
 41 27 l 1
 41 25 l 1
41 29 m 1
 39 29 l 1
 39 31 l 1
 41 31 l 1
 41 29 l 1
31 33 m 1
 29 33 l 1
 29 35 l 1
 31 35 l 1
 31 33 l 1
31 37 m 1
 29 37 l 1
 29 39 l 1
 31 39 l 1
 31 37 l 1
36 31 m 1
 34 31 l 1
 34 33 l 1
 36 33 l 1
 36 31 l 1
41 33 m 1
 39 33 l 1
 39 35 l 1
 41 35 l 1
 41 33 l 1
36 35 m 1
 34 35 l 1
 34 37 l 1
 36 37 l 1
 36 35 l 1
44 25 m 1
 42 25 l 1
 42 27 l 1
 43 27 l 1
 43 26 l 1
 44 26 l 1
 44 25 l 1
46 25 m 1
 45 25 l 1
 45 26 l 1
 44 26 l 1
 44 27 l 1
 46 27 l 1
 46 25 l 1
49 25 m 1
 47 25 l 1
 47 27 l 1
 49 27 l 1
 49 25 l 1
55 25 m 1
 53 25 l 1
 53 27 l 1
 55 27 l 1
 55 25 l 1
58 25 m 1
 56 25 l 1
 56 27 l 1
 57 27 l 1
 57 26 l 1
 58 26 l 1
 58 25 l 1
55 29 m 1
 53 29 l 1
 53 31 l 1
 55 31 l 1
 55 29 l 1
43 33 m 1
 42 33 l 1
 42 35 l 1
 44 35 l 1
 44 34 l 1
 43 34 l 1
 43 33 l 1
46 33 m 1
 44 33 l 1
 44 34 l 1
 45 34 l 1
 45 35 l 1
 46 35 l 1
 46 33 l 1
49 33 m 1
 47 33 l 1
 47 35 l 1
 49 35 l 1
 49 33 l 1
49 37 m 1
 47 37 l 1
 47 39 l 1
 49 39 l 1
 49 37 l 1
55 33 m 1
 53 33 l 1
 53 35 l 1
 55 35 l 1
 55 33 l 1
57 33 m 1
 56 33 l 1
 56 35 l 1
 58 35 l 1
 58 34 l 1
 57 34 l 1
 57 33 l 1
60 25 m 1
 59 25 l 1
 59 26 l 1
 58 26 l 1
 58 27 l 1
 60 27 l 1
 60 25 l 1
63 25 m 1
 61 25 l 1
 61 27 l 1
 63 27 l 1
 63 25 l 1
63 29 m 1
 61 29 l 1
 61 31 l 1
 63 31 l 1
 63 29 l 1
60 33 m 1
 58 33 l 1
 58 34 l 1
 59 34 l 1
 59 35 l 1
 60 35 l 1
 60 33 l 1
63 33 m 1
 61 33 l 1
 61 35 l 1
 63 35 l 1
 63 33 l 1
63 37 m 1
 61 37 l 1
 61 39 l 1
 63 39 l 1
 63 37 l 1
12 41 m 1
 10 41 l 1
 10 43 l 1
 11 43 l 1
 11 42 l 1
 12 42 l 1
 12 41 l 1
14 41 m 1
 13 41 l 1
 13 42 l 1
 12 42 l 1
 12 43 l 1
 14 43 l 1
 14 41 l 1
17 41 m 1
 15 41 l 1
 15 43 l 1
 17 43 l 1
 17 41 l 1
23 41 m 1
 21 41 l 1
 21 43 l 1
 23 43 l 1
 23 41 l 1
26 41 m 1
 24 41 l 1
 24 43 l 1
 25 43 l 1
 25 42 l 1
 26 42 l 1
 26 41 l 1
28 41 m 1
 27 41 l 1
 27 42 l 1
 26 42 l 1
 26 43 l 1
 28 43 l 1
 28 41 l 1
31 41 m 1
 29 41 l 1
 29 43 l 1
 31 43 l 1
 31 41 l 1
41 41 m 1
 39 41 l 1
 39 43 l 1
 41 43 l 1
 41 41 l 1
44 41 m 1
 42 41 l 1
 42 43 l 1
 43 43 l 1
 43 42 l 1
 44 42 l 1
 44 41 l 1
46 41 m 1
 45 41 l 1
 45 42 l 1
 44 42 l 1
 44 43 l 1
 46 43 l 1
 46 41 l 1
49 41 m 1
 47 41 l 1
 47 43 l 1
 49 43 l 1
 49 41 l 1
55 41 m 1
 53 41 l 1
 53 43 l 1
 55 43 l 1
 55 41 l 1
58 41 m 1
 56 41 l 1
 56 43 l 1
 57 43 l 1
 57 42 l 1
 58 42 l 1
 58 41 l 1
60 41 m 1
 59 41 l 1
 59 42 l 1
 58 42 l 1
 58 43 l 1
 60 43 l 1
 60 41 l 1
63 41 m 1
 61 41 l 1
 61 43 l 1
 63 43 l 1
 63 41 l 1
EndSplineSet
Ligature2: "'liga' Standard Ligatures in Latin lookup 0-1" five nine zero one four
LCarets2: 1 0
EndChar

StartChar: custom_5_9_0_1_5
Encoding: 17971 -1 17726
Width: 70
Flags: H
LayerCount: 2
Fore
SplineSet
9 25 m 1
 7 25 l 1
 7 27 l 1
 9 27 l 1
 9 25 l 1
9 29 m 1
 7 29 l 1
 7 31 l 1
 9 31 l 1
 9 29 l 1
9 33 m 1
 7 33 l 1
 7 35 l 1
 9 35 l 1
 9 33 l 1
9 37 m 1
 7 37 l 1
 7 39 l 1
 9 39 l 1
 9 37 l 1
9 41 m 1
 7 41 l 1
 7 43 l 1
 9 43 l 1
 9 41 l 1
12 25 m 1
 10 25 l 1
 10 27 l 1
 11 27 l 1
 11 26 l 1
 12 26 l 1
 12 25 l 1
14 25 m 1
 13 25 l 1
 13 26 l 1
 12 26 l 1
 12 27 l 1
 14 27 l 1
 14 25 l 1
17 25 m 1
 15 25 l 1
 15 27 l 1
 17 27 l 1
 17 25 l 1
17 29 m 1
 15 29 l 1
 15 31 l 1
 17 31 l 1
 17 29 l 1
23 25 m 1
 21 25 l 1
 21 27 l 1
 23 27 l 1
 23 25 l 1
26 25 m 1
 24 25 l 1
 24 27 l 1
 25 27 l 1
 25 26 l 1
 26 26 l 1
 26 25 l 1
23 29 m 1
 21 29 l 1
 21 31 l 1
 23 31 l 1
 23 29 l 1
17 33 m 1
 15 33 l 1
 15 35 l 1
 17 35 l 1
 17 33 l 1
17 37 m 1
 15 37 l 1
 15 39 l 1
 17 39 l 1
 17 37 l 1
23 33 m 1
 21 33 l 1
 21 35 l 1
 23 35 l 1
 23 33 l 1
23 37 m 1
 21 37 l 1
 21 39 l 1
 23 39 l 1
 23 37 l 1
28 25 m 1
 27 25 l 1
 27 26 l 1
 26 26 l 1
 26 27 l 1
 28 27 l 1
 28 25 l 1
31 25 m 1
 29 25 l 1
 29 27 l 1
 31 27 l 1
 31 25 l 1
31 29 m 1
 29 29 l 1
 29 31 l 1
 31 31 l 1
 31 29 l 1
41 25 m 1
 39 25 l 1
 39 27 l 1
 41 27 l 1
 41 25 l 1
41 29 m 1
 39 29 l 1
 39 31 l 1
 41 31 l 1
 41 29 l 1
31 33 m 1
 29 33 l 1
 29 35 l 1
 31 35 l 1
 31 33 l 1
31 37 m 1
 29 37 l 1
 29 39 l 1
 31 39 l 1
 31 37 l 1
36 31 m 1
 34 31 l 1
 34 33 l 1
 36 33 l 1
 36 31 l 1
41 33 m 1
 39 33 l 1
 39 35 l 1
 41 35 l 1
 41 33 l 1
36 35 m 1
 34 35 l 1
 34 37 l 1
 36 37 l 1
 36 35 l 1
44 25 m 1
 42 25 l 1
 42 27 l 1
 43 27 l 1
 43 26 l 1
 44 26 l 1
 44 25 l 1
46 25 m 1
 45 25 l 1
 45 26 l 1
 44 26 l 1
 44 27 l 1
 46 27 l 1
 46 25 l 1
49 25 m 1
 47 25 l 1
 47 27 l 1
 49 27 l 1
 49 25 l 1
55 25 m 1
 53 25 l 1
 53 27 l 1
 55 27 l 1
 55 25 l 1
58 25 m 1
 56 25 l 1
 56 27 l 1
 57 27 l 1
 57 26 l 1
 58 26 l 1
 58 25 l 1
55 29 m 1
 53 29 l 1
 53 31 l 1
 55 31 l 1
 55 29 l 1
43 33 m 1
 42 33 l 1
 42 35 l 1
 44 35 l 1
 44 34 l 1
 43 34 l 1
 43 33 l 1
46 33 m 1
 44 33 l 1
 44 34 l 1
 45 34 l 1
 45 35 l 1
 46 35 l 1
 46 33 l 1
49 33 m 1
 47 33 l 1
 47 35 l 1
 49 35 l 1
 49 33 l 1
49 37 m 1
 47 37 l 1
 47 39 l 1
 49 39 l 1
 49 37 l 1
55 33 m 1
 53 33 l 1
 53 35 l 1
 55 35 l 1
 55 33 l 1
57 33 m 1
 56 33 l 1
 56 35 l 1
 58 35 l 1
 58 34 l 1
 57 34 l 1
 57 33 l 1
60 25 m 1
 59 25 l 1
 59 26 l 1
 58 26 l 1
 58 27 l 1
 60 27 l 1
 60 25 l 1
63 25 m 1
 61 25 l 1
 61 27 l 1
 63 27 l 1
 63 25 l 1
63 29 m 1
 61 29 l 1
 61 31 l 1
 63 31 l 1
 63 29 l 1
60 33 m 1
 58 33 l 1
 58 34 l 1
 59 34 l 1
 59 35 l 1
 60 35 l 1
 60 33 l 1
63 33 m 1
 61 33 l 1
 61 35 l 1
 63 35 l 1
 63 33 l 1
63 37 m 1
 61 37 l 1
 61 39 l 1
 63 39 l 1
 63 37 l 1
12 41 m 1
 10 41 l 1
 10 43 l 1
 11 43 l 1
 11 42 l 1
 12 42 l 1
 12 41 l 1
14 41 m 1
 13 41 l 1
 13 42 l 1
 12 42 l 1
 12 43 l 1
 14 43 l 1
 14 41 l 1
17 41 m 1
 15 41 l 1
 15 43 l 1
 17 43 l 1
 17 41 l 1
23 41 m 1
 21 41 l 1
 21 43 l 1
 23 43 l 1
 23 41 l 1
26 41 m 1
 24 41 l 1
 24 43 l 1
 25 43 l 1
 25 42 l 1
 26 42 l 1
 26 41 l 1
28 41 m 1
 27 41 l 1
 27 42 l 1
 26 42 l 1
 26 43 l 1
 28 43 l 1
 28 41 l 1
31 41 m 1
 29 41 l 1
 29 43 l 1
 31 43 l 1
 31 41 l 1
41 41 m 1
 39 41 l 1
 39 43 l 1
 41 43 l 1
 41 41 l 1
44 41 m 1
 42 41 l 1
 42 43 l 1
 43 43 l 1
 43 42 l 1
 44 42 l 1
 44 41 l 1
46 41 m 1
 45 41 l 1
 45 42 l 1
 44 42 l 1
 44 43 l 1
 46 43 l 1
 46 41 l 1
49 41 m 1
 47 41 l 1
 47 43 l 1
 49 43 l 1
 49 41 l 1
55 41 m 1
 53 41 l 1
 53 43 l 1
 55 43 l 1
 55 41 l 1
58 41 m 1
 56 41 l 1
 56 43 l 1
 57 43 l 1
 57 42 l 1
 58 42 l 1
 58 41 l 1
60 41 m 1
 59 41 l 1
 59 42 l 1
 58 42 l 1
 58 43 l 1
 60 43 l 1
 60 41 l 1
63 41 m 1
 61 41 l 1
 61 43 l 1
 63 43 l 1
 63 41 l 1
EndSplineSet
Ligature2: "'liga' Standard Ligatures in Latin lookup 0-1" five nine zero one five
LCarets2: 1 0
EndChar

StartChar: custom_5_9_0_1_6
Encoding: 17972 -1 17727
Width: 70
Flags: H
LayerCount: 2
Fore
SplineSet
9 25 m 1
 7 25 l 1
 7 27 l 1
 9 27 l 1
 9 25 l 1
9 29 m 1
 7 29 l 1
 7 31 l 1
 9 31 l 1
 9 29 l 1
9 33 m 1
 7 33 l 1
 7 35 l 1
 9 35 l 1
 9 33 l 1
9 37 m 1
 7 37 l 1
 7 39 l 1
 9 39 l 1
 9 37 l 1
9 41 m 1
 7 41 l 1
 7 43 l 1
 9 43 l 1
 9 41 l 1
12 25 m 1
 10 25 l 1
 10 27 l 1
 11 27 l 1
 11 26 l 1
 12 26 l 1
 12 25 l 1
14 25 m 1
 13 25 l 1
 13 26 l 1
 12 26 l 1
 12 27 l 1
 14 27 l 1
 14 25 l 1
17 25 m 1
 15 25 l 1
 15 27 l 1
 17 27 l 1
 17 25 l 1
17 29 m 1
 15 29 l 1
 15 31 l 1
 17 31 l 1
 17 29 l 1
23 25 m 1
 21 25 l 1
 21 27 l 1
 23 27 l 1
 23 25 l 1
26 25 m 1
 24 25 l 1
 24 27 l 1
 25 27 l 1
 25 26 l 1
 26 26 l 1
 26 25 l 1
23 29 m 1
 21 29 l 1
 21 31 l 1
 23 31 l 1
 23 29 l 1
17 33 m 1
 15 33 l 1
 15 35 l 1
 17 35 l 1
 17 33 l 1
17 37 m 1
 15 37 l 1
 15 39 l 1
 17 39 l 1
 17 37 l 1
23 33 m 1
 21 33 l 1
 21 35 l 1
 23 35 l 1
 23 33 l 1
23 37 m 1
 21 37 l 1
 21 39 l 1
 23 39 l 1
 23 37 l 1
28 25 m 1
 27 25 l 1
 27 26 l 1
 26 26 l 1
 26 27 l 1
 28 27 l 1
 28 25 l 1
31 25 m 1
 29 25 l 1
 29 27 l 1
 31 27 l 1
 31 25 l 1
31 29 m 1
 29 29 l 1
 29 31 l 1
 31 31 l 1
 31 29 l 1
41 25 m 1
 39 25 l 1
 39 27 l 1
 41 27 l 1
 41 25 l 1
41 29 m 1
 39 29 l 1
 39 31 l 1
 41 31 l 1
 41 29 l 1
31 33 m 1
 29 33 l 1
 29 35 l 1
 31 35 l 1
 31 33 l 1
31 37 m 1
 29 37 l 1
 29 39 l 1
 31 39 l 1
 31 37 l 1
36 31 m 1
 34 31 l 1
 34 33 l 1
 36 33 l 1
 36 31 l 1
41 33 m 1
 39 33 l 1
 39 35 l 1
 41 35 l 1
 41 33 l 1
36 35 m 1
 34 35 l 1
 34 37 l 1
 36 37 l 1
 36 35 l 1
44 25 m 1
 42 25 l 1
 42 27 l 1
 43 27 l 1
 43 26 l 1
 44 26 l 1
 44 25 l 1
46 25 m 1
 45 25 l 1
 45 26 l 1
 44 26 l 1
 44 27 l 1
 46 27 l 1
 46 25 l 1
49 25 m 1
 47 25 l 1
 47 27 l 1
 49 27 l 1
 49 25 l 1
55 25 m 1
 53 25 l 1
 53 27 l 1
 55 27 l 1
 55 25 l 1
58 25 m 1
 56 25 l 1
 56 27 l 1
 57 27 l 1
 57 26 l 1
 58 26 l 1
 58 25 l 1
55 29 m 1
 53 29 l 1
 53 31 l 1
 55 31 l 1
 55 29 l 1
43 33 m 1
 42 33 l 1
 42 35 l 1
 44 35 l 1
 44 34 l 1
 43 34 l 1
 43 33 l 1
46 33 m 1
 44 33 l 1
 44 34 l 1
 45 34 l 1
 45 35 l 1
 46 35 l 1
 46 33 l 1
49 33 m 1
 47 33 l 1
 47 35 l 1
 49 35 l 1
 49 33 l 1
49 37 m 1
 47 37 l 1
 47 39 l 1
 49 39 l 1
 49 37 l 1
55 33 m 1
 53 33 l 1
 53 35 l 1
 55 35 l 1
 55 33 l 1
57 33 m 1
 56 33 l 1
 56 35 l 1
 58 35 l 1
 58 34 l 1
 57 34 l 1
 57 33 l 1
60 25 m 1
 59 25 l 1
 59 26 l 1
 58 26 l 1
 58 27 l 1
 60 27 l 1
 60 25 l 1
63 25 m 1
 61 25 l 1
 61 27 l 1
 63 27 l 1
 63 25 l 1
63 29 m 1
 61 29 l 1
 61 31 l 1
 63 31 l 1
 63 29 l 1
60 33 m 1
 58 33 l 1
 58 34 l 1
 59 34 l 1
 59 35 l 1
 60 35 l 1
 60 33 l 1
63 33 m 1
 61 33 l 1
 61 35 l 1
 63 35 l 1
 63 33 l 1
63 37 m 1
 61 37 l 1
 61 39 l 1
 63 39 l 1
 63 37 l 1
12 41 m 1
 10 41 l 1
 10 43 l 1
 11 43 l 1
 11 42 l 1
 12 42 l 1
 12 41 l 1
14 41 m 1
 13 41 l 1
 13 42 l 1
 12 42 l 1
 12 43 l 1
 14 43 l 1
 14 41 l 1
17 41 m 1
 15 41 l 1
 15 43 l 1
 17 43 l 1
 17 41 l 1
23 41 m 1
 21 41 l 1
 21 43 l 1
 23 43 l 1
 23 41 l 1
26 41 m 1
 24 41 l 1
 24 43 l 1
 25 43 l 1
 25 42 l 1
 26 42 l 1
 26 41 l 1
28 41 m 1
 27 41 l 1
 27 42 l 1
 26 42 l 1
 26 43 l 1
 28 43 l 1
 28 41 l 1
31 41 m 1
 29 41 l 1
 29 43 l 1
 31 43 l 1
 31 41 l 1
41 41 m 1
 39 41 l 1
 39 43 l 1
 41 43 l 1
 41 41 l 1
44 41 m 1
 42 41 l 1
 42 43 l 1
 43 43 l 1
 43 42 l 1
 44 42 l 1
 44 41 l 1
46 41 m 1
 45 41 l 1
 45 42 l 1
 44 42 l 1
 44 43 l 1
 46 43 l 1
 46 41 l 1
49 41 m 1
 47 41 l 1
 47 43 l 1
 49 43 l 1
 49 41 l 1
55 41 m 1
 53 41 l 1
 53 43 l 1
 55 43 l 1
 55 41 l 1
58 41 m 1
 56 41 l 1
 56 43 l 1
 57 43 l 1
 57 42 l 1
 58 42 l 1
 58 41 l 1
60 41 m 1
 59 41 l 1
 59 42 l 1
 58 42 l 1
 58 43 l 1
 60 43 l 1
 60 41 l 1
63 41 m 1
 61 41 l 1
 61 43 l 1
 63 43 l 1
 63 41 l 1
EndSplineSet
Ligature2: "'liga' Standard Ligatures in Latin lookup 0-1" five nine zero one six
LCarets2: 1 0
EndChar

StartChar: custom_5_9_0_1_7
Encoding: 17973 -1 17728
Width: 70
Flags: H
LayerCount: 2
Fore
SplineSet
9 25 m 1
 7 25 l 1
 7 27 l 1
 9 27 l 1
 9 25 l 1
9 29 m 1
 7 29 l 1
 7 31 l 1
 9 31 l 1
 9 29 l 1
9 33 m 1
 7 33 l 1
 7 35 l 1
 9 35 l 1
 9 33 l 1
9 37 m 1
 7 37 l 1
 7 39 l 1
 9 39 l 1
 9 37 l 1
9 41 m 1
 7 41 l 1
 7 43 l 1
 9 43 l 1
 9 41 l 1
12 25 m 1
 10 25 l 1
 10 27 l 1
 11 27 l 1
 11 26 l 1
 12 26 l 1
 12 25 l 1
14 25 m 1
 13 25 l 1
 13 26 l 1
 12 26 l 1
 12 27 l 1
 14 27 l 1
 14 25 l 1
17 25 m 1
 15 25 l 1
 15 27 l 1
 17 27 l 1
 17 25 l 1
17 29 m 1
 15 29 l 1
 15 31 l 1
 17 31 l 1
 17 29 l 1
23 25 m 1
 21 25 l 1
 21 27 l 1
 23 27 l 1
 23 25 l 1
26 25 m 1
 24 25 l 1
 24 27 l 1
 25 27 l 1
 25 26 l 1
 26 26 l 1
 26 25 l 1
23 29 m 1
 21 29 l 1
 21 31 l 1
 23 31 l 1
 23 29 l 1
17 33 m 1
 15 33 l 1
 15 35 l 1
 17 35 l 1
 17 33 l 1
17 37 m 1
 15 37 l 1
 15 39 l 1
 17 39 l 1
 17 37 l 1
23 33 m 1
 21 33 l 1
 21 35 l 1
 23 35 l 1
 23 33 l 1
23 37 m 1
 21 37 l 1
 21 39 l 1
 23 39 l 1
 23 37 l 1
28 25 m 1
 27 25 l 1
 27 26 l 1
 26 26 l 1
 26 27 l 1
 28 27 l 1
 28 25 l 1
31 25 m 1
 29 25 l 1
 29 27 l 1
 31 27 l 1
 31 25 l 1
31 29 m 1
 29 29 l 1
 29 31 l 1
 31 31 l 1
 31 29 l 1
41 25 m 1
 39 25 l 1
 39 27 l 1
 41 27 l 1
 41 25 l 1
41 29 m 1
 39 29 l 1
 39 31 l 1
 41 31 l 1
 41 29 l 1
31 33 m 1
 29 33 l 1
 29 35 l 1
 31 35 l 1
 31 33 l 1
31 37 m 1
 29 37 l 1
 29 39 l 1
 31 39 l 1
 31 37 l 1
36 31 m 1
 34 31 l 1
 34 33 l 1
 36 33 l 1
 36 31 l 1
41 33 m 1
 39 33 l 1
 39 35 l 1
 41 35 l 1
 41 33 l 1
36 35 m 1
 34 35 l 1
 34 37 l 1
 36 37 l 1
 36 35 l 1
44 25 m 1
 42 25 l 1
 42 27 l 1
 43 27 l 1
 43 26 l 1
 44 26 l 1
 44 25 l 1
46 25 m 1
 45 25 l 1
 45 26 l 1
 44 26 l 1
 44 27 l 1
 46 27 l 1
 46 25 l 1
49 25 m 1
 47 25 l 1
 47 27 l 1
 49 27 l 1
 49 25 l 1
55 25 m 1
 53 25 l 1
 53 27 l 1
 55 27 l 1
 55 25 l 1
58 25 m 1
 56 25 l 1
 56 27 l 1
 57 27 l 1
 57 26 l 1
 58 26 l 1
 58 25 l 1
55 29 m 1
 53 29 l 1
 53 31 l 1
 55 31 l 1
 55 29 l 1
43 33 m 1
 42 33 l 1
 42 35 l 1
 44 35 l 1
 44 34 l 1
 43 34 l 1
 43 33 l 1
46 33 m 1
 44 33 l 1
 44 34 l 1
 45 34 l 1
 45 35 l 1
 46 35 l 1
 46 33 l 1
49 33 m 1
 47 33 l 1
 47 35 l 1
 49 35 l 1
 49 33 l 1
49 37 m 1
 47 37 l 1
 47 39 l 1
 49 39 l 1
 49 37 l 1
55 33 m 1
 53 33 l 1
 53 35 l 1
 55 35 l 1
 55 33 l 1
57 33 m 1
 56 33 l 1
 56 35 l 1
 58 35 l 1
 58 34 l 1
 57 34 l 1
 57 33 l 1
60 25 m 1
 59 25 l 1
 59 26 l 1
 58 26 l 1
 58 27 l 1
 60 27 l 1
 60 25 l 1
63 25 m 1
 61 25 l 1
 61 27 l 1
 63 27 l 1
 63 25 l 1
63 29 m 1
 61 29 l 1
 61 31 l 1
 63 31 l 1
 63 29 l 1
60 33 m 1
 58 33 l 1
 58 34 l 1
 59 34 l 1
 59 35 l 1
 60 35 l 1
 60 33 l 1
63 33 m 1
 61 33 l 1
 61 35 l 1
 63 35 l 1
 63 33 l 1
63 37 m 1
 61 37 l 1
 61 39 l 1
 63 39 l 1
 63 37 l 1
12 41 m 1
 10 41 l 1
 10 43 l 1
 11 43 l 1
 11 42 l 1
 12 42 l 1
 12 41 l 1
14 41 m 1
 13 41 l 1
 13 42 l 1
 12 42 l 1
 12 43 l 1
 14 43 l 1
 14 41 l 1
17 41 m 1
 15 41 l 1
 15 43 l 1
 17 43 l 1
 17 41 l 1
23 41 m 1
 21 41 l 1
 21 43 l 1
 23 43 l 1
 23 41 l 1
26 41 m 1
 24 41 l 1
 24 43 l 1
 25 43 l 1
 25 42 l 1
 26 42 l 1
 26 41 l 1
28 41 m 1
 27 41 l 1
 27 42 l 1
 26 42 l 1
 26 43 l 1
 28 43 l 1
 28 41 l 1
31 41 m 1
 29 41 l 1
 29 43 l 1
 31 43 l 1
 31 41 l 1
41 41 m 1
 39 41 l 1
 39 43 l 1
 41 43 l 1
 41 41 l 1
44 41 m 1
 42 41 l 1
 42 43 l 1
 43 43 l 1
 43 42 l 1
 44 42 l 1
 44 41 l 1
46 41 m 1
 45 41 l 1
 45 42 l 1
 44 42 l 1
 44 43 l 1
 46 43 l 1
 46 41 l 1
49 41 m 1
 47 41 l 1
 47 43 l 1
 49 43 l 1
 49 41 l 1
55 41 m 1
 53 41 l 1
 53 43 l 1
 55 43 l 1
 55 41 l 1
58 41 m 1
 56 41 l 1
 56 43 l 1
 57 43 l 1
 57 42 l 1
 58 42 l 1
 58 41 l 1
60 41 m 1
 59 41 l 1
 59 42 l 1
 58 42 l 1
 58 43 l 1
 60 43 l 1
 60 41 l 1
63 41 m 1
 61 41 l 1
 61 43 l 1
 63 43 l 1
 63 41 l 1
EndSplineSet
Ligature2: "'liga' Standard Ligatures in Latin lookup 0-1" five nine zero one seven
LCarets2: 1 0
EndChar

StartChar: custom_5_9_0_1_8
Encoding: 17974 -1 17729
Width: 70
Flags: H
LayerCount: 2
Fore
SplineSet
9 25 m 1
 7 25 l 1
 7 27 l 1
 9 27 l 1
 9 25 l 1
9 29 m 1
 7 29 l 1
 7 31 l 1
 9 31 l 1
 9 29 l 1
9 33 m 1
 7 33 l 1
 7 35 l 1
 9 35 l 1
 9 33 l 1
9 37 m 1
 7 37 l 1
 7 39 l 1
 9 39 l 1
 9 37 l 1
9 41 m 1
 7 41 l 1
 7 43 l 1
 9 43 l 1
 9 41 l 1
12 25 m 1
 10 25 l 1
 10 27 l 1
 11 27 l 1
 11 26 l 1
 12 26 l 1
 12 25 l 1
14 25 m 1
 13 25 l 1
 13 26 l 1
 12 26 l 1
 12 27 l 1
 14 27 l 1
 14 25 l 1
17 25 m 1
 15 25 l 1
 15 27 l 1
 17 27 l 1
 17 25 l 1
17 29 m 1
 15 29 l 1
 15 31 l 1
 17 31 l 1
 17 29 l 1
23 25 m 1
 21 25 l 1
 21 27 l 1
 23 27 l 1
 23 25 l 1
26 25 m 1
 24 25 l 1
 24 27 l 1
 25 27 l 1
 25 26 l 1
 26 26 l 1
 26 25 l 1
23 29 m 1
 21 29 l 1
 21 31 l 1
 23 31 l 1
 23 29 l 1
17 33 m 1
 15 33 l 1
 15 35 l 1
 17 35 l 1
 17 33 l 1
17 37 m 1
 15 37 l 1
 15 39 l 1
 17 39 l 1
 17 37 l 1
23 33 m 1
 21 33 l 1
 21 35 l 1
 23 35 l 1
 23 33 l 1
23 37 m 1
 21 37 l 1
 21 39 l 1
 23 39 l 1
 23 37 l 1
28 25 m 1
 27 25 l 1
 27 26 l 1
 26 26 l 1
 26 27 l 1
 28 27 l 1
 28 25 l 1
31 25 m 1
 29 25 l 1
 29 27 l 1
 31 27 l 1
 31 25 l 1
31 29 m 1
 29 29 l 1
 29 31 l 1
 31 31 l 1
 31 29 l 1
41 25 m 1
 39 25 l 1
 39 27 l 1
 41 27 l 1
 41 25 l 1
41 29 m 1
 39 29 l 1
 39 31 l 1
 41 31 l 1
 41 29 l 1
31 33 m 1
 29 33 l 1
 29 35 l 1
 31 35 l 1
 31 33 l 1
31 37 m 1
 29 37 l 1
 29 39 l 1
 31 39 l 1
 31 37 l 1
36 31 m 1
 34 31 l 1
 34 33 l 1
 36 33 l 1
 36 31 l 1
41 33 m 1
 39 33 l 1
 39 35 l 1
 41 35 l 1
 41 33 l 1
36 35 m 1
 34 35 l 1
 34 37 l 1
 36 37 l 1
 36 35 l 1
44 25 m 1
 42 25 l 1
 42 27 l 1
 43 27 l 1
 43 26 l 1
 44 26 l 1
 44 25 l 1
46 25 m 1
 45 25 l 1
 45 26 l 1
 44 26 l 1
 44 27 l 1
 46 27 l 1
 46 25 l 1
49 25 m 1
 47 25 l 1
 47 27 l 1
 49 27 l 1
 49 25 l 1
55 25 m 1
 53 25 l 1
 53 27 l 1
 55 27 l 1
 55 25 l 1
58 25 m 1
 56 25 l 1
 56 27 l 1
 57 27 l 1
 57 26 l 1
 58 26 l 1
 58 25 l 1
55 29 m 1
 53 29 l 1
 53 31 l 1
 55 31 l 1
 55 29 l 1
43 33 m 1
 42 33 l 1
 42 35 l 1
 44 35 l 1
 44 34 l 1
 43 34 l 1
 43 33 l 1
46 33 m 1
 44 33 l 1
 44 34 l 1
 45 34 l 1
 45 35 l 1
 46 35 l 1
 46 33 l 1
49 33 m 1
 47 33 l 1
 47 35 l 1
 49 35 l 1
 49 33 l 1
49 37 m 1
 47 37 l 1
 47 39 l 1
 49 39 l 1
 49 37 l 1
55 33 m 1
 53 33 l 1
 53 35 l 1
 55 35 l 1
 55 33 l 1
57 33 m 1
 56 33 l 1
 56 35 l 1
 58 35 l 1
 58 34 l 1
 57 34 l 1
 57 33 l 1
60 25 m 1
 59 25 l 1
 59 26 l 1
 58 26 l 1
 58 27 l 1
 60 27 l 1
 60 25 l 1
63 25 m 1
 61 25 l 1
 61 27 l 1
 63 27 l 1
 63 25 l 1
63 29 m 1
 61 29 l 1
 61 31 l 1
 63 31 l 1
 63 29 l 1
60 33 m 1
 58 33 l 1
 58 34 l 1
 59 34 l 1
 59 35 l 1
 60 35 l 1
 60 33 l 1
63 33 m 1
 61 33 l 1
 61 35 l 1
 63 35 l 1
 63 33 l 1
63 37 m 1
 61 37 l 1
 61 39 l 1
 63 39 l 1
 63 37 l 1
12 41 m 1
 10 41 l 1
 10 43 l 1
 11 43 l 1
 11 42 l 1
 12 42 l 1
 12 41 l 1
14 41 m 1
 13 41 l 1
 13 42 l 1
 12 42 l 1
 12 43 l 1
 14 43 l 1
 14 41 l 1
17 41 m 1
 15 41 l 1
 15 43 l 1
 17 43 l 1
 17 41 l 1
23 41 m 1
 21 41 l 1
 21 43 l 1
 23 43 l 1
 23 41 l 1
26 41 m 1
 24 41 l 1
 24 43 l 1
 25 43 l 1
 25 42 l 1
 26 42 l 1
 26 41 l 1
28 41 m 1
 27 41 l 1
 27 42 l 1
 26 42 l 1
 26 43 l 1
 28 43 l 1
 28 41 l 1
31 41 m 1
 29 41 l 1
 29 43 l 1
 31 43 l 1
 31 41 l 1
41 41 m 1
 39 41 l 1
 39 43 l 1
 41 43 l 1
 41 41 l 1
44 41 m 1
 42 41 l 1
 42 43 l 1
 43 43 l 1
 43 42 l 1
 44 42 l 1
 44 41 l 1
46 41 m 1
 45 41 l 1
 45 42 l 1
 44 42 l 1
 44 43 l 1
 46 43 l 1
 46 41 l 1
49 41 m 1
 47 41 l 1
 47 43 l 1
 49 43 l 1
 49 41 l 1
55 41 m 1
 53 41 l 1
 53 43 l 1
 55 43 l 1
 55 41 l 1
58 41 m 1
 56 41 l 1
 56 43 l 1
 57 43 l 1
 57 42 l 1
 58 42 l 1
 58 41 l 1
60 41 m 1
 59 41 l 1
 59 42 l 1
 58 42 l 1
 58 43 l 1
 60 43 l 1
 60 41 l 1
63 41 m 1
 61 41 l 1
 61 43 l 1
 63 43 l 1
 63 41 l 1
EndSplineSet
Ligature2: "'liga' Standard Ligatures in Latin lookup 0-1" five nine zero one eight
LCarets2: 1 0
EndChar

StartChar: custom_5_9_0_1_9
Encoding: 17975 -1 17730
Width: 70
Flags: H
LayerCount: 2
Fore
SplineSet
9 25 m 1
 7 25 l 1
 7 27 l 1
 9 27 l 1
 9 25 l 1
9 29 m 1
 7 29 l 1
 7 31 l 1
 9 31 l 1
 9 29 l 1
9 33 m 1
 7 33 l 1
 7 35 l 1
 9 35 l 1
 9 33 l 1
9 37 m 1
 7 37 l 1
 7 39 l 1
 9 39 l 1
 9 37 l 1
9 41 m 1
 7 41 l 1
 7 43 l 1
 9 43 l 1
 9 41 l 1
12 25 m 1
 10 25 l 1
 10 27 l 1
 11 27 l 1
 11 26 l 1
 12 26 l 1
 12 25 l 1
14 25 m 1
 13 25 l 1
 13 26 l 1
 12 26 l 1
 12 27 l 1
 14 27 l 1
 14 25 l 1
17 25 m 1
 15 25 l 1
 15 27 l 1
 17 27 l 1
 17 25 l 1
17 29 m 1
 15 29 l 1
 15 31 l 1
 17 31 l 1
 17 29 l 1
23 25 m 1
 21 25 l 1
 21 27 l 1
 23 27 l 1
 23 25 l 1
26 25 m 1
 24 25 l 1
 24 27 l 1
 25 27 l 1
 25 26 l 1
 26 26 l 1
 26 25 l 1
23 29 m 1
 21 29 l 1
 21 31 l 1
 23 31 l 1
 23 29 l 1
17 33 m 1
 15 33 l 1
 15 35 l 1
 17 35 l 1
 17 33 l 1
17 37 m 1
 15 37 l 1
 15 39 l 1
 17 39 l 1
 17 37 l 1
23 33 m 1
 21 33 l 1
 21 35 l 1
 23 35 l 1
 23 33 l 1
23 37 m 1
 21 37 l 1
 21 39 l 1
 23 39 l 1
 23 37 l 1
28 25 m 1
 27 25 l 1
 27 26 l 1
 26 26 l 1
 26 27 l 1
 28 27 l 1
 28 25 l 1
31 25 m 1
 29 25 l 1
 29 27 l 1
 31 27 l 1
 31 25 l 1
31 29 m 1
 29 29 l 1
 29 31 l 1
 31 31 l 1
 31 29 l 1
41 25 m 1
 39 25 l 1
 39 27 l 1
 41 27 l 1
 41 25 l 1
41 29 m 1
 39 29 l 1
 39 31 l 1
 41 31 l 1
 41 29 l 1
31 33 m 1
 29 33 l 1
 29 35 l 1
 31 35 l 1
 31 33 l 1
31 37 m 1
 29 37 l 1
 29 39 l 1
 31 39 l 1
 31 37 l 1
36 31 m 1
 34 31 l 1
 34 33 l 1
 36 33 l 1
 36 31 l 1
41 33 m 1
 39 33 l 1
 39 35 l 1
 41 35 l 1
 41 33 l 1
36 35 m 1
 34 35 l 1
 34 37 l 1
 36 37 l 1
 36 35 l 1
44 25 m 1
 42 25 l 1
 42 27 l 1
 43 27 l 1
 43 26 l 1
 44 26 l 1
 44 25 l 1
46 25 m 1
 45 25 l 1
 45 26 l 1
 44 26 l 1
 44 27 l 1
 46 27 l 1
 46 25 l 1
49 25 m 1
 47 25 l 1
 47 27 l 1
 49 27 l 1
 49 25 l 1
55 25 m 1
 53 25 l 1
 53 27 l 1
 55 27 l 1
 55 25 l 1
58 25 m 1
 56 25 l 1
 56 27 l 1
 57 27 l 1
 57 26 l 1
 58 26 l 1
 58 25 l 1
55 29 m 1
 53 29 l 1
 53 31 l 1
 55 31 l 1
 55 29 l 1
43 33 m 1
 42 33 l 1
 42 35 l 1
 44 35 l 1
 44 34 l 1
 43 34 l 1
 43 33 l 1
46 33 m 1
 44 33 l 1
 44 34 l 1
 45 34 l 1
 45 35 l 1
 46 35 l 1
 46 33 l 1
49 33 m 1
 47 33 l 1
 47 35 l 1
 49 35 l 1
 49 33 l 1
49 37 m 1
 47 37 l 1
 47 39 l 1
 49 39 l 1
 49 37 l 1
55 33 m 1
 53 33 l 1
 53 35 l 1
 55 35 l 1
 55 33 l 1
57 33 m 1
 56 33 l 1
 56 35 l 1
 58 35 l 1
 58 34 l 1
 57 34 l 1
 57 33 l 1
60 25 m 1
 59 25 l 1
 59 26 l 1
 58 26 l 1
 58 27 l 1
 60 27 l 1
 60 25 l 1
63 25 m 1
 61 25 l 1
 61 27 l 1
 63 27 l 1
 63 25 l 1
63 29 m 1
 61 29 l 1
 61 31 l 1
 63 31 l 1
 63 29 l 1
60 33 m 1
 58 33 l 1
 58 34 l 1
 59 34 l 1
 59 35 l 1
 60 35 l 1
 60 33 l 1
63 33 m 1
 61 33 l 1
 61 35 l 1
 63 35 l 1
 63 33 l 1
63 37 m 1
 61 37 l 1
 61 39 l 1
 63 39 l 1
 63 37 l 1
12 41 m 1
 10 41 l 1
 10 43 l 1
 11 43 l 1
 11 42 l 1
 12 42 l 1
 12 41 l 1
14 41 m 1
 13 41 l 1
 13 42 l 1
 12 42 l 1
 12 43 l 1
 14 43 l 1
 14 41 l 1
17 41 m 1
 15 41 l 1
 15 43 l 1
 17 43 l 1
 17 41 l 1
23 41 m 1
 21 41 l 1
 21 43 l 1
 23 43 l 1
 23 41 l 1
26 41 m 1
 24 41 l 1
 24 43 l 1
 25 43 l 1
 25 42 l 1
 26 42 l 1
 26 41 l 1
28 41 m 1
 27 41 l 1
 27 42 l 1
 26 42 l 1
 26 43 l 1
 28 43 l 1
 28 41 l 1
31 41 m 1
 29 41 l 1
 29 43 l 1
 31 43 l 1
 31 41 l 1
41 41 m 1
 39 41 l 1
 39 43 l 1
 41 43 l 1
 41 41 l 1
44 41 m 1
 42 41 l 1
 42 43 l 1
 43 43 l 1
 43 42 l 1
 44 42 l 1
 44 41 l 1
46 41 m 1
 45 41 l 1
 45 42 l 1
 44 42 l 1
 44 43 l 1
 46 43 l 1
 46 41 l 1
49 41 m 1
 47 41 l 1
 47 43 l 1
 49 43 l 1
 49 41 l 1
55 41 m 1
 53 41 l 1
 53 43 l 1
 55 43 l 1
 55 41 l 1
58 41 m 1
 56 41 l 1
 56 43 l 1
 57 43 l 1
 57 42 l 1
 58 42 l 1
 58 41 l 1
60 41 m 1
 59 41 l 1
 59 42 l 1
 58 42 l 1
 58 43 l 1
 60 43 l 1
 60 41 l 1
63 41 m 1
 61 41 l 1
 61 43 l 1
 63 43 l 1
 63 41 l 1
EndSplineSet
Ligature2: "'liga' Standard Ligatures in Latin lookup 0-1" five nine zero one nine
LCarets2: 1 0
EndChar

StartChar: custom_5_9_0_2_0
Encoding: 17976 -1 17731
Width: 70
Flags: H
LayerCount: 2
Fore
SplineSet
9 25 m 1
 7 25 l 1
 7 27 l 1
 9 27 l 1
 9 25 l 1
9 29 m 1
 7 29 l 1
 7 31 l 1
 9 31 l 1
 9 29 l 1
9 33 m 1
 7 33 l 1
 7 35 l 1
 9 35 l 1
 9 33 l 1
9 37 m 1
 7 37 l 1
 7 39 l 1
 9 39 l 1
 9 37 l 1
9 41 m 1
 7 41 l 1
 7 43 l 1
 9 43 l 1
 9 41 l 1
12 25 m 1
 10 25 l 1
 10 27 l 1
 11 27 l 1
 11 26 l 1
 12 26 l 1
 12 25 l 1
14 25 m 1
 13 25 l 1
 13 26 l 1
 12 26 l 1
 12 27 l 1
 14 27 l 1
 14 25 l 1
17 25 m 1
 15 25 l 1
 15 27 l 1
 17 27 l 1
 17 25 l 1
17 29 m 1
 15 29 l 1
 15 31 l 1
 17 31 l 1
 17 29 l 1
23 25 m 1
 21 25 l 1
 21 27 l 1
 23 27 l 1
 23 25 l 1
26 25 m 1
 24 25 l 1
 24 27 l 1
 25 27 l 1
 25 26 l 1
 26 26 l 1
 26 25 l 1
23 29 m 1
 21 29 l 1
 21 31 l 1
 23 31 l 1
 23 29 l 1
17 33 m 1
 15 33 l 1
 15 35 l 1
 17 35 l 1
 17 33 l 1
17 37 m 1
 15 37 l 1
 15 39 l 1
 17 39 l 1
 17 37 l 1
23 33 m 1
 21 33 l 1
 21 35 l 1
 23 35 l 1
 23 33 l 1
23 37 m 1
 21 37 l 1
 21 39 l 1
 23 39 l 1
 23 37 l 1
28 25 m 1
 27 25 l 1
 27 26 l 1
 26 26 l 1
 26 27 l 1
 28 27 l 1
 28 25 l 1
31 25 m 1
 29 25 l 1
 29 27 l 1
 31 27 l 1
 31 25 l 1
31 29 m 1
 29 29 l 1
 29 31 l 1
 31 31 l 1
 31 29 l 1
41 25 m 1
 39 25 l 1
 39 27 l 1
 41 27 l 1
 41 25 l 1
41 29 m 1
 39 29 l 1
 39 31 l 1
 41 31 l 1
 41 29 l 1
31 33 m 1
 29 33 l 1
 29 35 l 1
 31 35 l 1
 31 33 l 1
31 37 m 1
 29 37 l 1
 29 39 l 1
 31 39 l 1
 31 37 l 1
36 31 m 1
 34 31 l 1
 34 33 l 1
 36 33 l 1
 36 31 l 1
41 33 m 1
 39 33 l 1
 39 35 l 1
 41 35 l 1
 41 33 l 1
36 35 m 1
 34 35 l 1
 34 37 l 1
 36 37 l 1
 36 35 l 1
44 25 m 1
 42 25 l 1
 42 27 l 1
 43 27 l 1
 43 26 l 1
 44 26 l 1
 44 25 l 1
46 25 m 1
 45 25 l 1
 45 26 l 1
 44 26 l 1
 44 27 l 1
 46 27 l 1
 46 25 l 1
49 25 m 1
 47 25 l 1
 47 27 l 1
 49 27 l 1
 49 25 l 1
55 25 m 1
 53 25 l 1
 53 27 l 1
 55 27 l 1
 55 25 l 1
58 25 m 1
 56 25 l 1
 56 27 l 1
 57 27 l 1
 57 26 l 1
 58 26 l 1
 58 25 l 1
55 29 m 1
 53 29 l 1
 53 31 l 1
 55 31 l 1
 55 29 l 1
43 33 m 1
 42 33 l 1
 42 35 l 1
 44 35 l 1
 44 34 l 1
 43 34 l 1
 43 33 l 1
46 33 m 1
 44 33 l 1
 44 34 l 1
 45 34 l 1
 45 35 l 1
 46 35 l 1
 46 33 l 1
49 33 m 1
 47 33 l 1
 47 35 l 1
 49 35 l 1
 49 33 l 1
49 37 m 1
 47 37 l 1
 47 39 l 1
 49 39 l 1
 49 37 l 1
55 33 m 1
 53 33 l 1
 53 35 l 1
 55 35 l 1
 55 33 l 1
57 33 m 1
 56 33 l 1
 56 35 l 1
 58 35 l 1
 58 34 l 1
 57 34 l 1
 57 33 l 1
60 25 m 1
 59 25 l 1
 59 26 l 1
 58 26 l 1
 58 27 l 1
 60 27 l 1
 60 25 l 1
63 25 m 1
 61 25 l 1
 61 27 l 1
 63 27 l 1
 63 25 l 1
63 29 m 1
 61 29 l 1
 61 31 l 1
 63 31 l 1
 63 29 l 1
60 33 m 1
 58 33 l 1
 58 34 l 1
 59 34 l 1
 59 35 l 1
 60 35 l 1
 60 33 l 1
63 33 m 1
 61 33 l 1
 61 35 l 1
 63 35 l 1
 63 33 l 1
63 37 m 1
 61 37 l 1
 61 39 l 1
 63 39 l 1
 63 37 l 1
12 41 m 1
 10 41 l 1
 10 43 l 1
 11 43 l 1
 11 42 l 1
 12 42 l 1
 12 41 l 1
14 41 m 1
 13 41 l 1
 13 42 l 1
 12 42 l 1
 12 43 l 1
 14 43 l 1
 14 41 l 1
17 41 m 1
 15 41 l 1
 15 43 l 1
 17 43 l 1
 17 41 l 1
23 41 m 1
 21 41 l 1
 21 43 l 1
 23 43 l 1
 23 41 l 1
26 41 m 1
 24 41 l 1
 24 43 l 1
 25 43 l 1
 25 42 l 1
 26 42 l 1
 26 41 l 1
28 41 m 1
 27 41 l 1
 27 42 l 1
 26 42 l 1
 26 43 l 1
 28 43 l 1
 28 41 l 1
31 41 m 1
 29 41 l 1
 29 43 l 1
 31 43 l 1
 31 41 l 1
41 41 m 1
 39 41 l 1
 39 43 l 1
 41 43 l 1
 41 41 l 1
44 41 m 1
 42 41 l 1
 42 43 l 1
 43 43 l 1
 43 42 l 1
 44 42 l 1
 44 41 l 1
46 41 m 1
 45 41 l 1
 45 42 l 1
 44 42 l 1
 44 43 l 1
 46 43 l 1
 46 41 l 1
49 41 m 1
 47 41 l 1
 47 43 l 1
 49 43 l 1
 49 41 l 1
55 41 m 1
 53 41 l 1
 53 43 l 1
 55 43 l 1
 55 41 l 1
58 41 m 1
 56 41 l 1
 56 43 l 1
 57 43 l 1
 57 42 l 1
 58 42 l 1
 58 41 l 1
60 41 m 1
 59 41 l 1
 59 42 l 1
 58 42 l 1
 58 43 l 1
 60 43 l 1
 60 41 l 1
63 41 m 1
 61 41 l 1
 61 43 l 1
 63 43 l 1
 63 41 l 1
EndSplineSet
Ligature2: "'liga' Standard Ligatures in Latin lookup 0-1" five nine zero two zero
LCarets2: 1 0
EndChar

StartChar: custom_5_9_0_2_1
Encoding: 17977 -1 17732
Width: 70
Flags: H
LayerCount: 2
Fore
SplineSet
9 25 m 1
 7 25 l 1
 7 27 l 1
 9 27 l 1
 9 25 l 1
9 29 m 1
 7 29 l 1
 7 31 l 1
 9 31 l 1
 9 29 l 1
9 33 m 1
 7 33 l 1
 7 35 l 1
 9 35 l 1
 9 33 l 1
9 37 m 1
 7 37 l 1
 7 39 l 1
 9 39 l 1
 9 37 l 1
9 41 m 1
 7 41 l 1
 7 43 l 1
 9 43 l 1
 9 41 l 1
12 25 m 1
 10 25 l 1
 10 27 l 1
 11 27 l 1
 11 26 l 1
 12 26 l 1
 12 25 l 1
14 25 m 1
 13 25 l 1
 13 26 l 1
 12 26 l 1
 12 27 l 1
 14 27 l 1
 14 25 l 1
17 25 m 1
 15 25 l 1
 15 27 l 1
 17 27 l 1
 17 25 l 1
17 29 m 1
 15 29 l 1
 15 31 l 1
 17 31 l 1
 17 29 l 1
23 25 m 1
 21 25 l 1
 21 27 l 1
 23 27 l 1
 23 25 l 1
26 25 m 1
 24 25 l 1
 24 27 l 1
 25 27 l 1
 25 26 l 1
 26 26 l 1
 26 25 l 1
23 29 m 1
 21 29 l 1
 21 31 l 1
 23 31 l 1
 23 29 l 1
17 33 m 1
 15 33 l 1
 15 35 l 1
 17 35 l 1
 17 33 l 1
17 37 m 1
 15 37 l 1
 15 39 l 1
 17 39 l 1
 17 37 l 1
23 33 m 1
 21 33 l 1
 21 35 l 1
 23 35 l 1
 23 33 l 1
23 37 m 1
 21 37 l 1
 21 39 l 1
 23 39 l 1
 23 37 l 1
28 25 m 1
 27 25 l 1
 27 26 l 1
 26 26 l 1
 26 27 l 1
 28 27 l 1
 28 25 l 1
31 25 m 1
 29 25 l 1
 29 27 l 1
 31 27 l 1
 31 25 l 1
31 29 m 1
 29 29 l 1
 29 31 l 1
 31 31 l 1
 31 29 l 1
41 25 m 1
 39 25 l 1
 39 27 l 1
 41 27 l 1
 41 25 l 1
41 29 m 1
 39 29 l 1
 39 31 l 1
 41 31 l 1
 41 29 l 1
31 33 m 1
 29 33 l 1
 29 35 l 1
 31 35 l 1
 31 33 l 1
31 37 m 1
 29 37 l 1
 29 39 l 1
 31 39 l 1
 31 37 l 1
36 31 m 1
 34 31 l 1
 34 33 l 1
 36 33 l 1
 36 31 l 1
41 33 m 1
 39 33 l 1
 39 35 l 1
 41 35 l 1
 41 33 l 1
36 35 m 1
 34 35 l 1
 34 37 l 1
 36 37 l 1
 36 35 l 1
44 25 m 1
 42 25 l 1
 42 27 l 1
 43 27 l 1
 43 26 l 1
 44 26 l 1
 44 25 l 1
46 25 m 1
 45 25 l 1
 45 26 l 1
 44 26 l 1
 44 27 l 1
 46 27 l 1
 46 25 l 1
49 25 m 1
 47 25 l 1
 47 27 l 1
 49 27 l 1
 49 25 l 1
55 25 m 1
 53 25 l 1
 53 27 l 1
 55 27 l 1
 55 25 l 1
58 25 m 1
 56 25 l 1
 56 27 l 1
 57 27 l 1
 57 26 l 1
 58 26 l 1
 58 25 l 1
55 29 m 1
 53 29 l 1
 53 31 l 1
 55 31 l 1
 55 29 l 1
43 33 m 1
 42 33 l 1
 42 35 l 1
 44 35 l 1
 44 34 l 1
 43 34 l 1
 43 33 l 1
46 33 m 1
 44 33 l 1
 44 34 l 1
 45 34 l 1
 45 35 l 1
 46 35 l 1
 46 33 l 1
49 33 m 1
 47 33 l 1
 47 35 l 1
 49 35 l 1
 49 33 l 1
49 37 m 1
 47 37 l 1
 47 39 l 1
 49 39 l 1
 49 37 l 1
55 33 m 1
 53 33 l 1
 53 35 l 1
 55 35 l 1
 55 33 l 1
57 33 m 1
 56 33 l 1
 56 35 l 1
 58 35 l 1
 58 34 l 1
 57 34 l 1
 57 33 l 1
60 25 m 1
 59 25 l 1
 59 26 l 1
 58 26 l 1
 58 27 l 1
 60 27 l 1
 60 25 l 1
63 25 m 1
 61 25 l 1
 61 27 l 1
 63 27 l 1
 63 25 l 1
63 29 m 1
 61 29 l 1
 61 31 l 1
 63 31 l 1
 63 29 l 1
60 33 m 1
 58 33 l 1
 58 34 l 1
 59 34 l 1
 59 35 l 1
 60 35 l 1
 60 33 l 1
63 33 m 1
 61 33 l 1
 61 35 l 1
 63 35 l 1
 63 33 l 1
63 37 m 1
 61 37 l 1
 61 39 l 1
 63 39 l 1
 63 37 l 1
12 41 m 1
 10 41 l 1
 10 43 l 1
 11 43 l 1
 11 42 l 1
 12 42 l 1
 12 41 l 1
14 41 m 1
 13 41 l 1
 13 42 l 1
 12 42 l 1
 12 43 l 1
 14 43 l 1
 14 41 l 1
17 41 m 1
 15 41 l 1
 15 43 l 1
 17 43 l 1
 17 41 l 1
23 41 m 1
 21 41 l 1
 21 43 l 1
 23 43 l 1
 23 41 l 1
26 41 m 1
 24 41 l 1
 24 43 l 1
 25 43 l 1
 25 42 l 1
 26 42 l 1
 26 41 l 1
28 41 m 1
 27 41 l 1
 27 42 l 1
 26 42 l 1
 26 43 l 1
 28 43 l 1
 28 41 l 1
31 41 m 1
 29 41 l 1
 29 43 l 1
 31 43 l 1
 31 41 l 1
41 41 m 1
 39 41 l 1
 39 43 l 1
 41 43 l 1
 41 41 l 1
44 41 m 1
 42 41 l 1
 42 43 l 1
 43 43 l 1
 43 42 l 1
 44 42 l 1
 44 41 l 1
46 41 m 1
 45 41 l 1
 45 42 l 1
 44 42 l 1
 44 43 l 1
 46 43 l 1
 46 41 l 1
49 41 m 1
 47 41 l 1
 47 43 l 1
 49 43 l 1
 49 41 l 1
55 41 m 1
 53 41 l 1
 53 43 l 1
 55 43 l 1
 55 41 l 1
58 41 m 1
 56 41 l 1
 56 43 l 1
 57 43 l 1
 57 42 l 1
 58 42 l 1
 58 41 l 1
60 41 m 1
 59 41 l 1
 59 42 l 1
 58 42 l 1
 58 43 l 1
 60 43 l 1
 60 41 l 1
63 41 m 1
 61 41 l 1
 61 43 l 1
 63 43 l 1
 63 41 l 1
EndSplineSet
Ligature2: "'liga' Standard Ligatures in Latin lookup 0-1" five nine zero two one
LCarets2: 1 0
EndChar

StartChar: custom_5_9_0_2_2
Encoding: 17978 -1 17733
Width: 70
Flags: H
LayerCount: 2
Fore
SplineSet
9 25 m 1
 7 25 l 1
 7 27 l 1
 9 27 l 1
 9 25 l 1
9 29 m 1
 7 29 l 1
 7 31 l 1
 9 31 l 1
 9 29 l 1
9 33 m 1
 7 33 l 1
 7 35 l 1
 9 35 l 1
 9 33 l 1
9 37 m 1
 7 37 l 1
 7 39 l 1
 9 39 l 1
 9 37 l 1
9 41 m 1
 7 41 l 1
 7 43 l 1
 9 43 l 1
 9 41 l 1
12 25 m 1
 10 25 l 1
 10 27 l 1
 11 27 l 1
 11 26 l 1
 12 26 l 1
 12 25 l 1
14 25 m 1
 13 25 l 1
 13 26 l 1
 12 26 l 1
 12 27 l 1
 14 27 l 1
 14 25 l 1
17 25 m 1
 15 25 l 1
 15 27 l 1
 17 27 l 1
 17 25 l 1
17 29 m 1
 15 29 l 1
 15 31 l 1
 17 31 l 1
 17 29 l 1
23 25 m 1
 21 25 l 1
 21 27 l 1
 23 27 l 1
 23 25 l 1
26 25 m 1
 24 25 l 1
 24 27 l 1
 25 27 l 1
 25 26 l 1
 26 26 l 1
 26 25 l 1
23 29 m 1
 21 29 l 1
 21 31 l 1
 23 31 l 1
 23 29 l 1
17 33 m 1
 15 33 l 1
 15 35 l 1
 17 35 l 1
 17 33 l 1
17 37 m 1
 15 37 l 1
 15 39 l 1
 17 39 l 1
 17 37 l 1
23 33 m 1
 21 33 l 1
 21 35 l 1
 23 35 l 1
 23 33 l 1
23 37 m 1
 21 37 l 1
 21 39 l 1
 23 39 l 1
 23 37 l 1
28 25 m 1
 27 25 l 1
 27 26 l 1
 26 26 l 1
 26 27 l 1
 28 27 l 1
 28 25 l 1
31 25 m 1
 29 25 l 1
 29 27 l 1
 31 27 l 1
 31 25 l 1
31 29 m 1
 29 29 l 1
 29 31 l 1
 31 31 l 1
 31 29 l 1
41 25 m 1
 39 25 l 1
 39 27 l 1
 41 27 l 1
 41 25 l 1
41 29 m 1
 39 29 l 1
 39 31 l 1
 41 31 l 1
 41 29 l 1
31 33 m 1
 29 33 l 1
 29 35 l 1
 31 35 l 1
 31 33 l 1
31 37 m 1
 29 37 l 1
 29 39 l 1
 31 39 l 1
 31 37 l 1
36 31 m 1
 34 31 l 1
 34 33 l 1
 36 33 l 1
 36 31 l 1
41 33 m 1
 39 33 l 1
 39 35 l 1
 41 35 l 1
 41 33 l 1
36 35 m 1
 34 35 l 1
 34 37 l 1
 36 37 l 1
 36 35 l 1
44 25 m 1
 42 25 l 1
 42 27 l 1
 43 27 l 1
 43 26 l 1
 44 26 l 1
 44 25 l 1
46 25 m 1
 45 25 l 1
 45 26 l 1
 44 26 l 1
 44 27 l 1
 46 27 l 1
 46 25 l 1
49 25 m 1
 47 25 l 1
 47 27 l 1
 49 27 l 1
 49 25 l 1
55 25 m 1
 53 25 l 1
 53 27 l 1
 55 27 l 1
 55 25 l 1
58 25 m 1
 56 25 l 1
 56 27 l 1
 57 27 l 1
 57 26 l 1
 58 26 l 1
 58 25 l 1
55 29 m 1
 53 29 l 1
 53 31 l 1
 55 31 l 1
 55 29 l 1
43 33 m 1
 42 33 l 1
 42 35 l 1
 44 35 l 1
 44 34 l 1
 43 34 l 1
 43 33 l 1
46 33 m 1
 44 33 l 1
 44 34 l 1
 45 34 l 1
 45 35 l 1
 46 35 l 1
 46 33 l 1
49 33 m 1
 47 33 l 1
 47 35 l 1
 49 35 l 1
 49 33 l 1
49 37 m 1
 47 37 l 1
 47 39 l 1
 49 39 l 1
 49 37 l 1
55 33 m 1
 53 33 l 1
 53 35 l 1
 55 35 l 1
 55 33 l 1
57 33 m 1
 56 33 l 1
 56 35 l 1
 58 35 l 1
 58 34 l 1
 57 34 l 1
 57 33 l 1
60 25 m 1
 59 25 l 1
 59 26 l 1
 58 26 l 1
 58 27 l 1
 60 27 l 1
 60 25 l 1
63 25 m 1
 61 25 l 1
 61 27 l 1
 63 27 l 1
 63 25 l 1
63 29 m 1
 61 29 l 1
 61 31 l 1
 63 31 l 1
 63 29 l 1
60 33 m 1
 58 33 l 1
 58 34 l 1
 59 34 l 1
 59 35 l 1
 60 35 l 1
 60 33 l 1
63 33 m 1
 61 33 l 1
 61 35 l 1
 63 35 l 1
 63 33 l 1
63 37 m 1
 61 37 l 1
 61 39 l 1
 63 39 l 1
 63 37 l 1
12 41 m 1
 10 41 l 1
 10 43 l 1
 11 43 l 1
 11 42 l 1
 12 42 l 1
 12 41 l 1
14 41 m 1
 13 41 l 1
 13 42 l 1
 12 42 l 1
 12 43 l 1
 14 43 l 1
 14 41 l 1
17 41 m 1
 15 41 l 1
 15 43 l 1
 17 43 l 1
 17 41 l 1
23 41 m 1
 21 41 l 1
 21 43 l 1
 23 43 l 1
 23 41 l 1
26 41 m 1
 24 41 l 1
 24 43 l 1
 25 43 l 1
 25 42 l 1
 26 42 l 1
 26 41 l 1
28 41 m 1
 27 41 l 1
 27 42 l 1
 26 42 l 1
 26 43 l 1
 28 43 l 1
 28 41 l 1
31 41 m 1
 29 41 l 1
 29 43 l 1
 31 43 l 1
 31 41 l 1
41 41 m 1
 39 41 l 1
 39 43 l 1
 41 43 l 1
 41 41 l 1
44 41 m 1
 42 41 l 1
 42 43 l 1
 43 43 l 1
 43 42 l 1
 44 42 l 1
 44 41 l 1
46 41 m 1
 45 41 l 1
 45 42 l 1
 44 42 l 1
 44 43 l 1
 46 43 l 1
 46 41 l 1
49 41 m 1
 47 41 l 1
 47 43 l 1
 49 43 l 1
 49 41 l 1
55 41 m 1
 53 41 l 1
 53 43 l 1
 55 43 l 1
 55 41 l 1
58 41 m 1
 56 41 l 1
 56 43 l 1
 57 43 l 1
 57 42 l 1
 58 42 l 1
 58 41 l 1
60 41 m 1
 59 41 l 1
 59 42 l 1
 58 42 l 1
 58 43 l 1
 60 43 l 1
 60 41 l 1
63 41 m 1
 61 41 l 1
 61 43 l 1
 63 43 l 1
 63 41 l 1
EndSplineSet
Ligature2: "'liga' Standard Ligatures in Latin lookup 0-1" five nine zero two two
LCarets2: 1 0
EndChar

StartChar: custom_5_9_0_2_3
Encoding: 17979 -1 17734
Width: 70
Flags: H
LayerCount: 2
Fore
SplineSet
9 25 m 1
 7 25 l 1
 7 27 l 1
 9 27 l 1
 9 25 l 1
9 29 m 1
 7 29 l 1
 7 31 l 1
 9 31 l 1
 9 29 l 1
9 33 m 1
 7 33 l 1
 7 35 l 1
 9 35 l 1
 9 33 l 1
9 37 m 1
 7 37 l 1
 7 39 l 1
 9 39 l 1
 9 37 l 1
9 41 m 1
 7 41 l 1
 7 43 l 1
 9 43 l 1
 9 41 l 1
12 25 m 1
 10 25 l 1
 10 27 l 1
 11 27 l 1
 11 26 l 1
 12 26 l 1
 12 25 l 1
14 25 m 1
 13 25 l 1
 13 26 l 1
 12 26 l 1
 12 27 l 1
 14 27 l 1
 14 25 l 1
17 25 m 1
 15 25 l 1
 15 27 l 1
 17 27 l 1
 17 25 l 1
17 29 m 1
 15 29 l 1
 15 31 l 1
 17 31 l 1
 17 29 l 1
23 25 m 1
 21 25 l 1
 21 27 l 1
 23 27 l 1
 23 25 l 1
26 25 m 1
 24 25 l 1
 24 27 l 1
 25 27 l 1
 25 26 l 1
 26 26 l 1
 26 25 l 1
23 29 m 1
 21 29 l 1
 21 31 l 1
 23 31 l 1
 23 29 l 1
17 33 m 1
 15 33 l 1
 15 35 l 1
 17 35 l 1
 17 33 l 1
17 37 m 1
 15 37 l 1
 15 39 l 1
 17 39 l 1
 17 37 l 1
23 33 m 1
 21 33 l 1
 21 35 l 1
 23 35 l 1
 23 33 l 1
23 37 m 1
 21 37 l 1
 21 39 l 1
 23 39 l 1
 23 37 l 1
28 25 m 1
 27 25 l 1
 27 26 l 1
 26 26 l 1
 26 27 l 1
 28 27 l 1
 28 25 l 1
31 25 m 1
 29 25 l 1
 29 27 l 1
 31 27 l 1
 31 25 l 1
31 29 m 1
 29 29 l 1
 29 31 l 1
 31 31 l 1
 31 29 l 1
41 25 m 1
 39 25 l 1
 39 27 l 1
 41 27 l 1
 41 25 l 1
41 29 m 1
 39 29 l 1
 39 31 l 1
 41 31 l 1
 41 29 l 1
31 33 m 1
 29 33 l 1
 29 35 l 1
 31 35 l 1
 31 33 l 1
31 37 m 1
 29 37 l 1
 29 39 l 1
 31 39 l 1
 31 37 l 1
36 31 m 1
 34 31 l 1
 34 33 l 1
 36 33 l 1
 36 31 l 1
41 33 m 1
 39 33 l 1
 39 35 l 1
 41 35 l 1
 41 33 l 1
36 35 m 1
 34 35 l 1
 34 37 l 1
 36 37 l 1
 36 35 l 1
44 25 m 1
 42 25 l 1
 42 27 l 1
 43 27 l 1
 43 26 l 1
 44 26 l 1
 44 25 l 1
46 25 m 1
 45 25 l 1
 45 26 l 1
 44 26 l 1
 44 27 l 1
 46 27 l 1
 46 25 l 1
49 25 m 1
 47 25 l 1
 47 27 l 1
 49 27 l 1
 49 25 l 1
55 25 m 1
 53 25 l 1
 53 27 l 1
 55 27 l 1
 55 25 l 1
58 25 m 1
 56 25 l 1
 56 27 l 1
 57 27 l 1
 57 26 l 1
 58 26 l 1
 58 25 l 1
55 29 m 1
 53 29 l 1
 53 31 l 1
 55 31 l 1
 55 29 l 1
43 33 m 1
 42 33 l 1
 42 35 l 1
 44 35 l 1
 44 34 l 1
 43 34 l 1
 43 33 l 1
46 33 m 1
 44 33 l 1
 44 34 l 1
 45 34 l 1
 45 35 l 1
 46 35 l 1
 46 33 l 1
49 33 m 1
 47 33 l 1
 47 35 l 1
 49 35 l 1
 49 33 l 1
49 37 m 1
 47 37 l 1
 47 39 l 1
 49 39 l 1
 49 37 l 1
55 33 m 1
 53 33 l 1
 53 35 l 1
 55 35 l 1
 55 33 l 1
57 33 m 1
 56 33 l 1
 56 35 l 1
 58 35 l 1
 58 34 l 1
 57 34 l 1
 57 33 l 1
60 25 m 1
 59 25 l 1
 59 26 l 1
 58 26 l 1
 58 27 l 1
 60 27 l 1
 60 25 l 1
63 25 m 1
 61 25 l 1
 61 27 l 1
 63 27 l 1
 63 25 l 1
63 29 m 1
 61 29 l 1
 61 31 l 1
 63 31 l 1
 63 29 l 1
60 33 m 1
 58 33 l 1
 58 34 l 1
 59 34 l 1
 59 35 l 1
 60 35 l 1
 60 33 l 1
63 33 m 1
 61 33 l 1
 61 35 l 1
 63 35 l 1
 63 33 l 1
63 37 m 1
 61 37 l 1
 61 39 l 1
 63 39 l 1
 63 37 l 1
12 41 m 1
 10 41 l 1
 10 43 l 1
 11 43 l 1
 11 42 l 1
 12 42 l 1
 12 41 l 1
14 41 m 1
 13 41 l 1
 13 42 l 1
 12 42 l 1
 12 43 l 1
 14 43 l 1
 14 41 l 1
17 41 m 1
 15 41 l 1
 15 43 l 1
 17 43 l 1
 17 41 l 1
23 41 m 1
 21 41 l 1
 21 43 l 1
 23 43 l 1
 23 41 l 1
26 41 m 1
 24 41 l 1
 24 43 l 1
 25 43 l 1
 25 42 l 1
 26 42 l 1
 26 41 l 1
28 41 m 1
 27 41 l 1
 27 42 l 1
 26 42 l 1
 26 43 l 1
 28 43 l 1
 28 41 l 1
31 41 m 1
 29 41 l 1
 29 43 l 1
 31 43 l 1
 31 41 l 1
41 41 m 1
 39 41 l 1
 39 43 l 1
 41 43 l 1
 41 41 l 1
44 41 m 1
 42 41 l 1
 42 43 l 1
 43 43 l 1
 43 42 l 1
 44 42 l 1
 44 41 l 1
46 41 m 1
 45 41 l 1
 45 42 l 1
 44 42 l 1
 44 43 l 1
 46 43 l 1
 46 41 l 1
49 41 m 1
 47 41 l 1
 47 43 l 1
 49 43 l 1
 49 41 l 1
55 41 m 1
 53 41 l 1
 53 43 l 1
 55 43 l 1
 55 41 l 1
58 41 m 1
 56 41 l 1
 56 43 l 1
 57 43 l 1
 57 42 l 1
 58 42 l 1
 58 41 l 1
60 41 m 1
 59 41 l 1
 59 42 l 1
 58 42 l 1
 58 43 l 1
 60 43 l 1
 60 41 l 1
63 41 m 1
 61 41 l 1
 61 43 l 1
 63 43 l 1
 63 41 l 1
EndSplineSet
Ligature2: "'liga' Standard Ligatures in Latin lookup 0-1" five nine zero two three
LCarets2: 1 0
EndChar

StartChar: custom_5_9_0_2_4
Encoding: 17980 -1 17735
Width: 70
Flags: H
LayerCount: 2
Fore
SplineSet
9 25 m 1
 7 25 l 1
 7 27 l 1
 9 27 l 1
 9 25 l 1
9 29 m 1
 7 29 l 1
 7 31 l 1
 9 31 l 1
 9 29 l 1
9 33 m 1
 7 33 l 1
 7 35 l 1
 9 35 l 1
 9 33 l 1
9 37 m 1
 7 37 l 1
 7 39 l 1
 9 39 l 1
 9 37 l 1
9 41 m 1
 7 41 l 1
 7 43 l 1
 9 43 l 1
 9 41 l 1
12 25 m 1
 10 25 l 1
 10 27 l 1
 11 27 l 1
 11 26 l 1
 12 26 l 1
 12 25 l 1
14 25 m 1
 13 25 l 1
 13 26 l 1
 12 26 l 1
 12 27 l 1
 14 27 l 1
 14 25 l 1
17 25 m 1
 15 25 l 1
 15 27 l 1
 17 27 l 1
 17 25 l 1
17 29 m 1
 15 29 l 1
 15 31 l 1
 17 31 l 1
 17 29 l 1
23 25 m 1
 21 25 l 1
 21 27 l 1
 23 27 l 1
 23 25 l 1
26 25 m 1
 24 25 l 1
 24 27 l 1
 25 27 l 1
 25 26 l 1
 26 26 l 1
 26 25 l 1
23 29 m 1
 21 29 l 1
 21 31 l 1
 23 31 l 1
 23 29 l 1
17 33 m 1
 15 33 l 1
 15 35 l 1
 17 35 l 1
 17 33 l 1
17 37 m 1
 15 37 l 1
 15 39 l 1
 17 39 l 1
 17 37 l 1
23 33 m 1
 21 33 l 1
 21 35 l 1
 23 35 l 1
 23 33 l 1
23 37 m 1
 21 37 l 1
 21 39 l 1
 23 39 l 1
 23 37 l 1
28 25 m 1
 27 25 l 1
 27 26 l 1
 26 26 l 1
 26 27 l 1
 28 27 l 1
 28 25 l 1
31 25 m 1
 29 25 l 1
 29 27 l 1
 31 27 l 1
 31 25 l 1
31 29 m 1
 29 29 l 1
 29 31 l 1
 31 31 l 1
 31 29 l 1
41 25 m 1
 39 25 l 1
 39 27 l 1
 41 27 l 1
 41 25 l 1
41 29 m 1
 39 29 l 1
 39 31 l 1
 41 31 l 1
 41 29 l 1
31 33 m 1
 29 33 l 1
 29 35 l 1
 31 35 l 1
 31 33 l 1
31 37 m 1
 29 37 l 1
 29 39 l 1
 31 39 l 1
 31 37 l 1
36 31 m 1
 34 31 l 1
 34 33 l 1
 36 33 l 1
 36 31 l 1
41 33 m 1
 39 33 l 1
 39 35 l 1
 41 35 l 1
 41 33 l 1
36 35 m 1
 34 35 l 1
 34 37 l 1
 36 37 l 1
 36 35 l 1
44 25 m 1
 42 25 l 1
 42 27 l 1
 43 27 l 1
 43 26 l 1
 44 26 l 1
 44 25 l 1
46 25 m 1
 45 25 l 1
 45 26 l 1
 44 26 l 1
 44 27 l 1
 46 27 l 1
 46 25 l 1
49 25 m 1
 47 25 l 1
 47 27 l 1
 49 27 l 1
 49 25 l 1
55 25 m 1
 53 25 l 1
 53 27 l 1
 55 27 l 1
 55 25 l 1
58 25 m 1
 56 25 l 1
 56 27 l 1
 57 27 l 1
 57 26 l 1
 58 26 l 1
 58 25 l 1
55 29 m 1
 53 29 l 1
 53 31 l 1
 55 31 l 1
 55 29 l 1
43 33 m 1
 42 33 l 1
 42 35 l 1
 44 35 l 1
 44 34 l 1
 43 34 l 1
 43 33 l 1
46 33 m 1
 44 33 l 1
 44 34 l 1
 45 34 l 1
 45 35 l 1
 46 35 l 1
 46 33 l 1
49 33 m 1
 47 33 l 1
 47 35 l 1
 49 35 l 1
 49 33 l 1
49 37 m 1
 47 37 l 1
 47 39 l 1
 49 39 l 1
 49 37 l 1
55 33 m 1
 53 33 l 1
 53 35 l 1
 55 35 l 1
 55 33 l 1
57 33 m 1
 56 33 l 1
 56 35 l 1
 58 35 l 1
 58 34 l 1
 57 34 l 1
 57 33 l 1
60 25 m 1
 59 25 l 1
 59 26 l 1
 58 26 l 1
 58 27 l 1
 60 27 l 1
 60 25 l 1
63 25 m 1
 61 25 l 1
 61 27 l 1
 63 27 l 1
 63 25 l 1
63 29 m 1
 61 29 l 1
 61 31 l 1
 63 31 l 1
 63 29 l 1
60 33 m 1
 58 33 l 1
 58 34 l 1
 59 34 l 1
 59 35 l 1
 60 35 l 1
 60 33 l 1
63 33 m 1
 61 33 l 1
 61 35 l 1
 63 35 l 1
 63 33 l 1
63 37 m 1
 61 37 l 1
 61 39 l 1
 63 39 l 1
 63 37 l 1
12 41 m 1
 10 41 l 1
 10 43 l 1
 11 43 l 1
 11 42 l 1
 12 42 l 1
 12 41 l 1
14 41 m 1
 13 41 l 1
 13 42 l 1
 12 42 l 1
 12 43 l 1
 14 43 l 1
 14 41 l 1
17 41 m 1
 15 41 l 1
 15 43 l 1
 17 43 l 1
 17 41 l 1
23 41 m 1
 21 41 l 1
 21 43 l 1
 23 43 l 1
 23 41 l 1
26 41 m 1
 24 41 l 1
 24 43 l 1
 25 43 l 1
 25 42 l 1
 26 42 l 1
 26 41 l 1
28 41 m 1
 27 41 l 1
 27 42 l 1
 26 42 l 1
 26 43 l 1
 28 43 l 1
 28 41 l 1
31 41 m 1
 29 41 l 1
 29 43 l 1
 31 43 l 1
 31 41 l 1
41 41 m 1
 39 41 l 1
 39 43 l 1
 41 43 l 1
 41 41 l 1
44 41 m 1
 42 41 l 1
 42 43 l 1
 43 43 l 1
 43 42 l 1
 44 42 l 1
 44 41 l 1
46 41 m 1
 45 41 l 1
 45 42 l 1
 44 42 l 1
 44 43 l 1
 46 43 l 1
 46 41 l 1
49 41 m 1
 47 41 l 1
 47 43 l 1
 49 43 l 1
 49 41 l 1
55 41 m 1
 53 41 l 1
 53 43 l 1
 55 43 l 1
 55 41 l 1
58 41 m 1
 56 41 l 1
 56 43 l 1
 57 43 l 1
 57 42 l 1
 58 42 l 1
 58 41 l 1
60 41 m 1
 59 41 l 1
 59 42 l 1
 58 42 l 1
 58 43 l 1
 60 43 l 1
 60 41 l 1
63 41 m 1
 61 41 l 1
 61 43 l 1
 63 43 l 1
 63 41 l 1
EndSplineSet
Ligature2: "'liga' Standard Ligatures in Latin lookup 0-1" five nine zero two four
LCarets2: 1 0
EndChar

StartChar: custom_5_9_0_2_5
Encoding: 17981 -1 17736
Width: 70
Flags: H
LayerCount: 2
Fore
SplineSet
9 25 m 1
 7 25 l 1
 7 27 l 1
 9 27 l 1
 9 25 l 1
9 29 m 1
 7 29 l 1
 7 31 l 1
 9 31 l 1
 9 29 l 1
9 33 m 1
 7 33 l 1
 7 35 l 1
 9 35 l 1
 9 33 l 1
9 37 m 1
 7 37 l 1
 7 39 l 1
 9 39 l 1
 9 37 l 1
9 41 m 1
 7 41 l 1
 7 43 l 1
 9 43 l 1
 9 41 l 1
12 25 m 1
 10 25 l 1
 10 27 l 1
 11 27 l 1
 11 26 l 1
 12 26 l 1
 12 25 l 1
14 25 m 1
 13 25 l 1
 13 26 l 1
 12 26 l 1
 12 27 l 1
 14 27 l 1
 14 25 l 1
17 25 m 1
 15 25 l 1
 15 27 l 1
 17 27 l 1
 17 25 l 1
17 29 m 1
 15 29 l 1
 15 31 l 1
 17 31 l 1
 17 29 l 1
23 25 m 1
 21 25 l 1
 21 27 l 1
 23 27 l 1
 23 25 l 1
26 25 m 1
 24 25 l 1
 24 27 l 1
 25 27 l 1
 25 26 l 1
 26 26 l 1
 26 25 l 1
23 29 m 1
 21 29 l 1
 21 31 l 1
 23 31 l 1
 23 29 l 1
17 33 m 1
 15 33 l 1
 15 35 l 1
 17 35 l 1
 17 33 l 1
17 37 m 1
 15 37 l 1
 15 39 l 1
 17 39 l 1
 17 37 l 1
23 33 m 1
 21 33 l 1
 21 35 l 1
 23 35 l 1
 23 33 l 1
23 37 m 1
 21 37 l 1
 21 39 l 1
 23 39 l 1
 23 37 l 1
28 25 m 1
 27 25 l 1
 27 26 l 1
 26 26 l 1
 26 27 l 1
 28 27 l 1
 28 25 l 1
31 25 m 1
 29 25 l 1
 29 27 l 1
 31 27 l 1
 31 25 l 1
31 29 m 1
 29 29 l 1
 29 31 l 1
 31 31 l 1
 31 29 l 1
41 25 m 1
 39 25 l 1
 39 27 l 1
 41 27 l 1
 41 25 l 1
41 29 m 1
 39 29 l 1
 39 31 l 1
 41 31 l 1
 41 29 l 1
31 33 m 1
 29 33 l 1
 29 35 l 1
 31 35 l 1
 31 33 l 1
31 37 m 1
 29 37 l 1
 29 39 l 1
 31 39 l 1
 31 37 l 1
36 31 m 1
 34 31 l 1
 34 33 l 1
 36 33 l 1
 36 31 l 1
41 33 m 1
 39 33 l 1
 39 35 l 1
 41 35 l 1
 41 33 l 1
36 35 m 1
 34 35 l 1
 34 37 l 1
 36 37 l 1
 36 35 l 1
44 25 m 1
 42 25 l 1
 42 27 l 1
 43 27 l 1
 43 26 l 1
 44 26 l 1
 44 25 l 1
46 25 m 1
 45 25 l 1
 45 26 l 1
 44 26 l 1
 44 27 l 1
 46 27 l 1
 46 25 l 1
49 25 m 1
 47 25 l 1
 47 27 l 1
 49 27 l 1
 49 25 l 1
55 25 m 1
 53 25 l 1
 53 27 l 1
 55 27 l 1
 55 25 l 1
58 25 m 1
 56 25 l 1
 56 27 l 1
 57 27 l 1
 57 26 l 1
 58 26 l 1
 58 25 l 1
55 29 m 1
 53 29 l 1
 53 31 l 1
 55 31 l 1
 55 29 l 1
43 33 m 1
 42 33 l 1
 42 35 l 1
 44 35 l 1
 44 34 l 1
 43 34 l 1
 43 33 l 1
46 33 m 1
 44 33 l 1
 44 34 l 1
 45 34 l 1
 45 35 l 1
 46 35 l 1
 46 33 l 1
49 33 m 1
 47 33 l 1
 47 35 l 1
 49 35 l 1
 49 33 l 1
49 37 m 1
 47 37 l 1
 47 39 l 1
 49 39 l 1
 49 37 l 1
55 33 m 1
 53 33 l 1
 53 35 l 1
 55 35 l 1
 55 33 l 1
57 33 m 1
 56 33 l 1
 56 35 l 1
 58 35 l 1
 58 34 l 1
 57 34 l 1
 57 33 l 1
60 25 m 1
 59 25 l 1
 59 26 l 1
 58 26 l 1
 58 27 l 1
 60 27 l 1
 60 25 l 1
63 25 m 1
 61 25 l 1
 61 27 l 1
 63 27 l 1
 63 25 l 1
63 29 m 1
 61 29 l 1
 61 31 l 1
 63 31 l 1
 63 29 l 1
60 33 m 1
 58 33 l 1
 58 34 l 1
 59 34 l 1
 59 35 l 1
 60 35 l 1
 60 33 l 1
63 33 m 1
 61 33 l 1
 61 35 l 1
 63 35 l 1
 63 33 l 1
63 37 m 1
 61 37 l 1
 61 39 l 1
 63 39 l 1
 63 37 l 1
12 41 m 1
 10 41 l 1
 10 43 l 1
 11 43 l 1
 11 42 l 1
 12 42 l 1
 12 41 l 1
14 41 m 1
 13 41 l 1
 13 42 l 1
 12 42 l 1
 12 43 l 1
 14 43 l 1
 14 41 l 1
17 41 m 1
 15 41 l 1
 15 43 l 1
 17 43 l 1
 17 41 l 1
23 41 m 1
 21 41 l 1
 21 43 l 1
 23 43 l 1
 23 41 l 1
26 41 m 1
 24 41 l 1
 24 43 l 1
 25 43 l 1
 25 42 l 1
 26 42 l 1
 26 41 l 1
28 41 m 1
 27 41 l 1
 27 42 l 1
 26 42 l 1
 26 43 l 1
 28 43 l 1
 28 41 l 1
31 41 m 1
 29 41 l 1
 29 43 l 1
 31 43 l 1
 31 41 l 1
41 41 m 1
 39 41 l 1
 39 43 l 1
 41 43 l 1
 41 41 l 1
44 41 m 1
 42 41 l 1
 42 43 l 1
 43 43 l 1
 43 42 l 1
 44 42 l 1
 44 41 l 1
46 41 m 1
 45 41 l 1
 45 42 l 1
 44 42 l 1
 44 43 l 1
 46 43 l 1
 46 41 l 1
49 41 m 1
 47 41 l 1
 47 43 l 1
 49 43 l 1
 49 41 l 1
55 41 m 1
 53 41 l 1
 53 43 l 1
 55 43 l 1
 55 41 l 1
58 41 m 1
 56 41 l 1
 56 43 l 1
 57 43 l 1
 57 42 l 1
 58 42 l 1
 58 41 l 1
60 41 m 1
 59 41 l 1
 59 42 l 1
 58 42 l 1
 58 43 l 1
 60 43 l 1
 60 41 l 1
63 41 m 1
 61 41 l 1
 61 43 l 1
 63 43 l 1
 63 41 l 1
EndSplineSet
Ligature2: "'liga' Standard Ligatures in Latin lookup 0-1" five nine zero two five
LCarets2: 1 0
EndChar

StartChar: custom_5_9_0_2_6
Encoding: 17982 -1 17737
Width: 70
Flags: H
LayerCount: 2
Fore
SplineSet
9 25 m 1
 7 25 l 1
 7 27 l 1
 9 27 l 1
 9 25 l 1
9 29 m 1
 7 29 l 1
 7 31 l 1
 9 31 l 1
 9 29 l 1
9 33 m 1
 7 33 l 1
 7 35 l 1
 9 35 l 1
 9 33 l 1
9 37 m 1
 7 37 l 1
 7 39 l 1
 9 39 l 1
 9 37 l 1
9 41 m 1
 7 41 l 1
 7 43 l 1
 9 43 l 1
 9 41 l 1
12 25 m 1
 10 25 l 1
 10 27 l 1
 11 27 l 1
 11 26 l 1
 12 26 l 1
 12 25 l 1
14 25 m 1
 13 25 l 1
 13 26 l 1
 12 26 l 1
 12 27 l 1
 14 27 l 1
 14 25 l 1
17 25 m 1
 15 25 l 1
 15 27 l 1
 17 27 l 1
 17 25 l 1
17 29 m 1
 15 29 l 1
 15 31 l 1
 17 31 l 1
 17 29 l 1
23 25 m 1
 21 25 l 1
 21 27 l 1
 23 27 l 1
 23 25 l 1
26 25 m 1
 24 25 l 1
 24 27 l 1
 25 27 l 1
 25 26 l 1
 26 26 l 1
 26 25 l 1
23 29 m 1
 21 29 l 1
 21 31 l 1
 23 31 l 1
 23 29 l 1
17 33 m 1
 15 33 l 1
 15 35 l 1
 17 35 l 1
 17 33 l 1
17 37 m 1
 15 37 l 1
 15 39 l 1
 17 39 l 1
 17 37 l 1
23 33 m 1
 21 33 l 1
 21 35 l 1
 23 35 l 1
 23 33 l 1
23 37 m 1
 21 37 l 1
 21 39 l 1
 23 39 l 1
 23 37 l 1
28 25 m 1
 27 25 l 1
 27 26 l 1
 26 26 l 1
 26 27 l 1
 28 27 l 1
 28 25 l 1
31 25 m 1
 29 25 l 1
 29 27 l 1
 31 27 l 1
 31 25 l 1
31 29 m 1
 29 29 l 1
 29 31 l 1
 31 31 l 1
 31 29 l 1
41 25 m 1
 39 25 l 1
 39 27 l 1
 41 27 l 1
 41 25 l 1
41 29 m 1
 39 29 l 1
 39 31 l 1
 41 31 l 1
 41 29 l 1
31 33 m 1
 29 33 l 1
 29 35 l 1
 31 35 l 1
 31 33 l 1
31 37 m 1
 29 37 l 1
 29 39 l 1
 31 39 l 1
 31 37 l 1
36 31 m 1
 34 31 l 1
 34 33 l 1
 36 33 l 1
 36 31 l 1
41 33 m 1
 39 33 l 1
 39 35 l 1
 41 35 l 1
 41 33 l 1
36 35 m 1
 34 35 l 1
 34 37 l 1
 36 37 l 1
 36 35 l 1
44 25 m 1
 42 25 l 1
 42 27 l 1
 43 27 l 1
 43 26 l 1
 44 26 l 1
 44 25 l 1
46 25 m 1
 45 25 l 1
 45 26 l 1
 44 26 l 1
 44 27 l 1
 46 27 l 1
 46 25 l 1
49 25 m 1
 47 25 l 1
 47 27 l 1
 49 27 l 1
 49 25 l 1
55 25 m 1
 53 25 l 1
 53 27 l 1
 55 27 l 1
 55 25 l 1
58 25 m 1
 56 25 l 1
 56 27 l 1
 57 27 l 1
 57 26 l 1
 58 26 l 1
 58 25 l 1
55 29 m 1
 53 29 l 1
 53 31 l 1
 55 31 l 1
 55 29 l 1
43 33 m 1
 42 33 l 1
 42 35 l 1
 44 35 l 1
 44 34 l 1
 43 34 l 1
 43 33 l 1
46 33 m 1
 44 33 l 1
 44 34 l 1
 45 34 l 1
 45 35 l 1
 46 35 l 1
 46 33 l 1
49 33 m 1
 47 33 l 1
 47 35 l 1
 49 35 l 1
 49 33 l 1
49 37 m 1
 47 37 l 1
 47 39 l 1
 49 39 l 1
 49 37 l 1
55 33 m 1
 53 33 l 1
 53 35 l 1
 55 35 l 1
 55 33 l 1
57 33 m 1
 56 33 l 1
 56 35 l 1
 58 35 l 1
 58 34 l 1
 57 34 l 1
 57 33 l 1
60 25 m 1
 59 25 l 1
 59 26 l 1
 58 26 l 1
 58 27 l 1
 60 27 l 1
 60 25 l 1
63 25 m 1
 61 25 l 1
 61 27 l 1
 63 27 l 1
 63 25 l 1
63 29 m 1
 61 29 l 1
 61 31 l 1
 63 31 l 1
 63 29 l 1
60 33 m 1
 58 33 l 1
 58 34 l 1
 59 34 l 1
 59 35 l 1
 60 35 l 1
 60 33 l 1
63 33 m 1
 61 33 l 1
 61 35 l 1
 63 35 l 1
 63 33 l 1
63 37 m 1
 61 37 l 1
 61 39 l 1
 63 39 l 1
 63 37 l 1
12 41 m 1
 10 41 l 1
 10 43 l 1
 11 43 l 1
 11 42 l 1
 12 42 l 1
 12 41 l 1
14 41 m 1
 13 41 l 1
 13 42 l 1
 12 42 l 1
 12 43 l 1
 14 43 l 1
 14 41 l 1
17 41 m 1
 15 41 l 1
 15 43 l 1
 17 43 l 1
 17 41 l 1
23 41 m 1
 21 41 l 1
 21 43 l 1
 23 43 l 1
 23 41 l 1
26 41 m 1
 24 41 l 1
 24 43 l 1
 25 43 l 1
 25 42 l 1
 26 42 l 1
 26 41 l 1
28 41 m 1
 27 41 l 1
 27 42 l 1
 26 42 l 1
 26 43 l 1
 28 43 l 1
 28 41 l 1
31 41 m 1
 29 41 l 1
 29 43 l 1
 31 43 l 1
 31 41 l 1
41 41 m 1
 39 41 l 1
 39 43 l 1
 41 43 l 1
 41 41 l 1
44 41 m 1
 42 41 l 1
 42 43 l 1
 43 43 l 1
 43 42 l 1
 44 42 l 1
 44 41 l 1
46 41 m 1
 45 41 l 1
 45 42 l 1
 44 42 l 1
 44 43 l 1
 46 43 l 1
 46 41 l 1
49 41 m 1
 47 41 l 1
 47 43 l 1
 49 43 l 1
 49 41 l 1
55 41 m 1
 53 41 l 1
 53 43 l 1
 55 43 l 1
 55 41 l 1
58 41 m 1
 56 41 l 1
 56 43 l 1
 57 43 l 1
 57 42 l 1
 58 42 l 1
 58 41 l 1
60 41 m 1
 59 41 l 1
 59 42 l 1
 58 42 l 1
 58 43 l 1
 60 43 l 1
 60 41 l 1
63 41 m 1
 61 41 l 1
 61 43 l 1
 63 43 l 1
 63 41 l 1
EndSplineSet
Ligature2: "'liga' Standard Ligatures in Latin lookup 0-1" five nine zero two six
LCarets2: 1 0
EndChar

StartChar: custom_5_9_0_2_7
Encoding: 17983 -1 17738
Width: 70
Flags: H
LayerCount: 2
Fore
SplineSet
9 25 m 1
 7 25 l 1
 7 27 l 1
 9 27 l 1
 9 25 l 1
9 29 m 1
 7 29 l 1
 7 31 l 1
 9 31 l 1
 9 29 l 1
9 33 m 1
 7 33 l 1
 7 35 l 1
 9 35 l 1
 9 33 l 1
9 37 m 1
 7 37 l 1
 7 39 l 1
 9 39 l 1
 9 37 l 1
9 41 m 1
 7 41 l 1
 7 43 l 1
 9 43 l 1
 9 41 l 1
12 25 m 1
 10 25 l 1
 10 27 l 1
 11 27 l 1
 11 26 l 1
 12 26 l 1
 12 25 l 1
14 25 m 1
 13 25 l 1
 13 26 l 1
 12 26 l 1
 12 27 l 1
 14 27 l 1
 14 25 l 1
17 25 m 1
 15 25 l 1
 15 27 l 1
 17 27 l 1
 17 25 l 1
17 29 m 1
 15 29 l 1
 15 31 l 1
 17 31 l 1
 17 29 l 1
23 25 m 1
 21 25 l 1
 21 27 l 1
 23 27 l 1
 23 25 l 1
26 25 m 1
 24 25 l 1
 24 27 l 1
 25 27 l 1
 25 26 l 1
 26 26 l 1
 26 25 l 1
23 29 m 1
 21 29 l 1
 21 31 l 1
 23 31 l 1
 23 29 l 1
17 33 m 1
 15 33 l 1
 15 35 l 1
 17 35 l 1
 17 33 l 1
17 37 m 1
 15 37 l 1
 15 39 l 1
 17 39 l 1
 17 37 l 1
23 33 m 1
 21 33 l 1
 21 35 l 1
 23 35 l 1
 23 33 l 1
23 37 m 1
 21 37 l 1
 21 39 l 1
 23 39 l 1
 23 37 l 1
28 25 m 1
 27 25 l 1
 27 26 l 1
 26 26 l 1
 26 27 l 1
 28 27 l 1
 28 25 l 1
31 25 m 1
 29 25 l 1
 29 27 l 1
 31 27 l 1
 31 25 l 1
31 29 m 1
 29 29 l 1
 29 31 l 1
 31 31 l 1
 31 29 l 1
41 25 m 1
 39 25 l 1
 39 27 l 1
 41 27 l 1
 41 25 l 1
41 29 m 1
 39 29 l 1
 39 31 l 1
 41 31 l 1
 41 29 l 1
31 33 m 1
 29 33 l 1
 29 35 l 1
 31 35 l 1
 31 33 l 1
31 37 m 1
 29 37 l 1
 29 39 l 1
 31 39 l 1
 31 37 l 1
36 31 m 1
 34 31 l 1
 34 33 l 1
 36 33 l 1
 36 31 l 1
41 33 m 1
 39 33 l 1
 39 35 l 1
 41 35 l 1
 41 33 l 1
36 35 m 1
 34 35 l 1
 34 37 l 1
 36 37 l 1
 36 35 l 1
44 25 m 1
 42 25 l 1
 42 27 l 1
 43 27 l 1
 43 26 l 1
 44 26 l 1
 44 25 l 1
46 25 m 1
 45 25 l 1
 45 26 l 1
 44 26 l 1
 44 27 l 1
 46 27 l 1
 46 25 l 1
49 25 m 1
 47 25 l 1
 47 27 l 1
 49 27 l 1
 49 25 l 1
55 25 m 1
 53 25 l 1
 53 27 l 1
 55 27 l 1
 55 25 l 1
58 25 m 1
 56 25 l 1
 56 27 l 1
 57 27 l 1
 57 26 l 1
 58 26 l 1
 58 25 l 1
55 29 m 1
 53 29 l 1
 53 31 l 1
 55 31 l 1
 55 29 l 1
43 33 m 1
 42 33 l 1
 42 35 l 1
 44 35 l 1
 44 34 l 1
 43 34 l 1
 43 33 l 1
46 33 m 1
 44 33 l 1
 44 34 l 1
 45 34 l 1
 45 35 l 1
 46 35 l 1
 46 33 l 1
49 33 m 1
 47 33 l 1
 47 35 l 1
 49 35 l 1
 49 33 l 1
49 37 m 1
 47 37 l 1
 47 39 l 1
 49 39 l 1
 49 37 l 1
55 33 m 1
 53 33 l 1
 53 35 l 1
 55 35 l 1
 55 33 l 1
57 33 m 1
 56 33 l 1
 56 35 l 1
 58 35 l 1
 58 34 l 1
 57 34 l 1
 57 33 l 1
60 25 m 1
 59 25 l 1
 59 26 l 1
 58 26 l 1
 58 27 l 1
 60 27 l 1
 60 25 l 1
63 25 m 1
 61 25 l 1
 61 27 l 1
 63 27 l 1
 63 25 l 1
63 29 m 1
 61 29 l 1
 61 31 l 1
 63 31 l 1
 63 29 l 1
60 33 m 1
 58 33 l 1
 58 34 l 1
 59 34 l 1
 59 35 l 1
 60 35 l 1
 60 33 l 1
63 33 m 1
 61 33 l 1
 61 35 l 1
 63 35 l 1
 63 33 l 1
63 37 m 1
 61 37 l 1
 61 39 l 1
 63 39 l 1
 63 37 l 1
12 41 m 1
 10 41 l 1
 10 43 l 1
 11 43 l 1
 11 42 l 1
 12 42 l 1
 12 41 l 1
14 41 m 1
 13 41 l 1
 13 42 l 1
 12 42 l 1
 12 43 l 1
 14 43 l 1
 14 41 l 1
17 41 m 1
 15 41 l 1
 15 43 l 1
 17 43 l 1
 17 41 l 1
23 41 m 1
 21 41 l 1
 21 43 l 1
 23 43 l 1
 23 41 l 1
26 41 m 1
 24 41 l 1
 24 43 l 1
 25 43 l 1
 25 42 l 1
 26 42 l 1
 26 41 l 1
28 41 m 1
 27 41 l 1
 27 42 l 1
 26 42 l 1
 26 43 l 1
 28 43 l 1
 28 41 l 1
31 41 m 1
 29 41 l 1
 29 43 l 1
 31 43 l 1
 31 41 l 1
41 41 m 1
 39 41 l 1
 39 43 l 1
 41 43 l 1
 41 41 l 1
44 41 m 1
 42 41 l 1
 42 43 l 1
 43 43 l 1
 43 42 l 1
 44 42 l 1
 44 41 l 1
46 41 m 1
 45 41 l 1
 45 42 l 1
 44 42 l 1
 44 43 l 1
 46 43 l 1
 46 41 l 1
49 41 m 1
 47 41 l 1
 47 43 l 1
 49 43 l 1
 49 41 l 1
55 41 m 1
 53 41 l 1
 53 43 l 1
 55 43 l 1
 55 41 l 1
58 41 m 1
 56 41 l 1
 56 43 l 1
 57 43 l 1
 57 42 l 1
 58 42 l 1
 58 41 l 1
60 41 m 1
 59 41 l 1
 59 42 l 1
 58 42 l 1
 58 43 l 1
 60 43 l 1
 60 41 l 1
63 41 m 1
 61 41 l 1
 61 43 l 1
 63 43 l 1
 63 41 l 1
EndSplineSet
Ligature2: "'liga' Standard Ligatures in Latin lookup 0-1" five nine zero two seven
LCarets2: 1 0
EndChar

StartChar: custom_5_9_0_2_8
Encoding: 17984 -1 17739
Width: 70
Flags: H
LayerCount: 2
Fore
SplineSet
9 25 m 1
 7 25 l 1
 7 27 l 1
 9 27 l 1
 9 25 l 1
9 29 m 1
 7 29 l 1
 7 31 l 1
 9 31 l 1
 9 29 l 1
9 33 m 1
 7 33 l 1
 7 35 l 1
 9 35 l 1
 9 33 l 1
9 37 m 1
 7 37 l 1
 7 39 l 1
 9 39 l 1
 9 37 l 1
9 41 m 1
 7 41 l 1
 7 43 l 1
 9 43 l 1
 9 41 l 1
12 25 m 1
 10 25 l 1
 10 27 l 1
 11 27 l 1
 11 26 l 1
 12 26 l 1
 12 25 l 1
14 25 m 1
 13 25 l 1
 13 26 l 1
 12 26 l 1
 12 27 l 1
 14 27 l 1
 14 25 l 1
17 25 m 1
 15 25 l 1
 15 27 l 1
 17 27 l 1
 17 25 l 1
17 29 m 1
 15 29 l 1
 15 31 l 1
 17 31 l 1
 17 29 l 1
23 25 m 1
 21 25 l 1
 21 27 l 1
 23 27 l 1
 23 25 l 1
26 25 m 1
 24 25 l 1
 24 27 l 1
 25 27 l 1
 25 26 l 1
 26 26 l 1
 26 25 l 1
23 29 m 1
 21 29 l 1
 21 31 l 1
 23 31 l 1
 23 29 l 1
17 33 m 1
 15 33 l 1
 15 35 l 1
 17 35 l 1
 17 33 l 1
17 37 m 1
 15 37 l 1
 15 39 l 1
 17 39 l 1
 17 37 l 1
23 33 m 1
 21 33 l 1
 21 35 l 1
 23 35 l 1
 23 33 l 1
23 37 m 1
 21 37 l 1
 21 39 l 1
 23 39 l 1
 23 37 l 1
28 25 m 1
 27 25 l 1
 27 26 l 1
 26 26 l 1
 26 27 l 1
 28 27 l 1
 28 25 l 1
31 25 m 1
 29 25 l 1
 29 27 l 1
 31 27 l 1
 31 25 l 1
31 29 m 1
 29 29 l 1
 29 31 l 1
 31 31 l 1
 31 29 l 1
41 25 m 1
 39 25 l 1
 39 27 l 1
 41 27 l 1
 41 25 l 1
41 29 m 1
 39 29 l 1
 39 31 l 1
 41 31 l 1
 41 29 l 1
31 33 m 1
 29 33 l 1
 29 35 l 1
 31 35 l 1
 31 33 l 1
31 37 m 1
 29 37 l 1
 29 39 l 1
 31 39 l 1
 31 37 l 1
36 31 m 1
 34 31 l 1
 34 33 l 1
 36 33 l 1
 36 31 l 1
41 33 m 1
 39 33 l 1
 39 35 l 1
 41 35 l 1
 41 33 l 1
36 35 m 1
 34 35 l 1
 34 37 l 1
 36 37 l 1
 36 35 l 1
44 25 m 1
 42 25 l 1
 42 27 l 1
 43 27 l 1
 43 26 l 1
 44 26 l 1
 44 25 l 1
46 25 m 1
 45 25 l 1
 45 26 l 1
 44 26 l 1
 44 27 l 1
 46 27 l 1
 46 25 l 1
49 25 m 1
 47 25 l 1
 47 27 l 1
 49 27 l 1
 49 25 l 1
55 25 m 1
 53 25 l 1
 53 27 l 1
 55 27 l 1
 55 25 l 1
58 25 m 1
 56 25 l 1
 56 27 l 1
 57 27 l 1
 57 26 l 1
 58 26 l 1
 58 25 l 1
55 29 m 1
 53 29 l 1
 53 31 l 1
 55 31 l 1
 55 29 l 1
43 33 m 1
 42 33 l 1
 42 35 l 1
 44 35 l 1
 44 34 l 1
 43 34 l 1
 43 33 l 1
46 33 m 1
 44 33 l 1
 44 34 l 1
 45 34 l 1
 45 35 l 1
 46 35 l 1
 46 33 l 1
49 33 m 1
 47 33 l 1
 47 35 l 1
 49 35 l 1
 49 33 l 1
49 37 m 1
 47 37 l 1
 47 39 l 1
 49 39 l 1
 49 37 l 1
55 33 m 1
 53 33 l 1
 53 35 l 1
 55 35 l 1
 55 33 l 1
57 33 m 1
 56 33 l 1
 56 35 l 1
 58 35 l 1
 58 34 l 1
 57 34 l 1
 57 33 l 1
60 25 m 1
 59 25 l 1
 59 26 l 1
 58 26 l 1
 58 27 l 1
 60 27 l 1
 60 25 l 1
63 25 m 1
 61 25 l 1
 61 27 l 1
 63 27 l 1
 63 25 l 1
63 29 m 1
 61 29 l 1
 61 31 l 1
 63 31 l 1
 63 29 l 1
60 33 m 1
 58 33 l 1
 58 34 l 1
 59 34 l 1
 59 35 l 1
 60 35 l 1
 60 33 l 1
63 33 m 1
 61 33 l 1
 61 35 l 1
 63 35 l 1
 63 33 l 1
63 37 m 1
 61 37 l 1
 61 39 l 1
 63 39 l 1
 63 37 l 1
12 41 m 1
 10 41 l 1
 10 43 l 1
 11 43 l 1
 11 42 l 1
 12 42 l 1
 12 41 l 1
14 41 m 1
 13 41 l 1
 13 42 l 1
 12 42 l 1
 12 43 l 1
 14 43 l 1
 14 41 l 1
17 41 m 1
 15 41 l 1
 15 43 l 1
 17 43 l 1
 17 41 l 1
23 41 m 1
 21 41 l 1
 21 43 l 1
 23 43 l 1
 23 41 l 1
26 41 m 1
 24 41 l 1
 24 43 l 1
 25 43 l 1
 25 42 l 1
 26 42 l 1
 26 41 l 1
28 41 m 1
 27 41 l 1
 27 42 l 1
 26 42 l 1
 26 43 l 1
 28 43 l 1
 28 41 l 1
31 41 m 1
 29 41 l 1
 29 43 l 1
 31 43 l 1
 31 41 l 1
41 41 m 1
 39 41 l 1
 39 43 l 1
 41 43 l 1
 41 41 l 1
44 41 m 1
 42 41 l 1
 42 43 l 1
 43 43 l 1
 43 42 l 1
 44 42 l 1
 44 41 l 1
46 41 m 1
 45 41 l 1
 45 42 l 1
 44 42 l 1
 44 43 l 1
 46 43 l 1
 46 41 l 1
49 41 m 1
 47 41 l 1
 47 43 l 1
 49 43 l 1
 49 41 l 1
55 41 m 1
 53 41 l 1
 53 43 l 1
 55 43 l 1
 55 41 l 1
58 41 m 1
 56 41 l 1
 56 43 l 1
 57 43 l 1
 57 42 l 1
 58 42 l 1
 58 41 l 1
60 41 m 1
 59 41 l 1
 59 42 l 1
 58 42 l 1
 58 43 l 1
 60 43 l 1
 60 41 l 1
63 41 m 1
 61 41 l 1
 61 43 l 1
 63 43 l 1
 63 41 l 1
EndSplineSet
Ligature2: "'liga' Standard Ligatures in Latin lookup 0-1" five nine zero two eight
LCarets2: 1 0
EndChar

StartChar: custom_5_9_0_2_9
Encoding: 17985 -1 17740
Width: 70
Flags: H
LayerCount: 2
Fore
SplineSet
9 25 m 1
 7 25 l 1
 7 27 l 1
 9 27 l 1
 9 25 l 1
9 29 m 1
 7 29 l 1
 7 31 l 1
 9 31 l 1
 9 29 l 1
9 33 m 1
 7 33 l 1
 7 35 l 1
 9 35 l 1
 9 33 l 1
9 37 m 1
 7 37 l 1
 7 39 l 1
 9 39 l 1
 9 37 l 1
9 41 m 1
 7 41 l 1
 7 43 l 1
 9 43 l 1
 9 41 l 1
12 25 m 1
 10 25 l 1
 10 27 l 1
 11 27 l 1
 11 26 l 1
 12 26 l 1
 12 25 l 1
14 25 m 1
 13 25 l 1
 13 26 l 1
 12 26 l 1
 12 27 l 1
 14 27 l 1
 14 25 l 1
17 25 m 1
 15 25 l 1
 15 27 l 1
 17 27 l 1
 17 25 l 1
17 29 m 1
 15 29 l 1
 15 31 l 1
 17 31 l 1
 17 29 l 1
23 25 m 1
 21 25 l 1
 21 27 l 1
 23 27 l 1
 23 25 l 1
26 25 m 1
 24 25 l 1
 24 27 l 1
 25 27 l 1
 25 26 l 1
 26 26 l 1
 26 25 l 1
23 29 m 1
 21 29 l 1
 21 31 l 1
 23 31 l 1
 23 29 l 1
17 33 m 1
 15 33 l 1
 15 35 l 1
 17 35 l 1
 17 33 l 1
17 37 m 1
 15 37 l 1
 15 39 l 1
 17 39 l 1
 17 37 l 1
23 33 m 1
 21 33 l 1
 21 35 l 1
 23 35 l 1
 23 33 l 1
23 37 m 1
 21 37 l 1
 21 39 l 1
 23 39 l 1
 23 37 l 1
28 25 m 1
 27 25 l 1
 27 26 l 1
 26 26 l 1
 26 27 l 1
 28 27 l 1
 28 25 l 1
31 25 m 1
 29 25 l 1
 29 27 l 1
 31 27 l 1
 31 25 l 1
31 29 m 1
 29 29 l 1
 29 31 l 1
 31 31 l 1
 31 29 l 1
41 25 m 1
 39 25 l 1
 39 27 l 1
 41 27 l 1
 41 25 l 1
41 29 m 1
 39 29 l 1
 39 31 l 1
 41 31 l 1
 41 29 l 1
31 33 m 1
 29 33 l 1
 29 35 l 1
 31 35 l 1
 31 33 l 1
31 37 m 1
 29 37 l 1
 29 39 l 1
 31 39 l 1
 31 37 l 1
36 31 m 1
 34 31 l 1
 34 33 l 1
 36 33 l 1
 36 31 l 1
41 33 m 1
 39 33 l 1
 39 35 l 1
 41 35 l 1
 41 33 l 1
36 35 m 1
 34 35 l 1
 34 37 l 1
 36 37 l 1
 36 35 l 1
44 25 m 1
 42 25 l 1
 42 27 l 1
 43 27 l 1
 43 26 l 1
 44 26 l 1
 44 25 l 1
46 25 m 1
 45 25 l 1
 45 26 l 1
 44 26 l 1
 44 27 l 1
 46 27 l 1
 46 25 l 1
49 25 m 1
 47 25 l 1
 47 27 l 1
 49 27 l 1
 49 25 l 1
55 25 m 1
 53 25 l 1
 53 27 l 1
 55 27 l 1
 55 25 l 1
58 25 m 1
 56 25 l 1
 56 27 l 1
 57 27 l 1
 57 26 l 1
 58 26 l 1
 58 25 l 1
55 29 m 1
 53 29 l 1
 53 31 l 1
 55 31 l 1
 55 29 l 1
43 33 m 1
 42 33 l 1
 42 35 l 1
 44 35 l 1
 44 34 l 1
 43 34 l 1
 43 33 l 1
46 33 m 1
 44 33 l 1
 44 34 l 1
 45 34 l 1
 45 35 l 1
 46 35 l 1
 46 33 l 1
49 33 m 1
 47 33 l 1
 47 35 l 1
 49 35 l 1
 49 33 l 1
49 37 m 1
 47 37 l 1
 47 39 l 1
 49 39 l 1
 49 37 l 1
55 33 m 1
 53 33 l 1
 53 35 l 1
 55 35 l 1
 55 33 l 1
57 33 m 1
 56 33 l 1
 56 35 l 1
 58 35 l 1
 58 34 l 1
 57 34 l 1
 57 33 l 1
60 25 m 1
 59 25 l 1
 59 26 l 1
 58 26 l 1
 58 27 l 1
 60 27 l 1
 60 25 l 1
63 25 m 1
 61 25 l 1
 61 27 l 1
 63 27 l 1
 63 25 l 1
63 29 m 1
 61 29 l 1
 61 31 l 1
 63 31 l 1
 63 29 l 1
60 33 m 1
 58 33 l 1
 58 34 l 1
 59 34 l 1
 59 35 l 1
 60 35 l 1
 60 33 l 1
63 33 m 1
 61 33 l 1
 61 35 l 1
 63 35 l 1
 63 33 l 1
63 37 m 1
 61 37 l 1
 61 39 l 1
 63 39 l 1
 63 37 l 1
12 41 m 1
 10 41 l 1
 10 43 l 1
 11 43 l 1
 11 42 l 1
 12 42 l 1
 12 41 l 1
14 41 m 1
 13 41 l 1
 13 42 l 1
 12 42 l 1
 12 43 l 1
 14 43 l 1
 14 41 l 1
17 41 m 1
 15 41 l 1
 15 43 l 1
 17 43 l 1
 17 41 l 1
23 41 m 1
 21 41 l 1
 21 43 l 1
 23 43 l 1
 23 41 l 1
26 41 m 1
 24 41 l 1
 24 43 l 1
 25 43 l 1
 25 42 l 1
 26 42 l 1
 26 41 l 1
28 41 m 1
 27 41 l 1
 27 42 l 1
 26 42 l 1
 26 43 l 1
 28 43 l 1
 28 41 l 1
31 41 m 1
 29 41 l 1
 29 43 l 1
 31 43 l 1
 31 41 l 1
41 41 m 1
 39 41 l 1
 39 43 l 1
 41 43 l 1
 41 41 l 1
44 41 m 1
 42 41 l 1
 42 43 l 1
 43 43 l 1
 43 42 l 1
 44 42 l 1
 44 41 l 1
46 41 m 1
 45 41 l 1
 45 42 l 1
 44 42 l 1
 44 43 l 1
 46 43 l 1
 46 41 l 1
49 41 m 1
 47 41 l 1
 47 43 l 1
 49 43 l 1
 49 41 l 1
55 41 m 1
 53 41 l 1
 53 43 l 1
 55 43 l 1
 55 41 l 1
58 41 m 1
 56 41 l 1
 56 43 l 1
 57 43 l 1
 57 42 l 1
 58 42 l 1
 58 41 l 1
60 41 m 1
 59 41 l 1
 59 42 l 1
 58 42 l 1
 58 43 l 1
 60 43 l 1
 60 41 l 1
63 41 m 1
 61 41 l 1
 61 43 l 1
 63 43 l 1
 63 41 l 1
EndSplineSet
Ligature2: "'liga' Standard Ligatures in Latin lookup 0-1" five nine zero two nine
LCarets2: 1 0
EndChar

StartChar: custom_5_9_0_3_0
Encoding: 17986 -1 17741
Width: 70
Flags: H
LayerCount: 2
Fore
SplineSet
9 25 m 1
 7 25 l 1
 7 27 l 1
 9 27 l 1
 9 25 l 1
9 29 m 1
 7 29 l 1
 7 31 l 1
 9 31 l 1
 9 29 l 1
9 33 m 1
 7 33 l 1
 7 35 l 1
 9 35 l 1
 9 33 l 1
9 37 m 1
 7 37 l 1
 7 39 l 1
 9 39 l 1
 9 37 l 1
9 41 m 1
 7 41 l 1
 7 43 l 1
 9 43 l 1
 9 41 l 1
12 25 m 1
 10 25 l 1
 10 27 l 1
 11 27 l 1
 11 26 l 1
 12 26 l 1
 12 25 l 1
14 25 m 1
 13 25 l 1
 13 26 l 1
 12 26 l 1
 12 27 l 1
 14 27 l 1
 14 25 l 1
17 25 m 1
 15 25 l 1
 15 27 l 1
 17 27 l 1
 17 25 l 1
17 29 m 1
 15 29 l 1
 15 31 l 1
 17 31 l 1
 17 29 l 1
23 25 m 1
 21 25 l 1
 21 27 l 1
 23 27 l 1
 23 25 l 1
26 25 m 1
 24 25 l 1
 24 27 l 1
 25 27 l 1
 25 26 l 1
 26 26 l 1
 26 25 l 1
23 29 m 1
 21 29 l 1
 21 31 l 1
 23 31 l 1
 23 29 l 1
17 33 m 1
 15 33 l 1
 15 35 l 1
 17 35 l 1
 17 33 l 1
17 37 m 1
 15 37 l 1
 15 39 l 1
 17 39 l 1
 17 37 l 1
23 33 m 1
 21 33 l 1
 21 35 l 1
 23 35 l 1
 23 33 l 1
23 37 m 1
 21 37 l 1
 21 39 l 1
 23 39 l 1
 23 37 l 1
28 25 m 1
 27 25 l 1
 27 26 l 1
 26 26 l 1
 26 27 l 1
 28 27 l 1
 28 25 l 1
31 25 m 1
 29 25 l 1
 29 27 l 1
 31 27 l 1
 31 25 l 1
31 29 m 1
 29 29 l 1
 29 31 l 1
 31 31 l 1
 31 29 l 1
41 25 m 1
 39 25 l 1
 39 27 l 1
 41 27 l 1
 41 25 l 1
41 29 m 1
 39 29 l 1
 39 31 l 1
 41 31 l 1
 41 29 l 1
31 33 m 1
 29 33 l 1
 29 35 l 1
 31 35 l 1
 31 33 l 1
31 37 m 1
 29 37 l 1
 29 39 l 1
 31 39 l 1
 31 37 l 1
36 31 m 1
 34 31 l 1
 34 33 l 1
 36 33 l 1
 36 31 l 1
41 33 m 1
 39 33 l 1
 39 35 l 1
 41 35 l 1
 41 33 l 1
36 35 m 1
 34 35 l 1
 34 37 l 1
 36 37 l 1
 36 35 l 1
44 25 m 1
 42 25 l 1
 42 27 l 1
 43 27 l 1
 43 26 l 1
 44 26 l 1
 44 25 l 1
46 25 m 1
 45 25 l 1
 45 26 l 1
 44 26 l 1
 44 27 l 1
 46 27 l 1
 46 25 l 1
49 25 m 1
 47 25 l 1
 47 27 l 1
 49 27 l 1
 49 25 l 1
55 25 m 1
 53 25 l 1
 53 27 l 1
 55 27 l 1
 55 25 l 1
58 25 m 1
 56 25 l 1
 56 27 l 1
 57 27 l 1
 57 26 l 1
 58 26 l 1
 58 25 l 1
55 29 m 1
 53 29 l 1
 53 31 l 1
 55 31 l 1
 55 29 l 1
43 33 m 1
 42 33 l 1
 42 35 l 1
 44 35 l 1
 44 34 l 1
 43 34 l 1
 43 33 l 1
46 33 m 1
 44 33 l 1
 44 34 l 1
 45 34 l 1
 45 35 l 1
 46 35 l 1
 46 33 l 1
49 33 m 1
 47 33 l 1
 47 35 l 1
 49 35 l 1
 49 33 l 1
49 37 m 1
 47 37 l 1
 47 39 l 1
 49 39 l 1
 49 37 l 1
55 33 m 1
 53 33 l 1
 53 35 l 1
 55 35 l 1
 55 33 l 1
57 33 m 1
 56 33 l 1
 56 35 l 1
 58 35 l 1
 58 34 l 1
 57 34 l 1
 57 33 l 1
60 25 m 1
 59 25 l 1
 59 26 l 1
 58 26 l 1
 58 27 l 1
 60 27 l 1
 60 25 l 1
63 25 m 1
 61 25 l 1
 61 27 l 1
 63 27 l 1
 63 25 l 1
63 29 m 1
 61 29 l 1
 61 31 l 1
 63 31 l 1
 63 29 l 1
60 33 m 1
 58 33 l 1
 58 34 l 1
 59 34 l 1
 59 35 l 1
 60 35 l 1
 60 33 l 1
63 33 m 1
 61 33 l 1
 61 35 l 1
 63 35 l 1
 63 33 l 1
63 37 m 1
 61 37 l 1
 61 39 l 1
 63 39 l 1
 63 37 l 1
12 41 m 1
 10 41 l 1
 10 43 l 1
 11 43 l 1
 11 42 l 1
 12 42 l 1
 12 41 l 1
14 41 m 1
 13 41 l 1
 13 42 l 1
 12 42 l 1
 12 43 l 1
 14 43 l 1
 14 41 l 1
17 41 m 1
 15 41 l 1
 15 43 l 1
 17 43 l 1
 17 41 l 1
23 41 m 1
 21 41 l 1
 21 43 l 1
 23 43 l 1
 23 41 l 1
26 41 m 1
 24 41 l 1
 24 43 l 1
 25 43 l 1
 25 42 l 1
 26 42 l 1
 26 41 l 1
28 41 m 1
 27 41 l 1
 27 42 l 1
 26 42 l 1
 26 43 l 1
 28 43 l 1
 28 41 l 1
31 41 m 1
 29 41 l 1
 29 43 l 1
 31 43 l 1
 31 41 l 1
41 41 m 1
 39 41 l 1
 39 43 l 1
 41 43 l 1
 41 41 l 1
44 41 m 1
 42 41 l 1
 42 43 l 1
 43 43 l 1
 43 42 l 1
 44 42 l 1
 44 41 l 1
46 41 m 1
 45 41 l 1
 45 42 l 1
 44 42 l 1
 44 43 l 1
 46 43 l 1
 46 41 l 1
49 41 m 1
 47 41 l 1
 47 43 l 1
 49 43 l 1
 49 41 l 1
55 41 m 1
 53 41 l 1
 53 43 l 1
 55 43 l 1
 55 41 l 1
58 41 m 1
 56 41 l 1
 56 43 l 1
 57 43 l 1
 57 42 l 1
 58 42 l 1
 58 41 l 1
60 41 m 1
 59 41 l 1
 59 42 l 1
 58 42 l 1
 58 43 l 1
 60 43 l 1
 60 41 l 1
63 41 m 1
 61 41 l 1
 61 43 l 1
 63 43 l 1
 63 41 l 1
EndSplineSet
Ligature2: "'liga' Standard Ligatures in Latin lookup 0-1" five nine zero three zero
LCarets2: 1 0
EndChar

StartChar: custom_5_9_0_3_1
Encoding: 17987 -1 17742
Width: 70
Flags: H
LayerCount: 2
Fore
SplineSet
9 25 m 1
 7 25 l 1
 7 27 l 1
 9 27 l 1
 9 25 l 1
9 29 m 1
 7 29 l 1
 7 31 l 1
 9 31 l 1
 9 29 l 1
9 33 m 1
 7 33 l 1
 7 35 l 1
 9 35 l 1
 9 33 l 1
9 37 m 1
 7 37 l 1
 7 39 l 1
 9 39 l 1
 9 37 l 1
9 41 m 1
 7 41 l 1
 7 43 l 1
 9 43 l 1
 9 41 l 1
12 25 m 1
 10 25 l 1
 10 27 l 1
 11 27 l 1
 11 26 l 1
 12 26 l 1
 12 25 l 1
14 25 m 1
 13 25 l 1
 13 26 l 1
 12 26 l 1
 12 27 l 1
 14 27 l 1
 14 25 l 1
17 25 m 1
 15 25 l 1
 15 27 l 1
 17 27 l 1
 17 25 l 1
17 29 m 1
 15 29 l 1
 15 31 l 1
 17 31 l 1
 17 29 l 1
23 25 m 1
 21 25 l 1
 21 27 l 1
 23 27 l 1
 23 25 l 1
26 25 m 1
 24 25 l 1
 24 27 l 1
 25 27 l 1
 25 26 l 1
 26 26 l 1
 26 25 l 1
23 29 m 1
 21 29 l 1
 21 31 l 1
 23 31 l 1
 23 29 l 1
17 33 m 1
 15 33 l 1
 15 35 l 1
 17 35 l 1
 17 33 l 1
17 37 m 1
 15 37 l 1
 15 39 l 1
 17 39 l 1
 17 37 l 1
23 33 m 1
 21 33 l 1
 21 35 l 1
 23 35 l 1
 23 33 l 1
23 37 m 1
 21 37 l 1
 21 39 l 1
 23 39 l 1
 23 37 l 1
28 25 m 1
 27 25 l 1
 27 26 l 1
 26 26 l 1
 26 27 l 1
 28 27 l 1
 28 25 l 1
31 25 m 1
 29 25 l 1
 29 27 l 1
 31 27 l 1
 31 25 l 1
31 29 m 1
 29 29 l 1
 29 31 l 1
 31 31 l 1
 31 29 l 1
41 25 m 1
 39 25 l 1
 39 27 l 1
 41 27 l 1
 41 25 l 1
41 29 m 1
 39 29 l 1
 39 31 l 1
 41 31 l 1
 41 29 l 1
31 33 m 1
 29 33 l 1
 29 35 l 1
 31 35 l 1
 31 33 l 1
31 37 m 1
 29 37 l 1
 29 39 l 1
 31 39 l 1
 31 37 l 1
36 31 m 1
 34 31 l 1
 34 33 l 1
 36 33 l 1
 36 31 l 1
41 33 m 1
 39 33 l 1
 39 35 l 1
 41 35 l 1
 41 33 l 1
36 35 m 1
 34 35 l 1
 34 37 l 1
 36 37 l 1
 36 35 l 1
44 25 m 1
 42 25 l 1
 42 27 l 1
 43 27 l 1
 43 26 l 1
 44 26 l 1
 44 25 l 1
46 25 m 1
 45 25 l 1
 45 26 l 1
 44 26 l 1
 44 27 l 1
 46 27 l 1
 46 25 l 1
49 25 m 1
 47 25 l 1
 47 27 l 1
 49 27 l 1
 49 25 l 1
55 25 m 1
 53 25 l 1
 53 27 l 1
 55 27 l 1
 55 25 l 1
58 25 m 1
 56 25 l 1
 56 27 l 1
 57 27 l 1
 57 26 l 1
 58 26 l 1
 58 25 l 1
55 29 m 1
 53 29 l 1
 53 31 l 1
 55 31 l 1
 55 29 l 1
43 33 m 1
 42 33 l 1
 42 35 l 1
 44 35 l 1
 44 34 l 1
 43 34 l 1
 43 33 l 1
46 33 m 1
 44 33 l 1
 44 34 l 1
 45 34 l 1
 45 35 l 1
 46 35 l 1
 46 33 l 1
49 33 m 1
 47 33 l 1
 47 35 l 1
 49 35 l 1
 49 33 l 1
49 37 m 1
 47 37 l 1
 47 39 l 1
 49 39 l 1
 49 37 l 1
55 33 m 1
 53 33 l 1
 53 35 l 1
 55 35 l 1
 55 33 l 1
57 33 m 1
 56 33 l 1
 56 35 l 1
 58 35 l 1
 58 34 l 1
 57 34 l 1
 57 33 l 1
60 25 m 1
 59 25 l 1
 59 26 l 1
 58 26 l 1
 58 27 l 1
 60 27 l 1
 60 25 l 1
63 25 m 1
 61 25 l 1
 61 27 l 1
 63 27 l 1
 63 25 l 1
63 29 m 1
 61 29 l 1
 61 31 l 1
 63 31 l 1
 63 29 l 1
60 33 m 1
 58 33 l 1
 58 34 l 1
 59 34 l 1
 59 35 l 1
 60 35 l 1
 60 33 l 1
63 33 m 1
 61 33 l 1
 61 35 l 1
 63 35 l 1
 63 33 l 1
63 37 m 1
 61 37 l 1
 61 39 l 1
 63 39 l 1
 63 37 l 1
12 41 m 1
 10 41 l 1
 10 43 l 1
 11 43 l 1
 11 42 l 1
 12 42 l 1
 12 41 l 1
14 41 m 1
 13 41 l 1
 13 42 l 1
 12 42 l 1
 12 43 l 1
 14 43 l 1
 14 41 l 1
17 41 m 1
 15 41 l 1
 15 43 l 1
 17 43 l 1
 17 41 l 1
23 41 m 1
 21 41 l 1
 21 43 l 1
 23 43 l 1
 23 41 l 1
26 41 m 1
 24 41 l 1
 24 43 l 1
 25 43 l 1
 25 42 l 1
 26 42 l 1
 26 41 l 1
28 41 m 1
 27 41 l 1
 27 42 l 1
 26 42 l 1
 26 43 l 1
 28 43 l 1
 28 41 l 1
31 41 m 1
 29 41 l 1
 29 43 l 1
 31 43 l 1
 31 41 l 1
41 41 m 1
 39 41 l 1
 39 43 l 1
 41 43 l 1
 41 41 l 1
44 41 m 1
 42 41 l 1
 42 43 l 1
 43 43 l 1
 43 42 l 1
 44 42 l 1
 44 41 l 1
46 41 m 1
 45 41 l 1
 45 42 l 1
 44 42 l 1
 44 43 l 1
 46 43 l 1
 46 41 l 1
49 41 m 1
 47 41 l 1
 47 43 l 1
 49 43 l 1
 49 41 l 1
55 41 m 1
 53 41 l 1
 53 43 l 1
 55 43 l 1
 55 41 l 1
58 41 m 1
 56 41 l 1
 56 43 l 1
 57 43 l 1
 57 42 l 1
 58 42 l 1
 58 41 l 1
60 41 m 1
 59 41 l 1
 59 42 l 1
 58 42 l 1
 58 43 l 1
 60 43 l 1
 60 41 l 1
63 41 m 1
 61 41 l 1
 61 43 l 1
 63 43 l 1
 63 41 l 1
EndSplineSet
Ligature2: "'liga' Standard Ligatures in Latin lookup 0-1" five nine zero three one
LCarets2: 1 0
EndChar

StartChar: custom_5_9_0_3_2
Encoding: 17988 -1 17743
Width: 70
Flags: H
LayerCount: 2
Fore
SplineSet
9 25 m 1
 7 25 l 1
 7 27 l 1
 9 27 l 1
 9 25 l 1
9 29 m 1
 7 29 l 1
 7 31 l 1
 9 31 l 1
 9 29 l 1
9 33 m 1
 7 33 l 1
 7 35 l 1
 9 35 l 1
 9 33 l 1
9 37 m 1
 7 37 l 1
 7 39 l 1
 9 39 l 1
 9 37 l 1
9 41 m 1
 7 41 l 1
 7 43 l 1
 9 43 l 1
 9 41 l 1
12 25 m 1
 10 25 l 1
 10 27 l 1
 11 27 l 1
 11 26 l 1
 12 26 l 1
 12 25 l 1
14 25 m 1
 13 25 l 1
 13 26 l 1
 12 26 l 1
 12 27 l 1
 14 27 l 1
 14 25 l 1
17 25 m 1
 15 25 l 1
 15 27 l 1
 17 27 l 1
 17 25 l 1
17 29 m 1
 15 29 l 1
 15 31 l 1
 17 31 l 1
 17 29 l 1
23 25 m 1
 21 25 l 1
 21 27 l 1
 23 27 l 1
 23 25 l 1
26 25 m 1
 24 25 l 1
 24 27 l 1
 25 27 l 1
 25 26 l 1
 26 26 l 1
 26 25 l 1
23 29 m 1
 21 29 l 1
 21 31 l 1
 23 31 l 1
 23 29 l 1
17 33 m 1
 15 33 l 1
 15 35 l 1
 17 35 l 1
 17 33 l 1
17 37 m 1
 15 37 l 1
 15 39 l 1
 17 39 l 1
 17 37 l 1
23 33 m 1
 21 33 l 1
 21 35 l 1
 23 35 l 1
 23 33 l 1
23 37 m 1
 21 37 l 1
 21 39 l 1
 23 39 l 1
 23 37 l 1
28 25 m 1
 27 25 l 1
 27 26 l 1
 26 26 l 1
 26 27 l 1
 28 27 l 1
 28 25 l 1
31 25 m 1
 29 25 l 1
 29 27 l 1
 31 27 l 1
 31 25 l 1
31 29 m 1
 29 29 l 1
 29 31 l 1
 31 31 l 1
 31 29 l 1
41 25 m 1
 39 25 l 1
 39 27 l 1
 41 27 l 1
 41 25 l 1
41 29 m 1
 39 29 l 1
 39 31 l 1
 41 31 l 1
 41 29 l 1
31 33 m 1
 29 33 l 1
 29 35 l 1
 31 35 l 1
 31 33 l 1
31 37 m 1
 29 37 l 1
 29 39 l 1
 31 39 l 1
 31 37 l 1
36 31 m 1
 34 31 l 1
 34 33 l 1
 36 33 l 1
 36 31 l 1
41 33 m 1
 39 33 l 1
 39 35 l 1
 41 35 l 1
 41 33 l 1
36 35 m 1
 34 35 l 1
 34 37 l 1
 36 37 l 1
 36 35 l 1
44 25 m 1
 42 25 l 1
 42 27 l 1
 43 27 l 1
 43 26 l 1
 44 26 l 1
 44 25 l 1
46 25 m 1
 45 25 l 1
 45 26 l 1
 44 26 l 1
 44 27 l 1
 46 27 l 1
 46 25 l 1
49 25 m 1
 47 25 l 1
 47 27 l 1
 49 27 l 1
 49 25 l 1
55 25 m 1
 53 25 l 1
 53 27 l 1
 55 27 l 1
 55 25 l 1
58 25 m 1
 56 25 l 1
 56 27 l 1
 57 27 l 1
 57 26 l 1
 58 26 l 1
 58 25 l 1
55 29 m 1
 53 29 l 1
 53 31 l 1
 55 31 l 1
 55 29 l 1
43 33 m 1
 42 33 l 1
 42 35 l 1
 44 35 l 1
 44 34 l 1
 43 34 l 1
 43 33 l 1
46 33 m 1
 44 33 l 1
 44 34 l 1
 45 34 l 1
 45 35 l 1
 46 35 l 1
 46 33 l 1
49 33 m 1
 47 33 l 1
 47 35 l 1
 49 35 l 1
 49 33 l 1
49 37 m 1
 47 37 l 1
 47 39 l 1
 49 39 l 1
 49 37 l 1
55 33 m 1
 53 33 l 1
 53 35 l 1
 55 35 l 1
 55 33 l 1
57 33 m 1
 56 33 l 1
 56 35 l 1
 58 35 l 1
 58 34 l 1
 57 34 l 1
 57 33 l 1
60 25 m 1
 59 25 l 1
 59 26 l 1
 58 26 l 1
 58 27 l 1
 60 27 l 1
 60 25 l 1
63 25 m 1
 61 25 l 1
 61 27 l 1
 63 27 l 1
 63 25 l 1
63 29 m 1
 61 29 l 1
 61 31 l 1
 63 31 l 1
 63 29 l 1
60 33 m 1
 58 33 l 1
 58 34 l 1
 59 34 l 1
 59 35 l 1
 60 35 l 1
 60 33 l 1
63 33 m 1
 61 33 l 1
 61 35 l 1
 63 35 l 1
 63 33 l 1
63 37 m 1
 61 37 l 1
 61 39 l 1
 63 39 l 1
 63 37 l 1
12 41 m 1
 10 41 l 1
 10 43 l 1
 11 43 l 1
 11 42 l 1
 12 42 l 1
 12 41 l 1
14 41 m 1
 13 41 l 1
 13 42 l 1
 12 42 l 1
 12 43 l 1
 14 43 l 1
 14 41 l 1
17 41 m 1
 15 41 l 1
 15 43 l 1
 17 43 l 1
 17 41 l 1
23 41 m 1
 21 41 l 1
 21 43 l 1
 23 43 l 1
 23 41 l 1
26 41 m 1
 24 41 l 1
 24 43 l 1
 25 43 l 1
 25 42 l 1
 26 42 l 1
 26 41 l 1
28 41 m 1
 27 41 l 1
 27 42 l 1
 26 42 l 1
 26 43 l 1
 28 43 l 1
 28 41 l 1
31 41 m 1
 29 41 l 1
 29 43 l 1
 31 43 l 1
 31 41 l 1
41 41 m 1
 39 41 l 1
 39 43 l 1
 41 43 l 1
 41 41 l 1
44 41 m 1
 42 41 l 1
 42 43 l 1
 43 43 l 1
 43 42 l 1
 44 42 l 1
 44 41 l 1
46 41 m 1
 45 41 l 1
 45 42 l 1
 44 42 l 1
 44 43 l 1
 46 43 l 1
 46 41 l 1
49 41 m 1
 47 41 l 1
 47 43 l 1
 49 43 l 1
 49 41 l 1
55 41 m 1
 53 41 l 1
 53 43 l 1
 55 43 l 1
 55 41 l 1
58 41 m 1
 56 41 l 1
 56 43 l 1
 57 43 l 1
 57 42 l 1
 58 42 l 1
 58 41 l 1
60 41 m 1
 59 41 l 1
 59 42 l 1
 58 42 l 1
 58 43 l 1
 60 43 l 1
 60 41 l 1
63 41 m 1
 61 41 l 1
 61 43 l 1
 63 43 l 1
 63 41 l 1
EndSplineSet
Ligature2: "'liga' Standard Ligatures in Latin lookup 0-1" five nine zero three two
LCarets2: 1 0
EndChar

StartChar: custom_5_9_0_3_3
Encoding: 17989 -1 17744
Width: 70
Flags: H
LayerCount: 2
Fore
SplineSet
9 25 m 1
 7 25 l 1
 7 27 l 1
 9 27 l 1
 9 25 l 1
9 29 m 1
 7 29 l 1
 7 31 l 1
 9 31 l 1
 9 29 l 1
9 33 m 1
 7 33 l 1
 7 35 l 1
 9 35 l 1
 9 33 l 1
9 37 m 1
 7 37 l 1
 7 39 l 1
 9 39 l 1
 9 37 l 1
9 41 m 1
 7 41 l 1
 7 43 l 1
 9 43 l 1
 9 41 l 1
12 25 m 1
 10 25 l 1
 10 27 l 1
 11 27 l 1
 11 26 l 1
 12 26 l 1
 12 25 l 1
14 25 m 1
 13 25 l 1
 13 26 l 1
 12 26 l 1
 12 27 l 1
 14 27 l 1
 14 25 l 1
17 25 m 1
 15 25 l 1
 15 27 l 1
 17 27 l 1
 17 25 l 1
17 29 m 1
 15 29 l 1
 15 31 l 1
 17 31 l 1
 17 29 l 1
23 25 m 1
 21 25 l 1
 21 27 l 1
 23 27 l 1
 23 25 l 1
26 25 m 1
 24 25 l 1
 24 27 l 1
 25 27 l 1
 25 26 l 1
 26 26 l 1
 26 25 l 1
23 29 m 1
 21 29 l 1
 21 31 l 1
 23 31 l 1
 23 29 l 1
17 33 m 1
 15 33 l 1
 15 35 l 1
 17 35 l 1
 17 33 l 1
17 37 m 1
 15 37 l 1
 15 39 l 1
 17 39 l 1
 17 37 l 1
23 33 m 1
 21 33 l 1
 21 35 l 1
 23 35 l 1
 23 33 l 1
23 37 m 1
 21 37 l 1
 21 39 l 1
 23 39 l 1
 23 37 l 1
28 25 m 1
 27 25 l 1
 27 26 l 1
 26 26 l 1
 26 27 l 1
 28 27 l 1
 28 25 l 1
31 25 m 1
 29 25 l 1
 29 27 l 1
 31 27 l 1
 31 25 l 1
31 29 m 1
 29 29 l 1
 29 31 l 1
 31 31 l 1
 31 29 l 1
41 25 m 1
 39 25 l 1
 39 27 l 1
 41 27 l 1
 41 25 l 1
41 29 m 1
 39 29 l 1
 39 31 l 1
 41 31 l 1
 41 29 l 1
31 33 m 1
 29 33 l 1
 29 35 l 1
 31 35 l 1
 31 33 l 1
31 37 m 1
 29 37 l 1
 29 39 l 1
 31 39 l 1
 31 37 l 1
36 31 m 1
 34 31 l 1
 34 33 l 1
 36 33 l 1
 36 31 l 1
41 33 m 1
 39 33 l 1
 39 35 l 1
 41 35 l 1
 41 33 l 1
36 35 m 1
 34 35 l 1
 34 37 l 1
 36 37 l 1
 36 35 l 1
44 25 m 1
 42 25 l 1
 42 27 l 1
 43 27 l 1
 43 26 l 1
 44 26 l 1
 44 25 l 1
46 25 m 1
 45 25 l 1
 45 26 l 1
 44 26 l 1
 44 27 l 1
 46 27 l 1
 46 25 l 1
49 25 m 1
 47 25 l 1
 47 27 l 1
 49 27 l 1
 49 25 l 1
55 25 m 1
 53 25 l 1
 53 27 l 1
 55 27 l 1
 55 25 l 1
58 25 m 1
 56 25 l 1
 56 27 l 1
 57 27 l 1
 57 26 l 1
 58 26 l 1
 58 25 l 1
55 29 m 1
 53 29 l 1
 53 31 l 1
 55 31 l 1
 55 29 l 1
43 33 m 1
 42 33 l 1
 42 35 l 1
 44 35 l 1
 44 34 l 1
 43 34 l 1
 43 33 l 1
46 33 m 1
 44 33 l 1
 44 34 l 1
 45 34 l 1
 45 35 l 1
 46 35 l 1
 46 33 l 1
49 33 m 1
 47 33 l 1
 47 35 l 1
 49 35 l 1
 49 33 l 1
49 37 m 1
 47 37 l 1
 47 39 l 1
 49 39 l 1
 49 37 l 1
55 33 m 1
 53 33 l 1
 53 35 l 1
 55 35 l 1
 55 33 l 1
57 33 m 1
 56 33 l 1
 56 35 l 1
 58 35 l 1
 58 34 l 1
 57 34 l 1
 57 33 l 1
60 25 m 1
 59 25 l 1
 59 26 l 1
 58 26 l 1
 58 27 l 1
 60 27 l 1
 60 25 l 1
63 25 m 1
 61 25 l 1
 61 27 l 1
 63 27 l 1
 63 25 l 1
63 29 m 1
 61 29 l 1
 61 31 l 1
 63 31 l 1
 63 29 l 1
60 33 m 1
 58 33 l 1
 58 34 l 1
 59 34 l 1
 59 35 l 1
 60 35 l 1
 60 33 l 1
63 33 m 1
 61 33 l 1
 61 35 l 1
 63 35 l 1
 63 33 l 1
63 37 m 1
 61 37 l 1
 61 39 l 1
 63 39 l 1
 63 37 l 1
12 41 m 1
 10 41 l 1
 10 43 l 1
 11 43 l 1
 11 42 l 1
 12 42 l 1
 12 41 l 1
14 41 m 1
 13 41 l 1
 13 42 l 1
 12 42 l 1
 12 43 l 1
 14 43 l 1
 14 41 l 1
17 41 m 1
 15 41 l 1
 15 43 l 1
 17 43 l 1
 17 41 l 1
23 41 m 1
 21 41 l 1
 21 43 l 1
 23 43 l 1
 23 41 l 1
26 41 m 1
 24 41 l 1
 24 43 l 1
 25 43 l 1
 25 42 l 1
 26 42 l 1
 26 41 l 1
28 41 m 1
 27 41 l 1
 27 42 l 1
 26 42 l 1
 26 43 l 1
 28 43 l 1
 28 41 l 1
31 41 m 1
 29 41 l 1
 29 43 l 1
 31 43 l 1
 31 41 l 1
41 41 m 1
 39 41 l 1
 39 43 l 1
 41 43 l 1
 41 41 l 1
44 41 m 1
 42 41 l 1
 42 43 l 1
 43 43 l 1
 43 42 l 1
 44 42 l 1
 44 41 l 1
46 41 m 1
 45 41 l 1
 45 42 l 1
 44 42 l 1
 44 43 l 1
 46 43 l 1
 46 41 l 1
49 41 m 1
 47 41 l 1
 47 43 l 1
 49 43 l 1
 49 41 l 1
55 41 m 1
 53 41 l 1
 53 43 l 1
 55 43 l 1
 55 41 l 1
58 41 m 1
 56 41 l 1
 56 43 l 1
 57 43 l 1
 57 42 l 1
 58 42 l 1
 58 41 l 1
60 41 m 1
 59 41 l 1
 59 42 l 1
 58 42 l 1
 58 43 l 1
 60 43 l 1
 60 41 l 1
63 41 m 1
 61 41 l 1
 61 43 l 1
 63 43 l 1
 63 41 l 1
EndSplineSet
Ligature2: "'liga' Standard Ligatures in Latin lookup 0-1" five nine zero three three
LCarets2: 1 0
EndChar

StartChar: custom_5_9_0_3_4
Encoding: 17990 -1 17745
Width: 70
Flags: H
LayerCount: 2
Fore
SplineSet
9 25 m 1
 7 25 l 1
 7 27 l 1
 9 27 l 1
 9 25 l 1
9 29 m 1
 7 29 l 1
 7 31 l 1
 9 31 l 1
 9 29 l 1
9 33 m 1
 7 33 l 1
 7 35 l 1
 9 35 l 1
 9 33 l 1
9 37 m 1
 7 37 l 1
 7 39 l 1
 9 39 l 1
 9 37 l 1
9 41 m 1
 7 41 l 1
 7 43 l 1
 9 43 l 1
 9 41 l 1
12 25 m 1
 10 25 l 1
 10 27 l 1
 11 27 l 1
 11 26 l 1
 12 26 l 1
 12 25 l 1
14 25 m 1
 13 25 l 1
 13 26 l 1
 12 26 l 1
 12 27 l 1
 14 27 l 1
 14 25 l 1
17 25 m 1
 15 25 l 1
 15 27 l 1
 17 27 l 1
 17 25 l 1
17 29 m 1
 15 29 l 1
 15 31 l 1
 17 31 l 1
 17 29 l 1
23 25 m 1
 21 25 l 1
 21 27 l 1
 23 27 l 1
 23 25 l 1
26 25 m 1
 24 25 l 1
 24 27 l 1
 25 27 l 1
 25 26 l 1
 26 26 l 1
 26 25 l 1
23 29 m 1
 21 29 l 1
 21 31 l 1
 23 31 l 1
 23 29 l 1
17 33 m 1
 15 33 l 1
 15 35 l 1
 17 35 l 1
 17 33 l 1
17 37 m 1
 15 37 l 1
 15 39 l 1
 17 39 l 1
 17 37 l 1
23 33 m 1
 21 33 l 1
 21 35 l 1
 23 35 l 1
 23 33 l 1
23 37 m 1
 21 37 l 1
 21 39 l 1
 23 39 l 1
 23 37 l 1
28 25 m 1
 27 25 l 1
 27 26 l 1
 26 26 l 1
 26 27 l 1
 28 27 l 1
 28 25 l 1
31 25 m 1
 29 25 l 1
 29 27 l 1
 31 27 l 1
 31 25 l 1
31 29 m 1
 29 29 l 1
 29 31 l 1
 31 31 l 1
 31 29 l 1
41 25 m 1
 39 25 l 1
 39 27 l 1
 41 27 l 1
 41 25 l 1
41 29 m 1
 39 29 l 1
 39 31 l 1
 41 31 l 1
 41 29 l 1
31 33 m 1
 29 33 l 1
 29 35 l 1
 31 35 l 1
 31 33 l 1
31 37 m 1
 29 37 l 1
 29 39 l 1
 31 39 l 1
 31 37 l 1
36 31 m 1
 34 31 l 1
 34 33 l 1
 36 33 l 1
 36 31 l 1
41 33 m 1
 39 33 l 1
 39 35 l 1
 41 35 l 1
 41 33 l 1
36 35 m 1
 34 35 l 1
 34 37 l 1
 36 37 l 1
 36 35 l 1
44 25 m 1
 42 25 l 1
 42 27 l 1
 43 27 l 1
 43 26 l 1
 44 26 l 1
 44 25 l 1
46 25 m 1
 45 25 l 1
 45 26 l 1
 44 26 l 1
 44 27 l 1
 46 27 l 1
 46 25 l 1
49 25 m 1
 47 25 l 1
 47 27 l 1
 49 27 l 1
 49 25 l 1
55 25 m 1
 53 25 l 1
 53 27 l 1
 55 27 l 1
 55 25 l 1
58 25 m 1
 56 25 l 1
 56 27 l 1
 57 27 l 1
 57 26 l 1
 58 26 l 1
 58 25 l 1
55 29 m 1
 53 29 l 1
 53 31 l 1
 55 31 l 1
 55 29 l 1
43 33 m 1
 42 33 l 1
 42 35 l 1
 44 35 l 1
 44 34 l 1
 43 34 l 1
 43 33 l 1
46 33 m 1
 44 33 l 1
 44 34 l 1
 45 34 l 1
 45 35 l 1
 46 35 l 1
 46 33 l 1
49 33 m 1
 47 33 l 1
 47 35 l 1
 49 35 l 1
 49 33 l 1
49 37 m 1
 47 37 l 1
 47 39 l 1
 49 39 l 1
 49 37 l 1
55 33 m 1
 53 33 l 1
 53 35 l 1
 55 35 l 1
 55 33 l 1
57 33 m 1
 56 33 l 1
 56 35 l 1
 58 35 l 1
 58 34 l 1
 57 34 l 1
 57 33 l 1
60 25 m 1
 59 25 l 1
 59 26 l 1
 58 26 l 1
 58 27 l 1
 60 27 l 1
 60 25 l 1
63 25 m 1
 61 25 l 1
 61 27 l 1
 63 27 l 1
 63 25 l 1
63 29 m 1
 61 29 l 1
 61 31 l 1
 63 31 l 1
 63 29 l 1
60 33 m 1
 58 33 l 1
 58 34 l 1
 59 34 l 1
 59 35 l 1
 60 35 l 1
 60 33 l 1
63 33 m 1
 61 33 l 1
 61 35 l 1
 63 35 l 1
 63 33 l 1
63 37 m 1
 61 37 l 1
 61 39 l 1
 63 39 l 1
 63 37 l 1
12 41 m 1
 10 41 l 1
 10 43 l 1
 11 43 l 1
 11 42 l 1
 12 42 l 1
 12 41 l 1
14 41 m 1
 13 41 l 1
 13 42 l 1
 12 42 l 1
 12 43 l 1
 14 43 l 1
 14 41 l 1
17 41 m 1
 15 41 l 1
 15 43 l 1
 17 43 l 1
 17 41 l 1
23 41 m 1
 21 41 l 1
 21 43 l 1
 23 43 l 1
 23 41 l 1
26 41 m 1
 24 41 l 1
 24 43 l 1
 25 43 l 1
 25 42 l 1
 26 42 l 1
 26 41 l 1
28 41 m 1
 27 41 l 1
 27 42 l 1
 26 42 l 1
 26 43 l 1
 28 43 l 1
 28 41 l 1
31 41 m 1
 29 41 l 1
 29 43 l 1
 31 43 l 1
 31 41 l 1
41 41 m 1
 39 41 l 1
 39 43 l 1
 41 43 l 1
 41 41 l 1
44 41 m 1
 42 41 l 1
 42 43 l 1
 43 43 l 1
 43 42 l 1
 44 42 l 1
 44 41 l 1
46 41 m 1
 45 41 l 1
 45 42 l 1
 44 42 l 1
 44 43 l 1
 46 43 l 1
 46 41 l 1
49 41 m 1
 47 41 l 1
 47 43 l 1
 49 43 l 1
 49 41 l 1
55 41 m 1
 53 41 l 1
 53 43 l 1
 55 43 l 1
 55 41 l 1
58 41 m 1
 56 41 l 1
 56 43 l 1
 57 43 l 1
 57 42 l 1
 58 42 l 1
 58 41 l 1
60 41 m 1
 59 41 l 1
 59 42 l 1
 58 42 l 1
 58 43 l 1
 60 43 l 1
 60 41 l 1
63 41 m 1
 61 41 l 1
 61 43 l 1
 63 43 l 1
 63 41 l 1
EndSplineSet
Ligature2: "'liga' Standard Ligatures in Latin lookup 0-1" five nine zero three four
LCarets2: 1 0
EndChar

StartChar: custom_5_9_0_3_5
Encoding: 17991 -1 17746
Width: 70
Flags: H
LayerCount: 2
Fore
SplineSet
9 25 m 1
 7 25 l 1
 7 27 l 1
 9 27 l 1
 9 25 l 1
9 29 m 1
 7 29 l 1
 7 31 l 1
 9 31 l 1
 9 29 l 1
9 33 m 1
 7 33 l 1
 7 35 l 1
 9 35 l 1
 9 33 l 1
9 37 m 1
 7 37 l 1
 7 39 l 1
 9 39 l 1
 9 37 l 1
9 41 m 1
 7 41 l 1
 7 43 l 1
 9 43 l 1
 9 41 l 1
12 25 m 1
 10 25 l 1
 10 27 l 1
 11 27 l 1
 11 26 l 1
 12 26 l 1
 12 25 l 1
14 25 m 1
 13 25 l 1
 13 26 l 1
 12 26 l 1
 12 27 l 1
 14 27 l 1
 14 25 l 1
17 25 m 1
 15 25 l 1
 15 27 l 1
 17 27 l 1
 17 25 l 1
17 29 m 1
 15 29 l 1
 15 31 l 1
 17 31 l 1
 17 29 l 1
23 25 m 1
 21 25 l 1
 21 27 l 1
 23 27 l 1
 23 25 l 1
26 25 m 1
 24 25 l 1
 24 27 l 1
 25 27 l 1
 25 26 l 1
 26 26 l 1
 26 25 l 1
23 29 m 1
 21 29 l 1
 21 31 l 1
 23 31 l 1
 23 29 l 1
17 33 m 1
 15 33 l 1
 15 35 l 1
 17 35 l 1
 17 33 l 1
17 37 m 1
 15 37 l 1
 15 39 l 1
 17 39 l 1
 17 37 l 1
23 33 m 1
 21 33 l 1
 21 35 l 1
 23 35 l 1
 23 33 l 1
23 37 m 1
 21 37 l 1
 21 39 l 1
 23 39 l 1
 23 37 l 1
28 25 m 1
 27 25 l 1
 27 26 l 1
 26 26 l 1
 26 27 l 1
 28 27 l 1
 28 25 l 1
31 25 m 1
 29 25 l 1
 29 27 l 1
 31 27 l 1
 31 25 l 1
31 29 m 1
 29 29 l 1
 29 31 l 1
 31 31 l 1
 31 29 l 1
41 25 m 1
 39 25 l 1
 39 27 l 1
 41 27 l 1
 41 25 l 1
41 29 m 1
 39 29 l 1
 39 31 l 1
 41 31 l 1
 41 29 l 1
31 33 m 1
 29 33 l 1
 29 35 l 1
 31 35 l 1
 31 33 l 1
31 37 m 1
 29 37 l 1
 29 39 l 1
 31 39 l 1
 31 37 l 1
36 31 m 1
 34 31 l 1
 34 33 l 1
 36 33 l 1
 36 31 l 1
41 33 m 1
 39 33 l 1
 39 35 l 1
 41 35 l 1
 41 33 l 1
36 35 m 1
 34 35 l 1
 34 37 l 1
 36 37 l 1
 36 35 l 1
44 25 m 1
 42 25 l 1
 42 27 l 1
 43 27 l 1
 43 26 l 1
 44 26 l 1
 44 25 l 1
46 25 m 1
 45 25 l 1
 45 26 l 1
 44 26 l 1
 44 27 l 1
 46 27 l 1
 46 25 l 1
49 25 m 1
 47 25 l 1
 47 27 l 1
 49 27 l 1
 49 25 l 1
55 25 m 1
 53 25 l 1
 53 27 l 1
 55 27 l 1
 55 25 l 1
58 25 m 1
 56 25 l 1
 56 27 l 1
 57 27 l 1
 57 26 l 1
 58 26 l 1
 58 25 l 1
55 29 m 1
 53 29 l 1
 53 31 l 1
 55 31 l 1
 55 29 l 1
43 33 m 1
 42 33 l 1
 42 35 l 1
 44 35 l 1
 44 34 l 1
 43 34 l 1
 43 33 l 1
46 33 m 1
 44 33 l 1
 44 34 l 1
 45 34 l 1
 45 35 l 1
 46 35 l 1
 46 33 l 1
49 33 m 1
 47 33 l 1
 47 35 l 1
 49 35 l 1
 49 33 l 1
49 37 m 1
 47 37 l 1
 47 39 l 1
 49 39 l 1
 49 37 l 1
55 33 m 1
 53 33 l 1
 53 35 l 1
 55 35 l 1
 55 33 l 1
57 33 m 1
 56 33 l 1
 56 35 l 1
 58 35 l 1
 58 34 l 1
 57 34 l 1
 57 33 l 1
60 25 m 1
 59 25 l 1
 59 26 l 1
 58 26 l 1
 58 27 l 1
 60 27 l 1
 60 25 l 1
63 25 m 1
 61 25 l 1
 61 27 l 1
 63 27 l 1
 63 25 l 1
63 29 m 1
 61 29 l 1
 61 31 l 1
 63 31 l 1
 63 29 l 1
60 33 m 1
 58 33 l 1
 58 34 l 1
 59 34 l 1
 59 35 l 1
 60 35 l 1
 60 33 l 1
63 33 m 1
 61 33 l 1
 61 35 l 1
 63 35 l 1
 63 33 l 1
63 37 m 1
 61 37 l 1
 61 39 l 1
 63 39 l 1
 63 37 l 1
12 41 m 1
 10 41 l 1
 10 43 l 1
 11 43 l 1
 11 42 l 1
 12 42 l 1
 12 41 l 1
14 41 m 1
 13 41 l 1
 13 42 l 1
 12 42 l 1
 12 43 l 1
 14 43 l 1
 14 41 l 1
17 41 m 1
 15 41 l 1
 15 43 l 1
 17 43 l 1
 17 41 l 1
23 41 m 1
 21 41 l 1
 21 43 l 1
 23 43 l 1
 23 41 l 1
26 41 m 1
 24 41 l 1
 24 43 l 1
 25 43 l 1
 25 42 l 1
 26 42 l 1
 26 41 l 1
28 41 m 1
 27 41 l 1
 27 42 l 1
 26 42 l 1
 26 43 l 1
 28 43 l 1
 28 41 l 1
31 41 m 1
 29 41 l 1
 29 43 l 1
 31 43 l 1
 31 41 l 1
41 41 m 1
 39 41 l 1
 39 43 l 1
 41 43 l 1
 41 41 l 1
44 41 m 1
 42 41 l 1
 42 43 l 1
 43 43 l 1
 43 42 l 1
 44 42 l 1
 44 41 l 1
46 41 m 1
 45 41 l 1
 45 42 l 1
 44 42 l 1
 44 43 l 1
 46 43 l 1
 46 41 l 1
49 41 m 1
 47 41 l 1
 47 43 l 1
 49 43 l 1
 49 41 l 1
55 41 m 1
 53 41 l 1
 53 43 l 1
 55 43 l 1
 55 41 l 1
58 41 m 1
 56 41 l 1
 56 43 l 1
 57 43 l 1
 57 42 l 1
 58 42 l 1
 58 41 l 1
60 41 m 1
 59 41 l 1
 59 42 l 1
 58 42 l 1
 58 43 l 1
 60 43 l 1
 60 41 l 1
63 41 m 1
 61 41 l 1
 61 43 l 1
 63 43 l 1
 63 41 l 1
EndSplineSet
Ligature2: "'liga' Standard Ligatures in Latin lookup 0-1" five nine zero three five
LCarets2: 1 0
EndChar

StartChar: custom_5_9_0_3_6
Encoding: 17992 -1 17747
Width: 70
Flags: H
LayerCount: 2
Fore
SplineSet
9 25 m 1
 7 25 l 1
 7 27 l 1
 9 27 l 1
 9 25 l 1
9 29 m 1
 7 29 l 1
 7 31 l 1
 9 31 l 1
 9 29 l 1
9 33 m 1
 7 33 l 1
 7 35 l 1
 9 35 l 1
 9 33 l 1
9 37 m 1
 7 37 l 1
 7 39 l 1
 9 39 l 1
 9 37 l 1
9 41 m 1
 7 41 l 1
 7 43 l 1
 9 43 l 1
 9 41 l 1
12 25 m 1
 10 25 l 1
 10 27 l 1
 11 27 l 1
 11 26 l 1
 12 26 l 1
 12 25 l 1
14 25 m 1
 13 25 l 1
 13 26 l 1
 12 26 l 1
 12 27 l 1
 14 27 l 1
 14 25 l 1
17 25 m 1
 15 25 l 1
 15 27 l 1
 17 27 l 1
 17 25 l 1
17 29 m 1
 15 29 l 1
 15 31 l 1
 17 31 l 1
 17 29 l 1
23 25 m 1
 21 25 l 1
 21 27 l 1
 23 27 l 1
 23 25 l 1
26 25 m 1
 24 25 l 1
 24 27 l 1
 25 27 l 1
 25 26 l 1
 26 26 l 1
 26 25 l 1
23 29 m 1
 21 29 l 1
 21 31 l 1
 23 31 l 1
 23 29 l 1
17 33 m 1
 15 33 l 1
 15 35 l 1
 17 35 l 1
 17 33 l 1
17 37 m 1
 15 37 l 1
 15 39 l 1
 17 39 l 1
 17 37 l 1
23 33 m 1
 21 33 l 1
 21 35 l 1
 23 35 l 1
 23 33 l 1
23 37 m 1
 21 37 l 1
 21 39 l 1
 23 39 l 1
 23 37 l 1
28 25 m 1
 27 25 l 1
 27 26 l 1
 26 26 l 1
 26 27 l 1
 28 27 l 1
 28 25 l 1
31 25 m 1
 29 25 l 1
 29 27 l 1
 31 27 l 1
 31 25 l 1
31 29 m 1
 29 29 l 1
 29 31 l 1
 31 31 l 1
 31 29 l 1
41 25 m 1
 39 25 l 1
 39 27 l 1
 41 27 l 1
 41 25 l 1
41 29 m 1
 39 29 l 1
 39 31 l 1
 41 31 l 1
 41 29 l 1
31 33 m 1
 29 33 l 1
 29 35 l 1
 31 35 l 1
 31 33 l 1
31 37 m 1
 29 37 l 1
 29 39 l 1
 31 39 l 1
 31 37 l 1
36 31 m 1
 34 31 l 1
 34 33 l 1
 36 33 l 1
 36 31 l 1
41 33 m 1
 39 33 l 1
 39 35 l 1
 41 35 l 1
 41 33 l 1
36 35 m 1
 34 35 l 1
 34 37 l 1
 36 37 l 1
 36 35 l 1
44 25 m 1
 42 25 l 1
 42 27 l 1
 43 27 l 1
 43 26 l 1
 44 26 l 1
 44 25 l 1
46 25 m 1
 45 25 l 1
 45 26 l 1
 44 26 l 1
 44 27 l 1
 46 27 l 1
 46 25 l 1
49 25 m 1
 47 25 l 1
 47 27 l 1
 49 27 l 1
 49 25 l 1
55 25 m 1
 53 25 l 1
 53 27 l 1
 55 27 l 1
 55 25 l 1
58 25 m 1
 56 25 l 1
 56 27 l 1
 57 27 l 1
 57 26 l 1
 58 26 l 1
 58 25 l 1
55 29 m 1
 53 29 l 1
 53 31 l 1
 55 31 l 1
 55 29 l 1
43 33 m 1
 42 33 l 1
 42 35 l 1
 44 35 l 1
 44 34 l 1
 43 34 l 1
 43 33 l 1
46 33 m 1
 44 33 l 1
 44 34 l 1
 45 34 l 1
 45 35 l 1
 46 35 l 1
 46 33 l 1
49 33 m 1
 47 33 l 1
 47 35 l 1
 49 35 l 1
 49 33 l 1
49 37 m 1
 47 37 l 1
 47 39 l 1
 49 39 l 1
 49 37 l 1
55 33 m 1
 53 33 l 1
 53 35 l 1
 55 35 l 1
 55 33 l 1
57 33 m 1
 56 33 l 1
 56 35 l 1
 58 35 l 1
 58 34 l 1
 57 34 l 1
 57 33 l 1
60 25 m 1
 59 25 l 1
 59 26 l 1
 58 26 l 1
 58 27 l 1
 60 27 l 1
 60 25 l 1
63 25 m 1
 61 25 l 1
 61 27 l 1
 63 27 l 1
 63 25 l 1
63 29 m 1
 61 29 l 1
 61 31 l 1
 63 31 l 1
 63 29 l 1
60 33 m 1
 58 33 l 1
 58 34 l 1
 59 34 l 1
 59 35 l 1
 60 35 l 1
 60 33 l 1
63 33 m 1
 61 33 l 1
 61 35 l 1
 63 35 l 1
 63 33 l 1
63 37 m 1
 61 37 l 1
 61 39 l 1
 63 39 l 1
 63 37 l 1
12 41 m 1
 10 41 l 1
 10 43 l 1
 11 43 l 1
 11 42 l 1
 12 42 l 1
 12 41 l 1
14 41 m 1
 13 41 l 1
 13 42 l 1
 12 42 l 1
 12 43 l 1
 14 43 l 1
 14 41 l 1
17 41 m 1
 15 41 l 1
 15 43 l 1
 17 43 l 1
 17 41 l 1
23 41 m 1
 21 41 l 1
 21 43 l 1
 23 43 l 1
 23 41 l 1
26 41 m 1
 24 41 l 1
 24 43 l 1
 25 43 l 1
 25 42 l 1
 26 42 l 1
 26 41 l 1
28 41 m 1
 27 41 l 1
 27 42 l 1
 26 42 l 1
 26 43 l 1
 28 43 l 1
 28 41 l 1
31 41 m 1
 29 41 l 1
 29 43 l 1
 31 43 l 1
 31 41 l 1
41 41 m 1
 39 41 l 1
 39 43 l 1
 41 43 l 1
 41 41 l 1
44 41 m 1
 42 41 l 1
 42 43 l 1
 43 43 l 1
 43 42 l 1
 44 42 l 1
 44 41 l 1
46 41 m 1
 45 41 l 1
 45 42 l 1
 44 42 l 1
 44 43 l 1
 46 43 l 1
 46 41 l 1
49 41 m 1
 47 41 l 1
 47 43 l 1
 49 43 l 1
 49 41 l 1
55 41 m 1
 53 41 l 1
 53 43 l 1
 55 43 l 1
 55 41 l 1
58 41 m 1
 56 41 l 1
 56 43 l 1
 57 43 l 1
 57 42 l 1
 58 42 l 1
 58 41 l 1
60 41 m 1
 59 41 l 1
 59 42 l 1
 58 42 l 1
 58 43 l 1
 60 43 l 1
 60 41 l 1
63 41 m 1
 61 41 l 1
 61 43 l 1
 63 43 l 1
 63 41 l 1
EndSplineSet
Ligature2: "'liga' Standard Ligatures in Latin lookup 0-1" five nine zero three six
LCarets2: 1 0
EndChar

StartChar: custom_5_9_0_3_7
Encoding: 17993 -1 17748
Width: 70
Flags: H
LayerCount: 2
Fore
SplineSet
9 25 m 1
 7 25 l 1
 7 27 l 1
 9 27 l 1
 9 25 l 1
9 29 m 1
 7 29 l 1
 7 31 l 1
 9 31 l 1
 9 29 l 1
9 33 m 1
 7 33 l 1
 7 35 l 1
 9 35 l 1
 9 33 l 1
9 37 m 1
 7 37 l 1
 7 39 l 1
 9 39 l 1
 9 37 l 1
9 41 m 1
 7 41 l 1
 7 43 l 1
 9 43 l 1
 9 41 l 1
12 25 m 1
 10 25 l 1
 10 27 l 1
 11 27 l 1
 11 26 l 1
 12 26 l 1
 12 25 l 1
14 25 m 1
 13 25 l 1
 13 26 l 1
 12 26 l 1
 12 27 l 1
 14 27 l 1
 14 25 l 1
17 25 m 1
 15 25 l 1
 15 27 l 1
 17 27 l 1
 17 25 l 1
17 29 m 1
 15 29 l 1
 15 31 l 1
 17 31 l 1
 17 29 l 1
23 25 m 1
 21 25 l 1
 21 27 l 1
 23 27 l 1
 23 25 l 1
26 25 m 1
 24 25 l 1
 24 27 l 1
 25 27 l 1
 25 26 l 1
 26 26 l 1
 26 25 l 1
23 29 m 1
 21 29 l 1
 21 31 l 1
 23 31 l 1
 23 29 l 1
17 33 m 1
 15 33 l 1
 15 35 l 1
 17 35 l 1
 17 33 l 1
17 37 m 1
 15 37 l 1
 15 39 l 1
 17 39 l 1
 17 37 l 1
23 33 m 1
 21 33 l 1
 21 35 l 1
 23 35 l 1
 23 33 l 1
23 37 m 1
 21 37 l 1
 21 39 l 1
 23 39 l 1
 23 37 l 1
28 25 m 1
 27 25 l 1
 27 26 l 1
 26 26 l 1
 26 27 l 1
 28 27 l 1
 28 25 l 1
31 25 m 1
 29 25 l 1
 29 27 l 1
 31 27 l 1
 31 25 l 1
31 29 m 1
 29 29 l 1
 29 31 l 1
 31 31 l 1
 31 29 l 1
41 25 m 1
 39 25 l 1
 39 27 l 1
 41 27 l 1
 41 25 l 1
41 29 m 1
 39 29 l 1
 39 31 l 1
 41 31 l 1
 41 29 l 1
31 33 m 1
 29 33 l 1
 29 35 l 1
 31 35 l 1
 31 33 l 1
31 37 m 1
 29 37 l 1
 29 39 l 1
 31 39 l 1
 31 37 l 1
36 31 m 1
 34 31 l 1
 34 33 l 1
 36 33 l 1
 36 31 l 1
41 33 m 1
 39 33 l 1
 39 35 l 1
 41 35 l 1
 41 33 l 1
36 35 m 1
 34 35 l 1
 34 37 l 1
 36 37 l 1
 36 35 l 1
44 25 m 1
 42 25 l 1
 42 27 l 1
 43 27 l 1
 43 26 l 1
 44 26 l 1
 44 25 l 1
46 25 m 1
 45 25 l 1
 45 26 l 1
 44 26 l 1
 44 27 l 1
 46 27 l 1
 46 25 l 1
49 25 m 1
 47 25 l 1
 47 27 l 1
 49 27 l 1
 49 25 l 1
55 25 m 1
 53 25 l 1
 53 27 l 1
 55 27 l 1
 55 25 l 1
58 25 m 1
 56 25 l 1
 56 27 l 1
 57 27 l 1
 57 26 l 1
 58 26 l 1
 58 25 l 1
55 29 m 1
 53 29 l 1
 53 31 l 1
 55 31 l 1
 55 29 l 1
43 33 m 1
 42 33 l 1
 42 35 l 1
 44 35 l 1
 44 34 l 1
 43 34 l 1
 43 33 l 1
46 33 m 1
 44 33 l 1
 44 34 l 1
 45 34 l 1
 45 35 l 1
 46 35 l 1
 46 33 l 1
49 33 m 1
 47 33 l 1
 47 35 l 1
 49 35 l 1
 49 33 l 1
49 37 m 1
 47 37 l 1
 47 39 l 1
 49 39 l 1
 49 37 l 1
55 33 m 1
 53 33 l 1
 53 35 l 1
 55 35 l 1
 55 33 l 1
57 33 m 1
 56 33 l 1
 56 35 l 1
 58 35 l 1
 58 34 l 1
 57 34 l 1
 57 33 l 1
60 25 m 1
 59 25 l 1
 59 26 l 1
 58 26 l 1
 58 27 l 1
 60 27 l 1
 60 25 l 1
63 25 m 1
 61 25 l 1
 61 27 l 1
 63 27 l 1
 63 25 l 1
63 29 m 1
 61 29 l 1
 61 31 l 1
 63 31 l 1
 63 29 l 1
60 33 m 1
 58 33 l 1
 58 34 l 1
 59 34 l 1
 59 35 l 1
 60 35 l 1
 60 33 l 1
63 33 m 1
 61 33 l 1
 61 35 l 1
 63 35 l 1
 63 33 l 1
63 37 m 1
 61 37 l 1
 61 39 l 1
 63 39 l 1
 63 37 l 1
12 41 m 1
 10 41 l 1
 10 43 l 1
 11 43 l 1
 11 42 l 1
 12 42 l 1
 12 41 l 1
14 41 m 1
 13 41 l 1
 13 42 l 1
 12 42 l 1
 12 43 l 1
 14 43 l 1
 14 41 l 1
17 41 m 1
 15 41 l 1
 15 43 l 1
 17 43 l 1
 17 41 l 1
23 41 m 1
 21 41 l 1
 21 43 l 1
 23 43 l 1
 23 41 l 1
26 41 m 1
 24 41 l 1
 24 43 l 1
 25 43 l 1
 25 42 l 1
 26 42 l 1
 26 41 l 1
28 41 m 1
 27 41 l 1
 27 42 l 1
 26 42 l 1
 26 43 l 1
 28 43 l 1
 28 41 l 1
31 41 m 1
 29 41 l 1
 29 43 l 1
 31 43 l 1
 31 41 l 1
41 41 m 1
 39 41 l 1
 39 43 l 1
 41 43 l 1
 41 41 l 1
44 41 m 1
 42 41 l 1
 42 43 l 1
 43 43 l 1
 43 42 l 1
 44 42 l 1
 44 41 l 1
46 41 m 1
 45 41 l 1
 45 42 l 1
 44 42 l 1
 44 43 l 1
 46 43 l 1
 46 41 l 1
49 41 m 1
 47 41 l 1
 47 43 l 1
 49 43 l 1
 49 41 l 1
55 41 m 1
 53 41 l 1
 53 43 l 1
 55 43 l 1
 55 41 l 1
58 41 m 1
 56 41 l 1
 56 43 l 1
 57 43 l 1
 57 42 l 1
 58 42 l 1
 58 41 l 1
60 41 m 1
 59 41 l 1
 59 42 l 1
 58 42 l 1
 58 43 l 1
 60 43 l 1
 60 41 l 1
63 41 m 1
 61 41 l 1
 61 43 l 1
 63 43 l 1
 63 41 l 1
EndSplineSet
Ligature2: "'liga' Standard Ligatures in Latin lookup 0-1" five nine zero three seven
LCarets2: 1 0
EndChar

StartChar: custom_5_9_0_3_8
Encoding: 17994 -1 17749
Width: 70
Flags: H
LayerCount: 2
Fore
SplineSet
9 25 m 1
 7 25 l 1
 7 27 l 1
 9 27 l 1
 9 25 l 1
9 29 m 1
 7 29 l 1
 7 31 l 1
 9 31 l 1
 9 29 l 1
9 33 m 1
 7 33 l 1
 7 35 l 1
 9 35 l 1
 9 33 l 1
9 37 m 1
 7 37 l 1
 7 39 l 1
 9 39 l 1
 9 37 l 1
9 41 m 1
 7 41 l 1
 7 43 l 1
 9 43 l 1
 9 41 l 1
12 25 m 1
 10 25 l 1
 10 27 l 1
 11 27 l 1
 11 26 l 1
 12 26 l 1
 12 25 l 1
14 25 m 1
 13 25 l 1
 13 26 l 1
 12 26 l 1
 12 27 l 1
 14 27 l 1
 14 25 l 1
17 25 m 1
 15 25 l 1
 15 27 l 1
 17 27 l 1
 17 25 l 1
17 29 m 1
 15 29 l 1
 15 31 l 1
 17 31 l 1
 17 29 l 1
23 25 m 1
 21 25 l 1
 21 27 l 1
 23 27 l 1
 23 25 l 1
26 25 m 1
 24 25 l 1
 24 27 l 1
 25 27 l 1
 25 26 l 1
 26 26 l 1
 26 25 l 1
23 29 m 1
 21 29 l 1
 21 31 l 1
 23 31 l 1
 23 29 l 1
17 33 m 1
 15 33 l 1
 15 35 l 1
 17 35 l 1
 17 33 l 1
17 37 m 1
 15 37 l 1
 15 39 l 1
 17 39 l 1
 17 37 l 1
23 33 m 1
 21 33 l 1
 21 35 l 1
 23 35 l 1
 23 33 l 1
23 37 m 1
 21 37 l 1
 21 39 l 1
 23 39 l 1
 23 37 l 1
28 25 m 1
 27 25 l 1
 27 26 l 1
 26 26 l 1
 26 27 l 1
 28 27 l 1
 28 25 l 1
31 25 m 1
 29 25 l 1
 29 27 l 1
 31 27 l 1
 31 25 l 1
31 29 m 1
 29 29 l 1
 29 31 l 1
 31 31 l 1
 31 29 l 1
41 25 m 1
 39 25 l 1
 39 27 l 1
 41 27 l 1
 41 25 l 1
41 29 m 1
 39 29 l 1
 39 31 l 1
 41 31 l 1
 41 29 l 1
31 33 m 1
 29 33 l 1
 29 35 l 1
 31 35 l 1
 31 33 l 1
31 37 m 1
 29 37 l 1
 29 39 l 1
 31 39 l 1
 31 37 l 1
36 31 m 1
 34 31 l 1
 34 33 l 1
 36 33 l 1
 36 31 l 1
41 33 m 1
 39 33 l 1
 39 35 l 1
 41 35 l 1
 41 33 l 1
36 35 m 1
 34 35 l 1
 34 37 l 1
 36 37 l 1
 36 35 l 1
44 25 m 1
 42 25 l 1
 42 27 l 1
 43 27 l 1
 43 26 l 1
 44 26 l 1
 44 25 l 1
46 25 m 1
 45 25 l 1
 45 26 l 1
 44 26 l 1
 44 27 l 1
 46 27 l 1
 46 25 l 1
49 25 m 1
 47 25 l 1
 47 27 l 1
 49 27 l 1
 49 25 l 1
55 25 m 1
 53 25 l 1
 53 27 l 1
 55 27 l 1
 55 25 l 1
58 25 m 1
 56 25 l 1
 56 27 l 1
 57 27 l 1
 57 26 l 1
 58 26 l 1
 58 25 l 1
55 29 m 1
 53 29 l 1
 53 31 l 1
 55 31 l 1
 55 29 l 1
43 33 m 1
 42 33 l 1
 42 35 l 1
 44 35 l 1
 44 34 l 1
 43 34 l 1
 43 33 l 1
46 33 m 1
 44 33 l 1
 44 34 l 1
 45 34 l 1
 45 35 l 1
 46 35 l 1
 46 33 l 1
49 33 m 1
 47 33 l 1
 47 35 l 1
 49 35 l 1
 49 33 l 1
49 37 m 1
 47 37 l 1
 47 39 l 1
 49 39 l 1
 49 37 l 1
55 33 m 1
 53 33 l 1
 53 35 l 1
 55 35 l 1
 55 33 l 1
57 33 m 1
 56 33 l 1
 56 35 l 1
 58 35 l 1
 58 34 l 1
 57 34 l 1
 57 33 l 1
60 25 m 1
 59 25 l 1
 59 26 l 1
 58 26 l 1
 58 27 l 1
 60 27 l 1
 60 25 l 1
63 25 m 1
 61 25 l 1
 61 27 l 1
 63 27 l 1
 63 25 l 1
63 29 m 1
 61 29 l 1
 61 31 l 1
 63 31 l 1
 63 29 l 1
60 33 m 1
 58 33 l 1
 58 34 l 1
 59 34 l 1
 59 35 l 1
 60 35 l 1
 60 33 l 1
63 33 m 1
 61 33 l 1
 61 35 l 1
 63 35 l 1
 63 33 l 1
63 37 m 1
 61 37 l 1
 61 39 l 1
 63 39 l 1
 63 37 l 1
12 41 m 1
 10 41 l 1
 10 43 l 1
 11 43 l 1
 11 42 l 1
 12 42 l 1
 12 41 l 1
14 41 m 1
 13 41 l 1
 13 42 l 1
 12 42 l 1
 12 43 l 1
 14 43 l 1
 14 41 l 1
17 41 m 1
 15 41 l 1
 15 43 l 1
 17 43 l 1
 17 41 l 1
23 41 m 1
 21 41 l 1
 21 43 l 1
 23 43 l 1
 23 41 l 1
26 41 m 1
 24 41 l 1
 24 43 l 1
 25 43 l 1
 25 42 l 1
 26 42 l 1
 26 41 l 1
28 41 m 1
 27 41 l 1
 27 42 l 1
 26 42 l 1
 26 43 l 1
 28 43 l 1
 28 41 l 1
31 41 m 1
 29 41 l 1
 29 43 l 1
 31 43 l 1
 31 41 l 1
41 41 m 1
 39 41 l 1
 39 43 l 1
 41 43 l 1
 41 41 l 1
44 41 m 1
 42 41 l 1
 42 43 l 1
 43 43 l 1
 43 42 l 1
 44 42 l 1
 44 41 l 1
46 41 m 1
 45 41 l 1
 45 42 l 1
 44 42 l 1
 44 43 l 1
 46 43 l 1
 46 41 l 1
49 41 m 1
 47 41 l 1
 47 43 l 1
 49 43 l 1
 49 41 l 1
55 41 m 1
 53 41 l 1
 53 43 l 1
 55 43 l 1
 55 41 l 1
58 41 m 1
 56 41 l 1
 56 43 l 1
 57 43 l 1
 57 42 l 1
 58 42 l 1
 58 41 l 1
60 41 m 1
 59 41 l 1
 59 42 l 1
 58 42 l 1
 58 43 l 1
 60 43 l 1
 60 41 l 1
63 41 m 1
 61 41 l 1
 61 43 l 1
 63 43 l 1
 63 41 l 1
EndSplineSet
Ligature2: "'liga' Standard Ligatures in Latin lookup 0-1" five nine zero three eight
LCarets2: 1 0
EndChar

StartChar: custom_5_9_0_3_9
Encoding: 17995 -1 17750
Width: 70
Flags: H
LayerCount: 2
Fore
SplineSet
9 25 m 1
 7 25 l 1
 7 27 l 1
 9 27 l 1
 9 25 l 1
9 29 m 1
 7 29 l 1
 7 31 l 1
 9 31 l 1
 9 29 l 1
9 33 m 1
 7 33 l 1
 7 35 l 1
 9 35 l 1
 9 33 l 1
9 37 m 1
 7 37 l 1
 7 39 l 1
 9 39 l 1
 9 37 l 1
9 41 m 1
 7 41 l 1
 7 43 l 1
 9 43 l 1
 9 41 l 1
12 25 m 1
 10 25 l 1
 10 27 l 1
 11 27 l 1
 11 26 l 1
 12 26 l 1
 12 25 l 1
14 25 m 1
 13 25 l 1
 13 26 l 1
 12 26 l 1
 12 27 l 1
 14 27 l 1
 14 25 l 1
17 25 m 1
 15 25 l 1
 15 27 l 1
 17 27 l 1
 17 25 l 1
17 29 m 1
 15 29 l 1
 15 31 l 1
 17 31 l 1
 17 29 l 1
23 25 m 1
 21 25 l 1
 21 27 l 1
 23 27 l 1
 23 25 l 1
26 25 m 1
 24 25 l 1
 24 27 l 1
 25 27 l 1
 25 26 l 1
 26 26 l 1
 26 25 l 1
23 29 m 1
 21 29 l 1
 21 31 l 1
 23 31 l 1
 23 29 l 1
17 33 m 1
 15 33 l 1
 15 35 l 1
 17 35 l 1
 17 33 l 1
17 37 m 1
 15 37 l 1
 15 39 l 1
 17 39 l 1
 17 37 l 1
23 33 m 1
 21 33 l 1
 21 35 l 1
 23 35 l 1
 23 33 l 1
23 37 m 1
 21 37 l 1
 21 39 l 1
 23 39 l 1
 23 37 l 1
28 25 m 1
 27 25 l 1
 27 26 l 1
 26 26 l 1
 26 27 l 1
 28 27 l 1
 28 25 l 1
31 25 m 1
 29 25 l 1
 29 27 l 1
 31 27 l 1
 31 25 l 1
31 29 m 1
 29 29 l 1
 29 31 l 1
 31 31 l 1
 31 29 l 1
41 25 m 1
 39 25 l 1
 39 27 l 1
 41 27 l 1
 41 25 l 1
41 29 m 1
 39 29 l 1
 39 31 l 1
 41 31 l 1
 41 29 l 1
31 33 m 1
 29 33 l 1
 29 35 l 1
 31 35 l 1
 31 33 l 1
31 37 m 1
 29 37 l 1
 29 39 l 1
 31 39 l 1
 31 37 l 1
36 31 m 1
 34 31 l 1
 34 33 l 1
 36 33 l 1
 36 31 l 1
41 33 m 1
 39 33 l 1
 39 35 l 1
 41 35 l 1
 41 33 l 1
36 35 m 1
 34 35 l 1
 34 37 l 1
 36 37 l 1
 36 35 l 1
44 25 m 1
 42 25 l 1
 42 27 l 1
 43 27 l 1
 43 26 l 1
 44 26 l 1
 44 25 l 1
46 25 m 1
 45 25 l 1
 45 26 l 1
 44 26 l 1
 44 27 l 1
 46 27 l 1
 46 25 l 1
49 25 m 1
 47 25 l 1
 47 27 l 1
 49 27 l 1
 49 25 l 1
55 25 m 1
 53 25 l 1
 53 27 l 1
 55 27 l 1
 55 25 l 1
58 25 m 1
 56 25 l 1
 56 27 l 1
 57 27 l 1
 57 26 l 1
 58 26 l 1
 58 25 l 1
55 29 m 1
 53 29 l 1
 53 31 l 1
 55 31 l 1
 55 29 l 1
43 33 m 1
 42 33 l 1
 42 35 l 1
 44 35 l 1
 44 34 l 1
 43 34 l 1
 43 33 l 1
46 33 m 1
 44 33 l 1
 44 34 l 1
 45 34 l 1
 45 35 l 1
 46 35 l 1
 46 33 l 1
49 33 m 1
 47 33 l 1
 47 35 l 1
 49 35 l 1
 49 33 l 1
49 37 m 1
 47 37 l 1
 47 39 l 1
 49 39 l 1
 49 37 l 1
55 33 m 1
 53 33 l 1
 53 35 l 1
 55 35 l 1
 55 33 l 1
57 33 m 1
 56 33 l 1
 56 35 l 1
 58 35 l 1
 58 34 l 1
 57 34 l 1
 57 33 l 1
60 25 m 1
 59 25 l 1
 59 26 l 1
 58 26 l 1
 58 27 l 1
 60 27 l 1
 60 25 l 1
63 25 m 1
 61 25 l 1
 61 27 l 1
 63 27 l 1
 63 25 l 1
63 29 m 1
 61 29 l 1
 61 31 l 1
 63 31 l 1
 63 29 l 1
60 33 m 1
 58 33 l 1
 58 34 l 1
 59 34 l 1
 59 35 l 1
 60 35 l 1
 60 33 l 1
63 33 m 1
 61 33 l 1
 61 35 l 1
 63 35 l 1
 63 33 l 1
63 37 m 1
 61 37 l 1
 61 39 l 1
 63 39 l 1
 63 37 l 1
12 41 m 1
 10 41 l 1
 10 43 l 1
 11 43 l 1
 11 42 l 1
 12 42 l 1
 12 41 l 1
14 41 m 1
 13 41 l 1
 13 42 l 1
 12 42 l 1
 12 43 l 1
 14 43 l 1
 14 41 l 1
17 41 m 1
 15 41 l 1
 15 43 l 1
 17 43 l 1
 17 41 l 1
23 41 m 1
 21 41 l 1
 21 43 l 1
 23 43 l 1
 23 41 l 1
26 41 m 1
 24 41 l 1
 24 43 l 1
 25 43 l 1
 25 42 l 1
 26 42 l 1
 26 41 l 1
28 41 m 1
 27 41 l 1
 27 42 l 1
 26 42 l 1
 26 43 l 1
 28 43 l 1
 28 41 l 1
31 41 m 1
 29 41 l 1
 29 43 l 1
 31 43 l 1
 31 41 l 1
41 41 m 1
 39 41 l 1
 39 43 l 1
 41 43 l 1
 41 41 l 1
44 41 m 1
 42 41 l 1
 42 43 l 1
 43 43 l 1
 43 42 l 1
 44 42 l 1
 44 41 l 1
46 41 m 1
 45 41 l 1
 45 42 l 1
 44 42 l 1
 44 43 l 1
 46 43 l 1
 46 41 l 1
49 41 m 1
 47 41 l 1
 47 43 l 1
 49 43 l 1
 49 41 l 1
55 41 m 1
 53 41 l 1
 53 43 l 1
 55 43 l 1
 55 41 l 1
58 41 m 1
 56 41 l 1
 56 43 l 1
 57 43 l 1
 57 42 l 1
 58 42 l 1
 58 41 l 1
60 41 m 1
 59 41 l 1
 59 42 l 1
 58 42 l 1
 58 43 l 1
 60 43 l 1
 60 41 l 1
63 41 m 1
 61 41 l 1
 61 43 l 1
 63 43 l 1
 63 41 l 1
EndSplineSet
Ligature2: "'liga' Standard Ligatures in Latin lookup 0-1" five nine zero three nine
LCarets2: 1 0
EndChar

StartChar: custom_5_9_0_4_0
Encoding: 17996 -1 17751
Width: 70
Flags: H
LayerCount: 2
Fore
SplineSet
9 25 m 1
 7 25 l 1
 7 27 l 1
 9 27 l 1
 9 25 l 1
9 29 m 1
 7 29 l 1
 7 31 l 1
 9 31 l 1
 9 29 l 1
9 33 m 1
 7 33 l 1
 7 35 l 1
 9 35 l 1
 9 33 l 1
9 37 m 1
 7 37 l 1
 7 39 l 1
 9 39 l 1
 9 37 l 1
9 41 m 1
 7 41 l 1
 7 43 l 1
 9 43 l 1
 9 41 l 1
12 25 m 1
 10 25 l 1
 10 27 l 1
 11 27 l 1
 11 26 l 1
 12 26 l 1
 12 25 l 1
14 25 m 1
 13 25 l 1
 13 26 l 1
 12 26 l 1
 12 27 l 1
 14 27 l 1
 14 25 l 1
17 25 m 1
 15 25 l 1
 15 27 l 1
 17 27 l 1
 17 25 l 1
17 29 m 1
 15 29 l 1
 15 31 l 1
 17 31 l 1
 17 29 l 1
23 25 m 1
 21 25 l 1
 21 27 l 1
 23 27 l 1
 23 25 l 1
26 25 m 1
 24 25 l 1
 24 27 l 1
 25 27 l 1
 25 26 l 1
 26 26 l 1
 26 25 l 1
23 29 m 1
 21 29 l 1
 21 31 l 1
 23 31 l 1
 23 29 l 1
17 33 m 1
 15 33 l 1
 15 35 l 1
 17 35 l 1
 17 33 l 1
17 37 m 1
 15 37 l 1
 15 39 l 1
 17 39 l 1
 17 37 l 1
23 33 m 1
 21 33 l 1
 21 35 l 1
 23 35 l 1
 23 33 l 1
23 37 m 1
 21 37 l 1
 21 39 l 1
 23 39 l 1
 23 37 l 1
28 25 m 1
 27 25 l 1
 27 26 l 1
 26 26 l 1
 26 27 l 1
 28 27 l 1
 28 25 l 1
31 25 m 1
 29 25 l 1
 29 27 l 1
 31 27 l 1
 31 25 l 1
31 29 m 1
 29 29 l 1
 29 31 l 1
 31 31 l 1
 31 29 l 1
41 25 m 1
 39 25 l 1
 39 27 l 1
 41 27 l 1
 41 25 l 1
41 29 m 1
 39 29 l 1
 39 31 l 1
 41 31 l 1
 41 29 l 1
31 33 m 1
 29 33 l 1
 29 35 l 1
 31 35 l 1
 31 33 l 1
31 37 m 1
 29 37 l 1
 29 39 l 1
 31 39 l 1
 31 37 l 1
36 31 m 1
 34 31 l 1
 34 33 l 1
 36 33 l 1
 36 31 l 1
41 33 m 1
 39 33 l 1
 39 35 l 1
 41 35 l 1
 41 33 l 1
36 35 m 1
 34 35 l 1
 34 37 l 1
 36 37 l 1
 36 35 l 1
44 25 m 1
 42 25 l 1
 42 27 l 1
 43 27 l 1
 43 26 l 1
 44 26 l 1
 44 25 l 1
46 25 m 1
 45 25 l 1
 45 26 l 1
 44 26 l 1
 44 27 l 1
 46 27 l 1
 46 25 l 1
49 25 m 1
 47 25 l 1
 47 27 l 1
 49 27 l 1
 49 25 l 1
55 25 m 1
 53 25 l 1
 53 27 l 1
 55 27 l 1
 55 25 l 1
58 25 m 1
 56 25 l 1
 56 27 l 1
 57 27 l 1
 57 26 l 1
 58 26 l 1
 58 25 l 1
55 29 m 1
 53 29 l 1
 53 31 l 1
 55 31 l 1
 55 29 l 1
43 33 m 1
 42 33 l 1
 42 35 l 1
 44 35 l 1
 44 34 l 1
 43 34 l 1
 43 33 l 1
46 33 m 1
 44 33 l 1
 44 34 l 1
 45 34 l 1
 45 35 l 1
 46 35 l 1
 46 33 l 1
49 33 m 1
 47 33 l 1
 47 35 l 1
 49 35 l 1
 49 33 l 1
49 37 m 1
 47 37 l 1
 47 39 l 1
 49 39 l 1
 49 37 l 1
55 33 m 1
 53 33 l 1
 53 35 l 1
 55 35 l 1
 55 33 l 1
57 33 m 1
 56 33 l 1
 56 35 l 1
 58 35 l 1
 58 34 l 1
 57 34 l 1
 57 33 l 1
60 25 m 1
 59 25 l 1
 59 26 l 1
 58 26 l 1
 58 27 l 1
 60 27 l 1
 60 25 l 1
63 25 m 1
 61 25 l 1
 61 27 l 1
 63 27 l 1
 63 25 l 1
63 29 m 1
 61 29 l 1
 61 31 l 1
 63 31 l 1
 63 29 l 1
60 33 m 1
 58 33 l 1
 58 34 l 1
 59 34 l 1
 59 35 l 1
 60 35 l 1
 60 33 l 1
63 33 m 1
 61 33 l 1
 61 35 l 1
 63 35 l 1
 63 33 l 1
63 37 m 1
 61 37 l 1
 61 39 l 1
 63 39 l 1
 63 37 l 1
12 41 m 1
 10 41 l 1
 10 43 l 1
 11 43 l 1
 11 42 l 1
 12 42 l 1
 12 41 l 1
14 41 m 1
 13 41 l 1
 13 42 l 1
 12 42 l 1
 12 43 l 1
 14 43 l 1
 14 41 l 1
17 41 m 1
 15 41 l 1
 15 43 l 1
 17 43 l 1
 17 41 l 1
23 41 m 1
 21 41 l 1
 21 43 l 1
 23 43 l 1
 23 41 l 1
26 41 m 1
 24 41 l 1
 24 43 l 1
 25 43 l 1
 25 42 l 1
 26 42 l 1
 26 41 l 1
28 41 m 1
 27 41 l 1
 27 42 l 1
 26 42 l 1
 26 43 l 1
 28 43 l 1
 28 41 l 1
31 41 m 1
 29 41 l 1
 29 43 l 1
 31 43 l 1
 31 41 l 1
41 41 m 1
 39 41 l 1
 39 43 l 1
 41 43 l 1
 41 41 l 1
44 41 m 1
 42 41 l 1
 42 43 l 1
 43 43 l 1
 43 42 l 1
 44 42 l 1
 44 41 l 1
46 41 m 1
 45 41 l 1
 45 42 l 1
 44 42 l 1
 44 43 l 1
 46 43 l 1
 46 41 l 1
49 41 m 1
 47 41 l 1
 47 43 l 1
 49 43 l 1
 49 41 l 1
55 41 m 1
 53 41 l 1
 53 43 l 1
 55 43 l 1
 55 41 l 1
58 41 m 1
 56 41 l 1
 56 43 l 1
 57 43 l 1
 57 42 l 1
 58 42 l 1
 58 41 l 1
60 41 m 1
 59 41 l 1
 59 42 l 1
 58 42 l 1
 58 43 l 1
 60 43 l 1
 60 41 l 1
63 41 m 1
 61 41 l 1
 61 43 l 1
 63 43 l 1
 63 41 l 1
EndSplineSet
Ligature2: "'liga' Standard Ligatures in Latin lookup 0-1" five nine zero four zero
LCarets2: 1 0
EndChar

StartChar: custom_5_9_0_4_1
Encoding: 17997 -1 17752
Width: 70
Flags: H
LayerCount: 2
Fore
SplineSet
9 25 m 1
 7 25 l 1
 7 27 l 1
 9 27 l 1
 9 25 l 1
9 29 m 1
 7 29 l 1
 7 31 l 1
 9 31 l 1
 9 29 l 1
9 33 m 1
 7 33 l 1
 7 35 l 1
 9 35 l 1
 9 33 l 1
9 37 m 1
 7 37 l 1
 7 39 l 1
 9 39 l 1
 9 37 l 1
9 41 m 1
 7 41 l 1
 7 43 l 1
 9 43 l 1
 9 41 l 1
12 25 m 1
 10 25 l 1
 10 27 l 1
 11 27 l 1
 11 26 l 1
 12 26 l 1
 12 25 l 1
14 25 m 1
 13 25 l 1
 13 26 l 1
 12 26 l 1
 12 27 l 1
 14 27 l 1
 14 25 l 1
17 25 m 1
 15 25 l 1
 15 27 l 1
 17 27 l 1
 17 25 l 1
17 29 m 1
 15 29 l 1
 15 31 l 1
 17 31 l 1
 17 29 l 1
23 25 m 1
 21 25 l 1
 21 27 l 1
 23 27 l 1
 23 25 l 1
26 25 m 1
 24 25 l 1
 24 27 l 1
 25 27 l 1
 25 26 l 1
 26 26 l 1
 26 25 l 1
23 29 m 1
 21 29 l 1
 21 31 l 1
 23 31 l 1
 23 29 l 1
17 33 m 1
 15 33 l 1
 15 35 l 1
 17 35 l 1
 17 33 l 1
17 37 m 1
 15 37 l 1
 15 39 l 1
 17 39 l 1
 17 37 l 1
23 33 m 1
 21 33 l 1
 21 35 l 1
 23 35 l 1
 23 33 l 1
23 37 m 1
 21 37 l 1
 21 39 l 1
 23 39 l 1
 23 37 l 1
28 25 m 1
 27 25 l 1
 27 26 l 1
 26 26 l 1
 26 27 l 1
 28 27 l 1
 28 25 l 1
31 25 m 1
 29 25 l 1
 29 27 l 1
 31 27 l 1
 31 25 l 1
31 29 m 1
 29 29 l 1
 29 31 l 1
 31 31 l 1
 31 29 l 1
41 25 m 1
 39 25 l 1
 39 27 l 1
 41 27 l 1
 41 25 l 1
41 29 m 1
 39 29 l 1
 39 31 l 1
 41 31 l 1
 41 29 l 1
31 33 m 1
 29 33 l 1
 29 35 l 1
 31 35 l 1
 31 33 l 1
31 37 m 1
 29 37 l 1
 29 39 l 1
 31 39 l 1
 31 37 l 1
36 31 m 1
 34 31 l 1
 34 33 l 1
 36 33 l 1
 36 31 l 1
41 33 m 1
 39 33 l 1
 39 35 l 1
 41 35 l 1
 41 33 l 1
36 35 m 1
 34 35 l 1
 34 37 l 1
 36 37 l 1
 36 35 l 1
44 25 m 1
 42 25 l 1
 42 27 l 1
 43 27 l 1
 43 26 l 1
 44 26 l 1
 44 25 l 1
46 25 m 1
 45 25 l 1
 45 26 l 1
 44 26 l 1
 44 27 l 1
 46 27 l 1
 46 25 l 1
49 25 m 1
 47 25 l 1
 47 27 l 1
 49 27 l 1
 49 25 l 1
55 25 m 1
 53 25 l 1
 53 27 l 1
 55 27 l 1
 55 25 l 1
58 25 m 1
 56 25 l 1
 56 27 l 1
 57 27 l 1
 57 26 l 1
 58 26 l 1
 58 25 l 1
55 29 m 1
 53 29 l 1
 53 31 l 1
 55 31 l 1
 55 29 l 1
43 33 m 1
 42 33 l 1
 42 35 l 1
 44 35 l 1
 44 34 l 1
 43 34 l 1
 43 33 l 1
46 33 m 1
 44 33 l 1
 44 34 l 1
 45 34 l 1
 45 35 l 1
 46 35 l 1
 46 33 l 1
49 33 m 1
 47 33 l 1
 47 35 l 1
 49 35 l 1
 49 33 l 1
49 37 m 1
 47 37 l 1
 47 39 l 1
 49 39 l 1
 49 37 l 1
55 33 m 1
 53 33 l 1
 53 35 l 1
 55 35 l 1
 55 33 l 1
57 33 m 1
 56 33 l 1
 56 35 l 1
 58 35 l 1
 58 34 l 1
 57 34 l 1
 57 33 l 1
60 25 m 1
 59 25 l 1
 59 26 l 1
 58 26 l 1
 58 27 l 1
 60 27 l 1
 60 25 l 1
63 25 m 1
 61 25 l 1
 61 27 l 1
 63 27 l 1
 63 25 l 1
63 29 m 1
 61 29 l 1
 61 31 l 1
 63 31 l 1
 63 29 l 1
60 33 m 1
 58 33 l 1
 58 34 l 1
 59 34 l 1
 59 35 l 1
 60 35 l 1
 60 33 l 1
63 33 m 1
 61 33 l 1
 61 35 l 1
 63 35 l 1
 63 33 l 1
63 37 m 1
 61 37 l 1
 61 39 l 1
 63 39 l 1
 63 37 l 1
12 41 m 1
 10 41 l 1
 10 43 l 1
 11 43 l 1
 11 42 l 1
 12 42 l 1
 12 41 l 1
14 41 m 1
 13 41 l 1
 13 42 l 1
 12 42 l 1
 12 43 l 1
 14 43 l 1
 14 41 l 1
17 41 m 1
 15 41 l 1
 15 43 l 1
 17 43 l 1
 17 41 l 1
23 41 m 1
 21 41 l 1
 21 43 l 1
 23 43 l 1
 23 41 l 1
26 41 m 1
 24 41 l 1
 24 43 l 1
 25 43 l 1
 25 42 l 1
 26 42 l 1
 26 41 l 1
28 41 m 1
 27 41 l 1
 27 42 l 1
 26 42 l 1
 26 43 l 1
 28 43 l 1
 28 41 l 1
31 41 m 1
 29 41 l 1
 29 43 l 1
 31 43 l 1
 31 41 l 1
41 41 m 1
 39 41 l 1
 39 43 l 1
 41 43 l 1
 41 41 l 1
44 41 m 1
 42 41 l 1
 42 43 l 1
 43 43 l 1
 43 42 l 1
 44 42 l 1
 44 41 l 1
46 41 m 1
 45 41 l 1
 45 42 l 1
 44 42 l 1
 44 43 l 1
 46 43 l 1
 46 41 l 1
49 41 m 1
 47 41 l 1
 47 43 l 1
 49 43 l 1
 49 41 l 1
55 41 m 1
 53 41 l 1
 53 43 l 1
 55 43 l 1
 55 41 l 1
58 41 m 1
 56 41 l 1
 56 43 l 1
 57 43 l 1
 57 42 l 1
 58 42 l 1
 58 41 l 1
60 41 m 1
 59 41 l 1
 59 42 l 1
 58 42 l 1
 58 43 l 1
 60 43 l 1
 60 41 l 1
63 41 m 1
 61 41 l 1
 61 43 l 1
 63 43 l 1
 63 41 l 1
EndSplineSet
Ligature2: "'liga' Standard Ligatures in Latin lookup 0-1" five nine zero four one
LCarets2: 1 0
EndChar

StartChar: custom_5_9_0_4_2
Encoding: 17998 -1 17753
Width: 70
Flags: H
LayerCount: 2
Fore
SplineSet
9 25 m 1
 7 25 l 1
 7 27 l 1
 9 27 l 1
 9 25 l 1
9 29 m 1
 7 29 l 1
 7 31 l 1
 9 31 l 1
 9 29 l 1
9 33 m 1
 7 33 l 1
 7 35 l 1
 9 35 l 1
 9 33 l 1
9 37 m 1
 7 37 l 1
 7 39 l 1
 9 39 l 1
 9 37 l 1
9 41 m 1
 7 41 l 1
 7 43 l 1
 9 43 l 1
 9 41 l 1
12 25 m 1
 10 25 l 1
 10 27 l 1
 11 27 l 1
 11 26 l 1
 12 26 l 1
 12 25 l 1
14 25 m 1
 13 25 l 1
 13 26 l 1
 12 26 l 1
 12 27 l 1
 14 27 l 1
 14 25 l 1
17 25 m 1
 15 25 l 1
 15 27 l 1
 17 27 l 1
 17 25 l 1
17 29 m 1
 15 29 l 1
 15 31 l 1
 17 31 l 1
 17 29 l 1
23 25 m 1
 21 25 l 1
 21 27 l 1
 23 27 l 1
 23 25 l 1
26 25 m 1
 24 25 l 1
 24 27 l 1
 25 27 l 1
 25 26 l 1
 26 26 l 1
 26 25 l 1
23 29 m 1
 21 29 l 1
 21 31 l 1
 23 31 l 1
 23 29 l 1
17 33 m 1
 15 33 l 1
 15 35 l 1
 17 35 l 1
 17 33 l 1
17 37 m 1
 15 37 l 1
 15 39 l 1
 17 39 l 1
 17 37 l 1
23 33 m 1
 21 33 l 1
 21 35 l 1
 23 35 l 1
 23 33 l 1
23 37 m 1
 21 37 l 1
 21 39 l 1
 23 39 l 1
 23 37 l 1
28 25 m 1
 27 25 l 1
 27 26 l 1
 26 26 l 1
 26 27 l 1
 28 27 l 1
 28 25 l 1
31 25 m 1
 29 25 l 1
 29 27 l 1
 31 27 l 1
 31 25 l 1
31 29 m 1
 29 29 l 1
 29 31 l 1
 31 31 l 1
 31 29 l 1
41 25 m 1
 39 25 l 1
 39 27 l 1
 41 27 l 1
 41 25 l 1
41 29 m 1
 39 29 l 1
 39 31 l 1
 41 31 l 1
 41 29 l 1
31 33 m 1
 29 33 l 1
 29 35 l 1
 31 35 l 1
 31 33 l 1
31 37 m 1
 29 37 l 1
 29 39 l 1
 31 39 l 1
 31 37 l 1
36 31 m 1
 34 31 l 1
 34 33 l 1
 36 33 l 1
 36 31 l 1
41 33 m 1
 39 33 l 1
 39 35 l 1
 41 35 l 1
 41 33 l 1
36 35 m 1
 34 35 l 1
 34 37 l 1
 36 37 l 1
 36 35 l 1
44 25 m 1
 42 25 l 1
 42 27 l 1
 43 27 l 1
 43 26 l 1
 44 26 l 1
 44 25 l 1
46 25 m 1
 45 25 l 1
 45 26 l 1
 44 26 l 1
 44 27 l 1
 46 27 l 1
 46 25 l 1
49 25 m 1
 47 25 l 1
 47 27 l 1
 49 27 l 1
 49 25 l 1
55 25 m 1
 53 25 l 1
 53 27 l 1
 55 27 l 1
 55 25 l 1
58 25 m 1
 56 25 l 1
 56 27 l 1
 57 27 l 1
 57 26 l 1
 58 26 l 1
 58 25 l 1
55 29 m 1
 53 29 l 1
 53 31 l 1
 55 31 l 1
 55 29 l 1
43 33 m 1
 42 33 l 1
 42 35 l 1
 44 35 l 1
 44 34 l 1
 43 34 l 1
 43 33 l 1
46 33 m 1
 44 33 l 1
 44 34 l 1
 45 34 l 1
 45 35 l 1
 46 35 l 1
 46 33 l 1
49 33 m 1
 47 33 l 1
 47 35 l 1
 49 35 l 1
 49 33 l 1
49 37 m 1
 47 37 l 1
 47 39 l 1
 49 39 l 1
 49 37 l 1
55 33 m 1
 53 33 l 1
 53 35 l 1
 55 35 l 1
 55 33 l 1
57 33 m 1
 56 33 l 1
 56 35 l 1
 58 35 l 1
 58 34 l 1
 57 34 l 1
 57 33 l 1
60 25 m 1
 59 25 l 1
 59 26 l 1
 58 26 l 1
 58 27 l 1
 60 27 l 1
 60 25 l 1
63 25 m 1
 61 25 l 1
 61 27 l 1
 63 27 l 1
 63 25 l 1
63 29 m 1
 61 29 l 1
 61 31 l 1
 63 31 l 1
 63 29 l 1
60 33 m 1
 58 33 l 1
 58 34 l 1
 59 34 l 1
 59 35 l 1
 60 35 l 1
 60 33 l 1
63 33 m 1
 61 33 l 1
 61 35 l 1
 63 35 l 1
 63 33 l 1
63 37 m 1
 61 37 l 1
 61 39 l 1
 63 39 l 1
 63 37 l 1
12 41 m 1
 10 41 l 1
 10 43 l 1
 11 43 l 1
 11 42 l 1
 12 42 l 1
 12 41 l 1
14 41 m 1
 13 41 l 1
 13 42 l 1
 12 42 l 1
 12 43 l 1
 14 43 l 1
 14 41 l 1
17 41 m 1
 15 41 l 1
 15 43 l 1
 17 43 l 1
 17 41 l 1
23 41 m 1
 21 41 l 1
 21 43 l 1
 23 43 l 1
 23 41 l 1
26 41 m 1
 24 41 l 1
 24 43 l 1
 25 43 l 1
 25 42 l 1
 26 42 l 1
 26 41 l 1
28 41 m 1
 27 41 l 1
 27 42 l 1
 26 42 l 1
 26 43 l 1
 28 43 l 1
 28 41 l 1
31 41 m 1
 29 41 l 1
 29 43 l 1
 31 43 l 1
 31 41 l 1
41 41 m 1
 39 41 l 1
 39 43 l 1
 41 43 l 1
 41 41 l 1
44 41 m 1
 42 41 l 1
 42 43 l 1
 43 43 l 1
 43 42 l 1
 44 42 l 1
 44 41 l 1
46 41 m 1
 45 41 l 1
 45 42 l 1
 44 42 l 1
 44 43 l 1
 46 43 l 1
 46 41 l 1
49 41 m 1
 47 41 l 1
 47 43 l 1
 49 43 l 1
 49 41 l 1
55 41 m 1
 53 41 l 1
 53 43 l 1
 55 43 l 1
 55 41 l 1
58 41 m 1
 56 41 l 1
 56 43 l 1
 57 43 l 1
 57 42 l 1
 58 42 l 1
 58 41 l 1
60 41 m 1
 59 41 l 1
 59 42 l 1
 58 42 l 1
 58 43 l 1
 60 43 l 1
 60 41 l 1
63 41 m 1
 61 41 l 1
 61 43 l 1
 63 43 l 1
 63 41 l 1
EndSplineSet
Ligature2: "'liga' Standard Ligatures in Latin lookup 0-1" five nine zero four two
LCarets2: 1 0
EndChar

StartChar: custom_5_9_0_4_3
Encoding: 17999 -1 17754
Width: 70
Flags: H
LayerCount: 2
Fore
SplineSet
9 25 m 1
 7 25 l 1
 7 27 l 1
 9 27 l 1
 9 25 l 1
9 29 m 1
 7 29 l 1
 7 31 l 1
 9 31 l 1
 9 29 l 1
9 33 m 1
 7 33 l 1
 7 35 l 1
 9 35 l 1
 9 33 l 1
9 37 m 1
 7 37 l 1
 7 39 l 1
 9 39 l 1
 9 37 l 1
9 41 m 1
 7 41 l 1
 7 43 l 1
 9 43 l 1
 9 41 l 1
12 25 m 1
 10 25 l 1
 10 27 l 1
 11 27 l 1
 11 26 l 1
 12 26 l 1
 12 25 l 1
14 25 m 1
 13 25 l 1
 13 26 l 1
 12 26 l 1
 12 27 l 1
 14 27 l 1
 14 25 l 1
17 25 m 1
 15 25 l 1
 15 27 l 1
 17 27 l 1
 17 25 l 1
17 29 m 1
 15 29 l 1
 15 31 l 1
 17 31 l 1
 17 29 l 1
23 25 m 1
 21 25 l 1
 21 27 l 1
 23 27 l 1
 23 25 l 1
26 25 m 1
 24 25 l 1
 24 27 l 1
 25 27 l 1
 25 26 l 1
 26 26 l 1
 26 25 l 1
23 29 m 1
 21 29 l 1
 21 31 l 1
 23 31 l 1
 23 29 l 1
17 33 m 1
 15 33 l 1
 15 35 l 1
 17 35 l 1
 17 33 l 1
17 37 m 1
 15 37 l 1
 15 39 l 1
 17 39 l 1
 17 37 l 1
23 33 m 1
 21 33 l 1
 21 35 l 1
 23 35 l 1
 23 33 l 1
23 37 m 1
 21 37 l 1
 21 39 l 1
 23 39 l 1
 23 37 l 1
28 25 m 1
 27 25 l 1
 27 26 l 1
 26 26 l 1
 26 27 l 1
 28 27 l 1
 28 25 l 1
31 25 m 1
 29 25 l 1
 29 27 l 1
 31 27 l 1
 31 25 l 1
31 29 m 1
 29 29 l 1
 29 31 l 1
 31 31 l 1
 31 29 l 1
41 25 m 1
 39 25 l 1
 39 27 l 1
 41 27 l 1
 41 25 l 1
41 29 m 1
 39 29 l 1
 39 31 l 1
 41 31 l 1
 41 29 l 1
31 33 m 1
 29 33 l 1
 29 35 l 1
 31 35 l 1
 31 33 l 1
31 37 m 1
 29 37 l 1
 29 39 l 1
 31 39 l 1
 31 37 l 1
36 31 m 1
 34 31 l 1
 34 33 l 1
 36 33 l 1
 36 31 l 1
41 33 m 1
 39 33 l 1
 39 35 l 1
 41 35 l 1
 41 33 l 1
36 35 m 1
 34 35 l 1
 34 37 l 1
 36 37 l 1
 36 35 l 1
44 25 m 1
 42 25 l 1
 42 27 l 1
 43 27 l 1
 43 26 l 1
 44 26 l 1
 44 25 l 1
46 25 m 1
 45 25 l 1
 45 26 l 1
 44 26 l 1
 44 27 l 1
 46 27 l 1
 46 25 l 1
49 25 m 1
 47 25 l 1
 47 27 l 1
 49 27 l 1
 49 25 l 1
55 25 m 1
 53 25 l 1
 53 27 l 1
 55 27 l 1
 55 25 l 1
58 25 m 1
 56 25 l 1
 56 27 l 1
 57 27 l 1
 57 26 l 1
 58 26 l 1
 58 25 l 1
55 29 m 1
 53 29 l 1
 53 31 l 1
 55 31 l 1
 55 29 l 1
43 33 m 1
 42 33 l 1
 42 35 l 1
 44 35 l 1
 44 34 l 1
 43 34 l 1
 43 33 l 1
46 33 m 1
 44 33 l 1
 44 34 l 1
 45 34 l 1
 45 35 l 1
 46 35 l 1
 46 33 l 1
49 33 m 1
 47 33 l 1
 47 35 l 1
 49 35 l 1
 49 33 l 1
49 37 m 1
 47 37 l 1
 47 39 l 1
 49 39 l 1
 49 37 l 1
55 33 m 1
 53 33 l 1
 53 35 l 1
 55 35 l 1
 55 33 l 1
57 33 m 1
 56 33 l 1
 56 35 l 1
 58 35 l 1
 58 34 l 1
 57 34 l 1
 57 33 l 1
60 25 m 1
 59 25 l 1
 59 26 l 1
 58 26 l 1
 58 27 l 1
 60 27 l 1
 60 25 l 1
63 25 m 1
 61 25 l 1
 61 27 l 1
 63 27 l 1
 63 25 l 1
63 29 m 1
 61 29 l 1
 61 31 l 1
 63 31 l 1
 63 29 l 1
60 33 m 1
 58 33 l 1
 58 34 l 1
 59 34 l 1
 59 35 l 1
 60 35 l 1
 60 33 l 1
63 33 m 1
 61 33 l 1
 61 35 l 1
 63 35 l 1
 63 33 l 1
63 37 m 1
 61 37 l 1
 61 39 l 1
 63 39 l 1
 63 37 l 1
12 41 m 1
 10 41 l 1
 10 43 l 1
 11 43 l 1
 11 42 l 1
 12 42 l 1
 12 41 l 1
14 41 m 1
 13 41 l 1
 13 42 l 1
 12 42 l 1
 12 43 l 1
 14 43 l 1
 14 41 l 1
17 41 m 1
 15 41 l 1
 15 43 l 1
 17 43 l 1
 17 41 l 1
23 41 m 1
 21 41 l 1
 21 43 l 1
 23 43 l 1
 23 41 l 1
26 41 m 1
 24 41 l 1
 24 43 l 1
 25 43 l 1
 25 42 l 1
 26 42 l 1
 26 41 l 1
28 41 m 1
 27 41 l 1
 27 42 l 1
 26 42 l 1
 26 43 l 1
 28 43 l 1
 28 41 l 1
31 41 m 1
 29 41 l 1
 29 43 l 1
 31 43 l 1
 31 41 l 1
41 41 m 1
 39 41 l 1
 39 43 l 1
 41 43 l 1
 41 41 l 1
44 41 m 1
 42 41 l 1
 42 43 l 1
 43 43 l 1
 43 42 l 1
 44 42 l 1
 44 41 l 1
46 41 m 1
 45 41 l 1
 45 42 l 1
 44 42 l 1
 44 43 l 1
 46 43 l 1
 46 41 l 1
49 41 m 1
 47 41 l 1
 47 43 l 1
 49 43 l 1
 49 41 l 1
55 41 m 1
 53 41 l 1
 53 43 l 1
 55 43 l 1
 55 41 l 1
58 41 m 1
 56 41 l 1
 56 43 l 1
 57 43 l 1
 57 42 l 1
 58 42 l 1
 58 41 l 1
60 41 m 1
 59 41 l 1
 59 42 l 1
 58 42 l 1
 58 43 l 1
 60 43 l 1
 60 41 l 1
63 41 m 1
 61 41 l 1
 61 43 l 1
 63 43 l 1
 63 41 l 1
EndSplineSet
Ligature2: "'liga' Standard Ligatures in Latin lookup 0-1" five nine zero four three
LCarets2: 1 0
EndChar

StartChar: custom_5_9_0_4_4
Encoding: 18000 -1 17755
Width: 70
Flags: H
LayerCount: 2
Fore
SplineSet
9 25 m 1
 7 25 l 1
 7 27 l 1
 9 27 l 1
 9 25 l 1
9 29 m 1
 7 29 l 1
 7 31 l 1
 9 31 l 1
 9 29 l 1
9 33 m 1
 7 33 l 1
 7 35 l 1
 9 35 l 1
 9 33 l 1
9 37 m 1
 7 37 l 1
 7 39 l 1
 9 39 l 1
 9 37 l 1
9 41 m 1
 7 41 l 1
 7 43 l 1
 9 43 l 1
 9 41 l 1
12 25 m 1
 10 25 l 1
 10 27 l 1
 11 27 l 1
 11 26 l 1
 12 26 l 1
 12 25 l 1
14 25 m 1
 13 25 l 1
 13 26 l 1
 12 26 l 1
 12 27 l 1
 14 27 l 1
 14 25 l 1
17 25 m 1
 15 25 l 1
 15 27 l 1
 17 27 l 1
 17 25 l 1
17 29 m 1
 15 29 l 1
 15 31 l 1
 17 31 l 1
 17 29 l 1
23 25 m 1
 21 25 l 1
 21 27 l 1
 23 27 l 1
 23 25 l 1
26 25 m 1
 24 25 l 1
 24 27 l 1
 25 27 l 1
 25 26 l 1
 26 26 l 1
 26 25 l 1
23 29 m 1
 21 29 l 1
 21 31 l 1
 23 31 l 1
 23 29 l 1
17 33 m 1
 15 33 l 1
 15 35 l 1
 17 35 l 1
 17 33 l 1
17 37 m 1
 15 37 l 1
 15 39 l 1
 17 39 l 1
 17 37 l 1
23 33 m 1
 21 33 l 1
 21 35 l 1
 23 35 l 1
 23 33 l 1
23 37 m 1
 21 37 l 1
 21 39 l 1
 23 39 l 1
 23 37 l 1
28 25 m 1
 27 25 l 1
 27 26 l 1
 26 26 l 1
 26 27 l 1
 28 27 l 1
 28 25 l 1
31 25 m 1
 29 25 l 1
 29 27 l 1
 31 27 l 1
 31 25 l 1
31 29 m 1
 29 29 l 1
 29 31 l 1
 31 31 l 1
 31 29 l 1
41 25 m 1
 39 25 l 1
 39 27 l 1
 41 27 l 1
 41 25 l 1
41 29 m 1
 39 29 l 1
 39 31 l 1
 41 31 l 1
 41 29 l 1
31 33 m 1
 29 33 l 1
 29 35 l 1
 31 35 l 1
 31 33 l 1
31 37 m 1
 29 37 l 1
 29 39 l 1
 31 39 l 1
 31 37 l 1
36 31 m 1
 34 31 l 1
 34 33 l 1
 36 33 l 1
 36 31 l 1
41 33 m 1
 39 33 l 1
 39 35 l 1
 41 35 l 1
 41 33 l 1
36 35 m 1
 34 35 l 1
 34 37 l 1
 36 37 l 1
 36 35 l 1
44 25 m 1
 42 25 l 1
 42 27 l 1
 43 27 l 1
 43 26 l 1
 44 26 l 1
 44 25 l 1
46 25 m 1
 45 25 l 1
 45 26 l 1
 44 26 l 1
 44 27 l 1
 46 27 l 1
 46 25 l 1
49 25 m 1
 47 25 l 1
 47 27 l 1
 49 27 l 1
 49 25 l 1
55 25 m 1
 53 25 l 1
 53 27 l 1
 55 27 l 1
 55 25 l 1
58 25 m 1
 56 25 l 1
 56 27 l 1
 57 27 l 1
 57 26 l 1
 58 26 l 1
 58 25 l 1
55 29 m 1
 53 29 l 1
 53 31 l 1
 55 31 l 1
 55 29 l 1
43 33 m 1
 42 33 l 1
 42 35 l 1
 44 35 l 1
 44 34 l 1
 43 34 l 1
 43 33 l 1
46 33 m 1
 44 33 l 1
 44 34 l 1
 45 34 l 1
 45 35 l 1
 46 35 l 1
 46 33 l 1
49 33 m 1
 47 33 l 1
 47 35 l 1
 49 35 l 1
 49 33 l 1
49 37 m 1
 47 37 l 1
 47 39 l 1
 49 39 l 1
 49 37 l 1
55 33 m 1
 53 33 l 1
 53 35 l 1
 55 35 l 1
 55 33 l 1
57 33 m 1
 56 33 l 1
 56 35 l 1
 58 35 l 1
 58 34 l 1
 57 34 l 1
 57 33 l 1
60 25 m 1
 59 25 l 1
 59 26 l 1
 58 26 l 1
 58 27 l 1
 60 27 l 1
 60 25 l 1
63 25 m 1
 61 25 l 1
 61 27 l 1
 63 27 l 1
 63 25 l 1
63 29 m 1
 61 29 l 1
 61 31 l 1
 63 31 l 1
 63 29 l 1
60 33 m 1
 58 33 l 1
 58 34 l 1
 59 34 l 1
 59 35 l 1
 60 35 l 1
 60 33 l 1
63 33 m 1
 61 33 l 1
 61 35 l 1
 63 35 l 1
 63 33 l 1
63 37 m 1
 61 37 l 1
 61 39 l 1
 63 39 l 1
 63 37 l 1
12 41 m 1
 10 41 l 1
 10 43 l 1
 11 43 l 1
 11 42 l 1
 12 42 l 1
 12 41 l 1
14 41 m 1
 13 41 l 1
 13 42 l 1
 12 42 l 1
 12 43 l 1
 14 43 l 1
 14 41 l 1
17 41 m 1
 15 41 l 1
 15 43 l 1
 17 43 l 1
 17 41 l 1
23 41 m 1
 21 41 l 1
 21 43 l 1
 23 43 l 1
 23 41 l 1
26 41 m 1
 24 41 l 1
 24 43 l 1
 25 43 l 1
 25 42 l 1
 26 42 l 1
 26 41 l 1
28 41 m 1
 27 41 l 1
 27 42 l 1
 26 42 l 1
 26 43 l 1
 28 43 l 1
 28 41 l 1
31 41 m 1
 29 41 l 1
 29 43 l 1
 31 43 l 1
 31 41 l 1
41 41 m 1
 39 41 l 1
 39 43 l 1
 41 43 l 1
 41 41 l 1
44 41 m 1
 42 41 l 1
 42 43 l 1
 43 43 l 1
 43 42 l 1
 44 42 l 1
 44 41 l 1
46 41 m 1
 45 41 l 1
 45 42 l 1
 44 42 l 1
 44 43 l 1
 46 43 l 1
 46 41 l 1
49 41 m 1
 47 41 l 1
 47 43 l 1
 49 43 l 1
 49 41 l 1
55 41 m 1
 53 41 l 1
 53 43 l 1
 55 43 l 1
 55 41 l 1
58 41 m 1
 56 41 l 1
 56 43 l 1
 57 43 l 1
 57 42 l 1
 58 42 l 1
 58 41 l 1
60 41 m 1
 59 41 l 1
 59 42 l 1
 58 42 l 1
 58 43 l 1
 60 43 l 1
 60 41 l 1
63 41 m 1
 61 41 l 1
 61 43 l 1
 63 43 l 1
 63 41 l 1
EndSplineSet
Ligature2: "'liga' Standard Ligatures in Latin lookup 0-1" five nine zero four four
LCarets2: 1 0
EndChar

StartChar: custom_5_9_0_4_5
Encoding: 18001 -1 17756
Width: 70
Flags: H
LayerCount: 2
Fore
SplineSet
9 25 m 1
 7 25 l 1
 7 27 l 1
 9 27 l 1
 9 25 l 1
9 29 m 1
 7 29 l 1
 7 31 l 1
 9 31 l 1
 9 29 l 1
9 33 m 1
 7 33 l 1
 7 35 l 1
 9 35 l 1
 9 33 l 1
9 37 m 1
 7 37 l 1
 7 39 l 1
 9 39 l 1
 9 37 l 1
9 41 m 1
 7 41 l 1
 7 43 l 1
 9 43 l 1
 9 41 l 1
12 25 m 1
 10 25 l 1
 10 27 l 1
 11 27 l 1
 11 26 l 1
 12 26 l 1
 12 25 l 1
14 25 m 1
 13 25 l 1
 13 26 l 1
 12 26 l 1
 12 27 l 1
 14 27 l 1
 14 25 l 1
17 25 m 1
 15 25 l 1
 15 27 l 1
 17 27 l 1
 17 25 l 1
17 29 m 1
 15 29 l 1
 15 31 l 1
 17 31 l 1
 17 29 l 1
23 25 m 1
 21 25 l 1
 21 27 l 1
 23 27 l 1
 23 25 l 1
26 25 m 1
 24 25 l 1
 24 27 l 1
 25 27 l 1
 25 26 l 1
 26 26 l 1
 26 25 l 1
23 29 m 1
 21 29 l 1
 21 31 l 1
 23 31 l 1
 23 29 l 1
17 33 m 1
 15 33 l 1
 15 35 l 1
 17 35 l 1
 17 33 l 1
17 37 m 1
 15 37 l 1
 15 39 l 1
 17 39 l 1
 17 37 l 1
23 33 m 1
 21 33 l 1
 21 35 l 1
 23 35 l 1
 23 33 l 1
23 37 m 1
 21 37 l 1
 21 39 l 1
 23 39 l 1
 23 37 l 1
28 25 m 1
 27 25 l 1
 27 26 l 1
 26 26 l 1
 26 27 l 1
 28 27 l 1
 28 25 l 1
31 25 m 1
 29 25 l 1
 29 27 l 1
 31 27 l 1
 31 25 l 1
31 29 m 1
 29 29 l 1
 29 31 l 1
 31 31 l 1
 31 29 l 1
41 25 m 1
 39 25 l 1
 39 27 l 1
 41 27 l 1
 41 25 l 1
41 29 m 1
 39 29 l 1
 39 31 l 1
 41 31 l 1
 41 29 l 1
31 33 m 1
 29 33 l 1
 29 35 l 1
 31 35 l 1
 31 33 l 1
31 37 m 1
 29 37 l 1
 29 39 l 1
 31 39 l 1
 31 37 l 1
36 31 m 1
 34 31 l 1
 34 33 l 1
 36 33 l 1
 36 31 l 1
41 33 m 1
 39 33 l 1
 39 35 l 1
 41 35 l 1
 41 33 l 1
36 35 m 1
 34 35 l 1
 34 37 l 1
 36 37 l 1
 36 35 l 1
44 25 m 1
 42 25 l 1
 42 27 l 1
 43 27 l 1
 43 26 l 1
 44 26 l 1
 44 25 l 1
46 25 m 1
 45 25 l 1
 45 26 l 1
 44 26 l 1
 44 27 l 1
 46 27 l 1
 46 25 l 1
49 25 m 1
 47 25 l 1
 47 27 l 1
 49 27 l 1
 49 25 l 1
55 25 m 1
 53 25 l 1
 53 27 l 1
 55 27 l 1
 55 25 l 1
58 25 m 1
 56 25 l 1
 56 27 l 1
 57 27 l 1
 57 26 l 1
 58 26 l 1
 58 25 l 1
55 29 m 1
 53 29 l 1
 53 31 l 1
 55 31 l 1
 55 29 l 1
43 33 m 1
 42 33 l 1
 42 35 l 1
 44 35 l 1
 44 34 l 1
 43 34 l 1
 43 33 l 1
46 33 m 1
 44 33 l 1
 44 34 l 1
 45 34 l 1
 45 35 l 1
 46 35 l 1
 46 33 l 1
49 33 m 1
 47 33 l 1
 47 35 l 1
 49 35 l 1
 49 33 l 1
49 37 m 1
 47 37 l 1
 47 39 l 1
 49 39 l 1
 49 37 l 1
55 33 m 1
 53 33 l 1
 53 35 l 1
 55 35 l 1
 55 33 l 1
57 33 m 1
 56 33 l 1
 56 35 l 1
 58 35 l 1
 58 34 l 1
 57 34 l 1
 57 33 l 1
60 25 m 1
 59 25 l 1
 59 26 l 1
 58 26 l 1
 58 27 l 1
 60 27 l 1
 60 25 l 1
63 25 m 1
 61 25 l 1
 61 27 l 1
 63 27 l 1
 63 25 l 1
63 29 m 1
 61 29 l 1
 61 31 l 1
 63 31 l 1
 63 29 l 1
60 33 m 1
 58 33 l 1
 58 34 l 1
 59 34 l 1
 59 35 l 1
 60 35 l 1
 60 33 l 1
63 33 m 1
 61 33 l 1
 61 35 l 1
 63 35 l 1
 63 33 l 1
63 37 m 1
 61 37 l 1
 61 39 l 1
 63 39 l 1
 63 37 l 1
12 41 m 1
 10 41 l 1
 10 43 l 1
 11 43 l 1
 11 42 l 1
 12 42 l 1
 12 41 l 1
14 41 m 1
 13 41 l 1
 13 42 l 1
 12 42 l 1
 12 43 l 1
 14 43 l 1
 14 41 l 1
17 41 m 1
 15 41 l 1
 15 43 l 1
 17 43 l 1
 17 41 l 1
23 41 m 1
 21 41 l 1
 21 43 l 1
 23 43 l 1
 23 41 l 1
26 41 m 1
 24 41 l 1
 24 43 l 1
 25 43 l 1
 25 42 l 1
 26 42 l 1
 26 41 l 1
28 41 m 1
 27 41 l 1
 27 42 l 1
 26 42 l 1
 26 43 l 1
 28 43 l 1
 28 41 l 1
31 41 m 1
 29 41 l 1
 29 43 l 1
 31 43 l 1
 31 41 l 1
41 41 m 1
 39 41 l 1
 39 43 l 1
 41 43 l 1
 41 41 l 1
44 41 m 1
 42 41 l 1
 42 43 l 1
 43 43 l 1
 43 42 l 1
 44 42 l 1
 44 41 l 1
46 41 m 1
 45 41 l 1
 45 42 l 1
 44 42 l 1
 44 43 l 1
 46 43 l 1
 46 41 l 1
49 41 m 1
 47 41 l 1
 47 43 l 1
 49 43 l 1
 49 41 l 1
55 41 m 1
 53 41 l 1
 53 43 l 1
 55 43 l 1
 55 41 l 1
58 41 m 1
 56 41 l 1
 56 43 l 1
 57 43 l 1
 57 42 l 1
 58 42 l 1
 58 41 l 1
60 41 m 1
 59 41 l 1
 59 42 l 1
 58 42 l 1
 58 43 l 1
 60 43 l 1
 60 41 l 1
63 41 m 1
 61 41 l 1
 61 43 l 1
 63 43 l 1
 63 41 l 1
EndSplineSet
Ligature2: "'liga' Standard Ligatures in Latin lookup 0-1" five nine zero four five
LCarets2: 1 0
EndChar

StartChar: custom_5_9_0_4_6
Encoding: 18002 -1 17757
Width: 70
Flags: H
LayerCount: 2
Fore
SplineSet
9 25 m 1
 7 25 l 1
 7 27 l 1
 9 27 l 1
 9 25 l 1
9 29 m 1
 7 29 l 1
 7 31 l 1
 9 31 l 1
 9 29 l 1
9 33 m 1
 7 33 l 1
 7 35 l 1
 9 35 l 1
 9 33 l 1
9 37 m 1
 7 37 l 1
 7 39 l 1
 9 39 l 1
 9 37 l 1
9 41 m 1
 7 41 l 1
 7 43 l 1
 9 43 l 1
 9 41 l 1
12 25 m 1
 10 25 l 1
 10 27 l 1
 11 27 l 1
 11 26 l 1
 12 26 l 1
 12 25 l 1
14 25 m 1
 13 25 l 1
 13 26 l 1
 12 26 l 1
 12 27 l 1
 14 27 l 1
 14 25 l 1
17 25 m 1
 15 25 l 1
 15 27 l 1
 17 27 l 1
 17 25 l 1
17 29 m 1
 15 29 l 1
 15 31 l 1
 17 31 l 1
 17 29 l 1
23 25 m 1
 21 25 l 1
 21 27 l 1
 23 27 l 1
 23 25 l 1
26 25 m 1
 24 25 l 1
 24 27 l 1
 25 27 l 1
 25 26 l 1
 26 26 l 1
 26 25 l 1
23 29 m 1
 21 29 l 1
 21 31 l 1
 23 31 l 1
 23 29 l 1
17 33 m 1
 15 33 l 1
 15 35 l 1
 17 35 l 1
 17 33 l 1
17 37 m 1
 15 37 l 1
 15 39 l 1
 17 39 l 1
 17 37 l 1
23 33 m 1
 21 33 l 1
 21 35 l 1
 23 35 l 1
 23 33 l 1
23 37 m 1
 21 37 l 1
 21 39 l 1
 23 39 l 1
 23 37 l 1
28 25 m 1
 27 25 l 1
 27 26 l 1
 26 26 l 1
 26 27 l 1
 28 27 l 1
 28 25 l 1
31 25 m 1
 29 25 l 1
 29 27 l 1
 31 27 l 1
 31 25 l 1
31 29 m 1
 29 29 l 1
 29 31 l 1
 31 31 l 1
 31 29 l 1
41 25 m 1
 39 25 l 1
 39 27 l 1
 41 27 l 1
 41 25 l 1
41 29 m 1
 39 29 l 1
 39 31 l 1
 41 31 l 1
 41 29 l 1
31 33 m 1
 29 33 l 1
 29 35 l 1
 31 35 l 1
 31 33 l 1
31 37 m 1
 29 37 l 1
 29 39 l 1
 31 39 l 1
 31 37 l 1
36 31 m 1
 34 31 l 1
 34 33 l 1
 36 33 l 1
 36 31 l 1
41 33 m 1
 39 33 l 1
 39 35 l 1
 41 35 l 1
 41 33 l 1
36 35 m 1
 34 35 l 1
 34 37 l 1
 36 37 l 1
 36 35 l 1
44 25 m 1
 42 25 l 1
 42 27 l 1
 43 27 l 1
 43 26 l 1
 44 26 l 1
 44 25 l 1
46 25 m 1
 45 25 l 1
 45 26 l 1
 44 26 l 1
 44 27 l 1
 46 27 l 1
 46 25 l 1
49 25 m 1
 47 25 l 1
 47 27 l 1
 49 27 l 1
 49 25 l 1
55 25 m 1
 53 25 l 1
 53 27 l 1
 55 27 l 1
 55 25 l 1
58 25 m 1
 56 25 l 1
 56 27 l 1
 57 27 l 1
 57 26 l 1
 58 26 l 1
 58 25 l 1
55 29 m 1
 53 29 l 1
 53 31 l 1
 55 31 l 1
 55 29 l 1
43 33 m 1
 42 33 l 1
 42 35 l 1
 44 35 l 1
 44 34 l 1
 43 34 l 1
 43 33 l 1
46 33 m 1
 44 33 l 1
 44 34 l 1
 45 34 l 1
 45 35 l 1
 46 35 l 1
 46 33 l 1
49 33 m 1
 47 33 l 1
 47 35 l 1
 49 35 l 1
 49 33 l 1
49 37 m 1
 47 37 l 1
 47 39 l 1
 49 39 l 1
 49 37 l 1
55 33 m 1
 53 33 l 1
 53 35 l 1
 55 35 l 1
 55 33 l 1
57 33 m 1
 56 33 l 1
 56 35 l 1
 58 35 l 1
 58 34 l 1
 57 34 l 1
 57 33 l 1
60 25 m 1
 59 25 l 1
 59 26 l 1
 58 26 l 1
 58 27 l 1
 60 27 l 1
 60 25 l 1
63 25 m 1
 61 25 l 1
 61 27 l 1
 63 27 l 1
 63 25 l 1
63 29 m 1
 61 29 l 1
 61 31 l 1
 63 31 l 1
 63 29 l 1
60 33 m 1
 58 33 l 1
 58 34 l 1
 59 34 l 1
 59 35 l 1
 60 35 l 1
 60 33 l 1
63 33 m 1
 61 33 l 1
 61 35 l 1
 63 35 l 1
 63 33 l 1
63 37 m 1
 61 37 l 1
 61 39 l 1
 63 39 l 1
 63 37 l 1
12 41 m 1
 10 41 l 1
 10 43 l 1
 11 43 l 1
 11 42 l 1
 12 42 l 1
 12 41 l 1
14 41 m 1
 13 41 l 1
 13 42 l 1
 12 42 l 1
 12 43 l 1
 14 43 l 1
 14 41 l 1
17 41 m 1
 15 41 l 1
 15 43 l 1
 17 43 l 1
 17 41 l 1
23 41 m 1
 21 41 l 1
 21 43 l 1
 23 43 l 1
 23 41 l 1
26 41 m 1
 24 41 l 1
 24 43 l 1
 25 43 l 1
 25 42 l 1
 26 42 l 1
 26 41 l 1
28 41 m 1
 27 41 l 1
 27 42 l 1
 26 42 l 1
 26 43 l 1
 28 43 l 1
 28 41 l 1
31 41 m 1
 29 41 l 1
 29 43 l 1
 31 43 l 1
 31 41 l 1
41 41 m 1
 39 41 l 1
 39 43 l 1
 41 43 l 1
 41 41 l 1
44 41 m 1
 42 41 l 1
 42 43 l 1
 43 43 l 1
 43 42 l 1
 44 42 l 1
 44 41 l 1
46 41 m 1
 45 41 l 1
 45 42 l 1
 44 42 l 1
 44 43 l 1
 46 43 l 1
 46 41 l 1
49 41 m 1
 47 41 l 1
 47 43 l 1
 49 43 l 1
 49 41 l 1
55 41 m 1
 53 41 l 1
 53 43 l 1
 55 43 l 1
 55 41 l 1
58 41 m 1
 56 41 l 1
 56 43 l 1
 57 43 l 1
 57 42 l 1
 58 42 l 1
 58 41 l 1
60 41 m 1
 59 41 l 1
 59 42 l 1
 58 42 l 1
 58 43 l 1
 60 43 l 1
 60 41 l 1
63 41 m 1
 61 41 l 1
 61 43 l 1
 63 43 l 1
 63 41 l 1
EndSplineSet
Ligature2: "'liga' Standard Ligatures in Latin lookup 0-1" five nine zero four six
LCarets2: 1 0
EndChar

StartChar: custom_5_9_0_4_7
Encoding: 18003 -1 17758
Width: 70
Flags: H
LayerCount: 2
Fore
SplineSet
9 25 m 1
 7 25 l 1
 7 27 l 1
 9 27 l 1
 9 25 l 1
9 29 m 1
 7 29 l 1
 7 31 l 1
 9 31 l 1
 9 29 l 1
9 33 m 1
 7 33 l 1
 7 35 l 1
 9 35 l 1
 9 33 l 1
9 37 m 1
 7 37 l 1
 7 39 l 1
 9 39 l 1
 9 37 l 1
9 41 m 1
 7 41 l 1
 7 43 l 1
 9 43 l 1
 9 41 l 1
12 25 m 1
 10 25 l 1
 10 27 l 1
 11 27 l 1
 11 26 l 1
 12 26 l 1
 12 25 l 1
14 25 m 1
 13 25 l 1
 13 26 l 1
 12 26 l 1
 12 27 l 1
 14 27 l 1
 14 25 l 1
17 25 m 1
 15 25 l 1
 15 27 l 1
 17 27 l 1
 17 25 l 1
17 29 m 1
 15 29 l 1
 15 31 l 1
 17 31 l 1
 17 29 l 1
23 25 m 1
 21 25 l 1
 21 27 l 1
 23 27 l 1
 23 25 l 1
26 25 m 1
 24 25 l 1
 24 27 l 1
 25 27 l 1
 25 26 l 1
 26 26 l 1
 26 25 l 1
23 29 m 1
 21 29 l 1
 21 31 l 1
 23 31 l 1
 23 29 l 1
17 33 m 1
 15 33 l 1
 15 35 l 1
 17 35 l 1
 17 33 l 1
17 37 m 1
 15 37 l 1
 15 39 l 1
 17 39 l 1
 17 37 l 1
23 33 m 1
 21 33 l 1
 21 35 l 1
 23 35 l 1
 23 33 l 1
23 37 m 1
 21 37 l 1
 21 39 l 1
 23 39 l 1
 23 37 l 1
28 25 m 1
 27 25 l 1
 27 26 l 1
 26 26 l 1
 26 27 l 1
 28 27 l 1
 28 25 l 1
31 25 m 1
 29 25 l 1
 29 27 l 1
 31 27 l 1
 31 25 l 1
31 29 m 1
 29 29 l 1
 29 31 l 1
 31 31 l 1
 31 29 l 1
41 25 m 1
 39 25 l 1
 39 27 l 1
 41 27 l 1
 41 25 l 1
41 29 m 1
 39 29 l 1
 39 31 l 1
 41 31 l 1
 41 29 l 1
31 33 m 1
 29 33 l 1
 29 35 l 1
 31 35 l 1
 31 33 l 1
31 37 m 1
 29 37 l 1
 29 39 l 1
 31 39 l 1
 31 37 l 1
36 31 m 1
 34 31 l 1
 34 33 l 1
 36 33 l 1
 36 31 l 1
41 33 m 1
 39 33 l 1
 39 35 l 1
 41 35 l 1
 41 33 l 1
36 35 m 1
 34 35 l 1
 34 37 l 1
 36 37 l 1
 36 35 l 1
44 25 m 1
 42 25 l 1
 42 27 l 1
 43 27 l 1
 43 26 l 1
 44 26 l 1
 44 25 l 1
46 25 m 1
 45 25 l 1
 45 26 l 1
 44 26 l 1
 44 27 l 1
 46 27 l 1
 46 25 l 1
49 25 m 1
 47 25 l 1
 47 27 l 1
 49 27 l 1
 49 25 l 1
55 25 m 1
 53 25 l 1
 53 27 l 1
 55 27 l 1
 55 25 l 1
58 25 m 1
 56 25 l 1
 56 27 l 1
 57 27 l 1
 57 26 l 1
 58 26 l 1
 58 25 l 1
55 29 m 1
 53 29 l 1
 53 31 l 1
 55 31 l 1
 55 29 l 1
43 33 m 1
 42 33 l 1
 42 35 l 1
 44 35 l 1
 44 34 l 1
 43 34 l 1
 43 33 l 1
46 33 m 1
 44 33 l 1
 44 34 l 1
 45 34 l 1
 45 35 l 1
 46 35 l 1
 46 33 l 1
49 33 m 1
 47 33 l 1
 47 35 l 1
 49 35 l 1
 49 33 l 1
49 37 m 1
 47 37 l 1
 47 39 l 1
 49 39 l 1
 49 37 l 1
55 33 m 1
 53 33 l 1
 53 35 l 1
 55 35 l 1
 55 33 l 1
57 33 m 1
 56 33 l 1
 56 35 l 1
 58 35 l 1
 58 34 l 1
 57 34 l 1
 57 33 l 1
60 25 m 1
 59 25 l 1
 59 26 l 1
 58 26 l 1
 58 27 l 1
 60 27 l 1
 60 25 l 1
63 25 m 1
 61 25 l 1
 61 27 l 1
 63 27 l 1
 63 25 l 1
63 29 m 1
 61 29 l 1
 61 31 l 1
 63 31 l 1
 63 29 l 1
60 33 m 1
 58 33 l 1
 58 34 l 1
 59 34 l 1
 59 35 l 1
 60 35 l 1
 60 33 l 1
63 33 m 1
 61 33 l 1
 61 35 l 1
 63 35 l 1
 63 33 l 1
63 37 m 1
 61 37 l 1
 61 39 l 1
 63 39 l 1
 63 37 l 1
12 41 m 1
 10 41 l 1
 10 43 l 1
 11 43 l 1
 11 42 l 1
 12 42 l 1
 12 41 l 1
14 41 m 1
 13 41 l 1
 13 42 l 1
 12 42 l 1
 12 43 l 1
 14 43 l 1
 14 41 l 1
17 41 m 1
 15 41 l 1
 15 43 l 1
 17 43 l 1
 17 41 l 1
23 41 m 1
 21 41 l 1
 21 43 l 1
 23 43 l 1
 23 41 l 1
26 41 m 1
 24 41 l 1
 24 43 l 1
 25 43 l 1
 25 42 l 1
 26 42 l 1
 26 41 l 1
28 41 m 1
 27 41 l 1
 27 42 l 1
 26 42 l 1
 26 43 l 1
 28 43 l 1
 28 41 l 1
31 41 m 1
 29 41 l 1
 29 43 l 1
 31 43 l 1
 31 41 l 1
41 41 m 1
 39 41 l 1
 39 43 l 1
 41 43 l 1
 41 41 l 1
44 41 m 1
 42 41 l 1
 42 43 l 1
 43 43 l 1
 43 42 l 1
 44 42 l 1
 44 41 l 1
46 41 m 1
 45 41 l 1
 45 42 l 1
 44 42 l 1
 44 43 l 1
 46 43 l 1
 46 41 l 1
49 41 m 1
 47 41 l 1
 47 43 l 1
 49 43 l 1
 49 41 l 1
55 41 m 1
 53 41 l 1
 53 43 l 1
 55 43 l 1
 55 41 l 1
58 41 m 1
 56 41 l 1
 56 43 l 1
 57 43 l 1
 57 42 l 1
 58 42 l 1
 58 41 l 1
60 41 m 1
 59 41 l 1
 59 42 l 1
 58 42 l 1
 58 43 l 1
 60 43 l 1
 60 41 l 1
63 41 m 1
 61 41 l 1
 61 43 l 1
 63 43 l 1
 63 41 l 1
EndSplineSet
Ligature2: "'liga' Standard Ligatures in Latin lookup 0-1" five nine zero four seven
LCarets2: 1 0
EndChar

StartChar: custom_5_9_0_4_8
Encoding: 18004 -1 17759
Width: 70
Flags: H
LayerCount: 2
Fore
SplineSet
9 25 m 1
 7 25 l 1
 7 27 l 1
 9 27 l 1
 9 25 l 1
9 29 m 1
 7 29 l 1
 7 31 l 1
 9 31 l 1
 9 29 l 1
9 33 m 1
 7 33 l 1
 7 35 l 1
 9 35 l 1
 9 33 l 1
9 37 m 1
 7 37 l 1
 7 39 l 1
 9 39 l 1
 9 37 l 1
9 41 m 1
 7 41 l 1
 7 43 l 1
 9 43 l 1
 9 41 l 1
12 25 m 1
 10 25 l 1
 10 27 l 1
 11 27 l 1
 11 26 l 1
 12 26 l 1
 12 25 l 1
14 25 m 1
 13 25 l 1
 13 26 l 1
 12 26 l 1
 12 27 l 1
 14 27 l 1
 14 25 l 1
17 25 m 1
 15 25 l 1
 15 27 l 1
 17 27 l 1
 17 25 l 1
17 29 m 1
 15 29 l 1
 15 31 l 1
 17 31 l 1
 17 29 l 1
23 25 m 1
 21 25 l 1
 21 27 l 1
 23 27 l 1
 23 25 l 1
26 25 m 1
 24 25 l 1
 24 27 l 1
 25 27 l 1
 25 26 l 1
 26 26 l 1
 26 25 l 1
23 29 m 1
 21 29 l 1
 21 31 l 1
 23 31 l 1
 23 29 l 1
17 33 m 1
 15 33 l 1
 15 35 l 1
 17 35 l 1
 17 33 l 1
17 37 m 1
 15 37 l 1
 15 39 l 1
 17 39 l 1
 17 37 l 1
23 33 m 1
 21 33 l 1
 21 35 l 1
 23 35 l 1
 23 33 l 1
23 37 m 1
 21 37 l 1
 21 39 l 1
 23 39 l 1
 23 37 l 1
28 25 m 1
 27 25 l 1
 27 26 l 1
 26 26 l 1
 26 27 l 1
 28 27 l 1
 28 25 l 1
31 25 m 1
 29 25 l 1
 29 27 l 1
 31 27 l 1
 31 25 l 1
31 29 m 1
 29 29 l 1
 29 31 l 1
 31 31 l 1
 31 29 l 1
41 25 m 1
 39 25 l 1
 39 27 l 1
 41 27 l 1
 41 25 l 1
41 29 m 1
 39 29 l 1
 39 31 l 1
 41 31 l 1
 41 29 l 1
31 33 m 1
 29 33 l 1
 29 35 l 1
 31 35 l 1
 31 33 l 1
31 37 m 1
 29 37 l 1
 29 39 l 1
 31 39 l 1
 31 37 l 1
36 31 m 1
 34 31 l 1
 34 33 l 1
 36 33 l 1
 36 31 l 1
41 33 m 1
 39 33 l 1
 39 35 l 1
 41 35 l 1
 41 33 l 1
36 35 m 1
 34 35 l 1
 34 37 l 1
 36 37 l 1
 36 35 l 1
44 25 m 1
 42 25 l 1
 42 27 l 1
 43 27 l 1
 43 26 l 1
 44 26 l 1
 44 25 l 1
46 25 m 1
 45 25 l 1
 45 26 l 1
 44 26 l 1
 44 27 l 1
 46 27 l 1
 46 25 l 1
49 25 m 1
 47 25 l 1
 47 27 l 1
 49 27 l 1
 49 25 l 1
55 25 m 1
 53 25 l 1
 53 27 l 1
 55 27 l 1
 55 25 l 1
58 25 m 1
 56 25 l 1
 56 27 l 1
 57 27 l 1
 57 26 l 1
 58 26 l 1
 58 25 l 1
55 29 m 1
 53 29 l 1
 53 31 l 1
 55 31 l 1
 55 29 l 1
43 33 m 1
 42 33 l 1
 42 35 l 1
 44 35 l 1
 44 34 l 1
 43 34 l 1
 43 33 l 1
46 33 m 1
 44 33 l 1
 44 34 l 1
 45 34 l 1
 45 35 l 1
 46 35 l 1
 46 33 l 1
49 33 m 1
 47 33 l 1
 47 35 l 1
 49 35 l 1
 49 33 l 1
49 37 m 1
 47 37 l 1
 47 39 l 1
 49 39 l 1
 49 37 l 1
55 33 m 1
 53 33 l 1
 53 35 l 1
 55 35 l 1
 55 33 l 1
57 33 m 1
 56 33 l 1
 56 35 l 1
 58 35 l 1
 58 34 l 1
 57 34 l 1
 57 33 l 1
60 25 m 1
 59 25 l 1
 59 26 l 1
 58 26 l 1
 58 27 l 1
 60 27 l 1
 60 25 l 1
63 25 m 1
 61 25 l 1
 61 27 l 1
 63 27 l 1
 63 25 l 1
63 29 m 1
 61 29 l 1
 61 31 l 1
 63 31 l 1
 63 29 l 1
60 33 m 1
 58 33 l 1
 58 34 l 1
 59 34 l 1
 59 35 l 1
 60 35 l 1
 60 33 l 1
63 33 m 1
 61 33 l 1
 61 35 l 1
 63 35 l 1
 63 33 l 1
63 37 m 1
 61 37 l 1
 61 39 l 1
 63 39 l 1
 63 37 l 1
12 41 m 1
 10 41 l 1
 10 43 l 1
 11 43 l 1
 11 42 l 1
 12 42 l 1
 12 41 l 1
14 41 m 1
 13 41 l 1
 13 42 l 1
 12 42 l 1
 12 43 l 1
 14 43 l 1
 14 41 l 1
17 41 m 1
 15 41 l 1
 15 43 l 1
 17 43 l 1
 17 41 l 1
23 41 m 1
 21 41 l 1
 21 43 l 1
 23 43 l 1
 23 41 l 1
26 41 m 1
 24 41 l 1
 24 43 l 1
 25 43 l 1
 25 42 l 1
 26 42 l 1
 26 41 l 1
28 41 m 1
 27 41 l 1
 27 42 l 1
 26 42 l 1
 26 43 l 1
 28 43 l 1
 28 41 l 1
31 41 m 1
 29 41 l 1
 29 43 l 1
 31 43 l 1
 31 41 l 1
41 41 m 1
 39 41 l 1
 39 43 l 1
 41 43 l 1
 41 41 l 1
44 41 m 1
 42 41 l 1
 42 43 l 1
 43 43 l 1
 43 42 l 1
 44 42 l 1
 44 41 l 1
46 41 m 1
 45 41 l 1
 45 42 l 1
 44 42 l 1
 44 43 l 1
 46 43 l 1
 46 41 l 1
49 41 m 1
 47 41 l 1
 47 43 l 1
 49 43 l 1
 49 41 l 1
55 41 m 1
 53 41 l 1
 53 43 l 1
 55 43 l 1
 55 41 l 1
58 41 m 1
 56 41 l 1
 56 43 l 1
 57 43 l 1
 57 42 l 1
 58 42 l 1
 58 41 l 1
60 41 m 1
 59 41 l 1
 59 42 l 1
 58 42 l 1
 58 43 l 1
 60 43 l 1
 60 41 l 1
63 41 m 1
 61 41 l 1
 61 43 l 1
 63 43 l 1
 63 41 l 1
EndSplineSet
Ligature2: "'liga' Standard Ligatures in Latin lookup 0-1" five nine zero four eight
LCarets2: 1 0
EndChar

StartChar: custom_5_9_0_4_9
Encoding: 18005 -1 17760
Width: 70
Flags: H
LayerCount: 2
Fore
SplineSet
9 25 m 1
 7 25 l 1
 7 27 l 1
 9 27 l 1
 9 25 l 1
9 29 m 1
 7 29 l 1
 7 31 l 1
 9 31 l 1
 9 29 l 1
9 33 m 1
 7 33 l 1
 7 35 l 1
 9 35 l 1
 9 33 l 1
9 37 m 1
 7 37 l 1
 7 39 l 1
 9 39 l 1
 9 37 l 1
9 41 m 1
 7 41 l 1
 7 43 l 1
 9 43 l 1
 9 41 l 1
12 25 m 1
 10 25 l 1
 10 27 l 1
 11 27 l 1
 11 26 l 1
 12 26 l 1
 12 25 l 1
14 25 m 1
 13 25 l 1
 13 26 l 1
 12 26 l 1
 12 27 l 1
 14 27 l 1
 14 25 l 1
17 25 m 1
 15 25 l 1
 15 27 l 1
 17 27 l 1
 17 25 l 1
17 29 m 1
 15 29 l 1
 15 31 l 1
 17 31 l 1
 17 29 l 1
23 25 m 1
 21 25 l 1
 21 27 l 1
 23 27 l 1
 23 25 l 1
26 25 m 1
 24 25 l 1
 24 27 l 1
 25 27 l 1
 25 26 l 1
 26 26 l 1
 26 25 l 1
23 29 m 1
 21 29 l 1
 21 31 l 1
 23 31 l 1
 23 29 l 1
17 33 m 1
 15 33 l 1
 15 35 l 1
 17 35 l 1
 17 33 l 1
17 37 m 1
 15 37 l 1
 15 39 l 1
 17 39 l 1
 17 37 l 1
23 33 m 1
 21 33 l 1
 21 35 l 1
 23 35 l 1
 23 33 l 1
23 37 m 1
 21 37 l 1
 21 39 l 1
 23 39 l 1
 23 37 l 1
28 25 m 1
 27 25 l 1
 27 26 l 1
 26 26 l 1
 26 27 l 1
 28 27 l 1
 28 25 l 1
31 25 m 1
 29 25 l 1
 29 27 l 1
 31 27 l 1
 31 25 l 1
31 29 m 1
 29 29 l 1
 29 31 l 1
 31 31 l 1
 31 29 l 1
41 25 m 1
 39 25 l 1
 39 27 l 1
 41 27 l 1
 41 25 l 1
41 29 m 1
 39 29 l 1
 39 31 l 1
 41 31 l 1
 41 29 l 1
31 33 m 1
 29 33 l 1
 29 35 l 1
 31 35 l 1
 31 33 l 1
31 37 m 1
 29 37 l 1
 29 39 l 1
 31 39 l 1
 31 37 l 1
36 31 m 1
 34 31 l 1
 34 33 l 1
 36 33 l 1
 36 31 l 1
41 33 m 1
 39 33 l 1
 39 35 l 1
 41 35 l 1
 41 33 l 1
36 35 m 1
 34 35 l 1
 34 37 l 1
 36 37 l 1
 36 35 l 1
44 25 m 1
 42 25 l 1
 42 27 l 1
 43 27 l 1
 43 26 l 1
 44 26 l 1
 44 25 l 1
46 25 m 1
 45 25 l 1
 45 26 l 1
 44 26 l 1
 44 27 l 1
 46 27 l 1
 46 25 l 1
49 25 m 1
 47 25 l 1
 47 27 l 1
 49 27 l 1
 49 25 l 1
55 25 m 1
 53 25 l 1
 53 27 l 1
 55 27 l 1
 55 25 l 1
58 25 m 1
 56 25 l 1
 56 27 l 1
 57 27 l 1
 57 26 l 1
 58 26 l 1
 58 25 l 1
55 29 m 1
 53 29 l 1
 53 31 l 1
 55 31 l 1
 55 29 l 1
43 33 m 1
 42 33 l 1
 42 35 l 1
 44 35 l 1
 44 34 l 1
 43 34 l 1
 43 33 l 1
46 33 m 1
 44 33 l 1
 44 34 l 1
 45 34 l 1
 45 35 l 1
 46 35 l 1
 46 33 l 1
49 33 m 1
 47 33 l 1
 47 35 l 1
 49 35 l 1
 49 33 l 1
49 37 m 1
 47 37 l 1
 47 39 l 1
 49 39 l 1
 49 37 l 1
55 33 m 1
 53 33 l 1
 53 35 l 1
 55 35 l 1
 55 33 l 1
57 33 m 1
 56 33 l 1
 56 35 l 1
 58 35 l 1
 58 34 l 1
 57 34 l 1
 57 33 l 1
60 25 m 1
 59 25 l 1
 59 26 l 1
 58 26 l 1
 58 27 l 1
 60 27 l 1
 60 25 l 1
63 25 m 1
 61 25 l 1
 61 27 l 1
 63 27 l 1
 63 25 l 1
63 29 m 1
 61 29 l 1
 61 31 l 1
 63 31 l 1
 63 29 l 1
60 33 m 1
 58 33 l 1
 58 34 l 1
 59 34 l 1
 59 35 l 1
 60 35 l 1
 60 33 l 1
63 33 m 1
 61 33 l 1
 61 35 l 1
 63 35 l 1
 63 33 l 1
63 37 m 1
 61 37 l 1
 61 39 l 1
 63 39 l 1
 63 37 l 1
12 41 m 1
 10 41 l 1
 10 43 l 1
 11 43 l 1
 11 42 l 1
 12 42 l 1
 12 41 l 1
14 41 m 1
 13 41 l 1
 13 42 l 1
 12 42 l 1
 12 43 l 1
 14 43 l 1
 14 41 l 1
17 41 m 1
 15 41 l 1
 15 43 l 1
 17 43 l 1
 17 41 l 1
23 41 m 1
 21 41 l 1
 21 43 l 1
 23 43 l 1
 23 41 l 1
26 41 m 1
 24 41 l 1
 24 43 l 1
 25 43 l 1
 25 42 l 1
 26 42 l 1
 26 41 l 1
28 41 m 1
 27 41 l 1
 27 42 l 1
 26 42 l 1
 26 43 l 1
 28 43 l 1
 28 41 l 1
31 41 m 1
 29 41 l 1
 29 43 l 1
 31 43 l 1
 31 41 l 1
41 41 m 1
 39 41 l 1
 39 43 l 1
 41 43 l 1
 41 41 l 1
44 41 m 1
 42 41 l 1
 42 43 l 1
 43 43 l 1
 43 42 l 1
 44 42 l 1
 44 41 l 1
46 41 m 1
 45 41 l 1
 45 42 l 1
 44 42 l 1
 44 43 l 1
 46 43 l 1
 46 41 l 1
49 41 m 1
 47 41 l 1
 47 43 l 1
 49 43 l 1
 49 41 l 1
55 41 m 1
 53 41 l 1
 53 43 l 1
 55 43 l 1
 55 41 l 1
58 41 m 1
 56 41 l 1
 56 43 l 1
 57 43 l 1
 57 42 l 1
 58 42 l 1
 58 41 l 1
60 41 m 1
 59 41 l 1
 59 42 l 1
 58 42 l 1
 58 43 l 1
 60 43 l 1
 60 41 l 1
63 41 m 1
 61 41 l 1
 61 43 l 1
 63 43 l 1
 63 41 l 1
EndSplineSet
Ligature2: "'liga' Standard Ligatures in Latin lookup 0-1" five nine zero four nine
LCarets2: 1 0
EndChar

StartChar: custom_5_9_0_5_0
Encoding: 18006 -1 17761
Width: 70
Flags: H
LayerCount: 2
Fore
SplineSet
9 25 m 1
 7 25 l 1
 7 27 l 1
 9 27 l 1
 9 25 l 1
9 29 m 1
 7 29 l 1
 7 31 l 1
 9 31 l 1
 9 29 l 1
9 33 m 1
 7 33 l 1
 7 35 l 1
 9 35 l 1
 9 33 l 1
9 37 m 1
 7 37 l 1
 7 39 l 1
 9 39 l 1
 9 37 l 1
9 41 m 1
 7 41 l 1
 7 43 l 1
 9 43 l 1
 9 41 l 1
12 25 m 1
 10 25 l 1
 10 27 l 1
 11 27 l 1
 11 26 l 1
 12 26 l 1
 12 25 l 1
14 25 m 1
 13 25 l 1
 13 26 l 1
 12 26 l 1
 12 27 l 1
 14 27 l 1
 14 25 l 1
17 25 m 1
 15 25 l 1
 15 27 l 1
 17 27 l 1
 17 25 l 1
17 29 m 1
 15 29 l 1
 15 31 l 1
 17 31 l 1
 17 29 l 1
23 25 m 1
 21 25 l 1
 21 27 l 1
 23 27 l 1
 23 25 l 1
26 25 m 1
 24 25 l 1
 24 27 l 1
 25 27 l 1
 25 26 l 1
 26 26 l 1
 26 25 l 1
23 29 m 1
 21 29 l 1
 21 31 l 1
 23 31 l 1
 23 29 l 1
17 33 m 1
 15 33 l 1
 15 35 l 1
 17 35 l 1
 17 33 l 1
17 37 m 1
 15 37 l 1
 15 39 l 1
 17 39 l 1
 17 37 l 1
23 33 m 1
 21 33 l 1
 21 35 l 1
 23 35 l 1
 23 33 l 1
23 37 m 1
 21 37 l 1
 21 39 l 1
 23 39 l 1
 23 37 l 1
28 25 m 1
 27 25 l 1
 27 26 l 1
 26 26 l 1
 26 27 l 1
 28 27 l 1
 28 25 l 1
31 25 m 1
 29 25 l 1
 29 27 l 1
 31 27 l 1
 31 25 l 1
31 29 m 1
 29 29 l 1
 29 31 l 1
 31 31 l 1
 31 29 l 1
41 25 m 1
 39 25 l 1
 39 27 l 1
 41 27 l 1
 41 25 l 1
41 29 m 1
 39 29 l 1
 39 31 l 1
 41 31 l 1
 41 29 l 1
31 33 m 1
 29 33 l 1
 29 35 l 1
 31 35 l 1
 31 33 l 1
31 37 m 1
 29 37 l 1
 29 39 l 1
 31 39 l 1
 31 37 l 1
36 31 m 1
 34 31 l 1
 34 33 l 1
 36 33 l 1
 36 31 l 1
41 33 m 1
 39 33 l 1
 39 35 l 1
 41 35 l 1
 41 33 l 1
36 35 m 1
 34 35 l 1
 34 37 l 1
 36 37 l 1
 36 35 l 1
44 25 m 1
 42 25 l 1
 42 27 l 1
 43 27 l 1
 43 26 l 1
 44 26 l 1
 44 25 l 1
46 25 m 1
 45 25 l 1
 45 26 l 1
 44 26 l 1
 44 27 l 1
 46 27 l 1
 46 25 l 1
49 25 m 1
 47 25 l 1
 47 27 l 1
 49 27 l 1
 49 25 l 1
55 25 m 1
 53 25 l 1
 53 27 l 1
 55 27 l 1
 55 25 l 1
58 25 m 1
 56 25 l 1
 56 27 l 1
 57 27 l 1
 57 26 l 1
 58 26 l 1
 58 25 l 1
55 29 m 1
 53 29 l 1
 53 31 l 1
 55 31 l 1
 55 29 l 1
43 33 m 1
 42 33 l 1
 42 35 l 1
 44 35 l 1
 44 34 l 1
 43 34 l 1
 43 33 l 1
46 33 m 1
 44 33 l 1
 44 34 l 1
 45 34 l 1
 45 35 l 1
 46 35 l 1
 46 33 l 1
49 33 m 1
 47 33 l 1
 47 35 l 1
 49 35 l 1
 49 33 l 1
49 37 m 1
 47 37 l 1
 47 39 l 1
 49 39 l 1
 49 37 l 1
55 33 m 1
 53 33 l 1
 53 35 l 1
 55 35 l 1
 55 33 l 1
57 33 m 1
 56 33 l 1
 56 35 l 1
 58 35 l 1
 58 34 l 1
 57 34 l 1
 57 33 l 1
60 25 m 1
 59 25 l 1
 59 26 l 1
 58 26 l 1
 58 27 l 1
 60 27 l 1
 60 25 l 1
63 25 m 1
 61 25 l 1
 61 27 l 1
 63 27 l 1
 63 25 l 1
63 29 m 1
 61 29 l 1
 61 31 l 1
 63 31 l 1
 63 29 l 1
60 33 m 1
 58 33 l 1
 58 34 l 1
 59 34 l 1
 59 35 l 1
 60 35 l 1
 60 33 l 1
63 33 m 1
 61 33 l 1
 61 35 l 1
 63 35 l 1
 63 33 l 1
63 37 m 1
 61 37 l 1
 61 39 l 1
 63 39 l 1
 63 37 l 1
12 41 m 1
 10 41 l 1
 10 43 l 1
 11 43 l 1
 11 42 l 1
 12 42 l 1
 12 41 l 1
14 41 m 1
 13 41 l 1
 13 42 l 1
 12 42 l 1
 12 43 l 1
 14 43 l 1
 14 41 l 1
17 41 m 1
 15 41 l 1
 15 43 l 1
 17 43 l 1
 17 41 l 1
23 41 m 1
 21 41 l 1
 21 43 l 1
 23 43 l 1
 23 41 l 1
26 41 m 1
 24 41 l 1
 24 43 l 1
 25 43 l 1
 25 42 l 1
 26 42 l 1
 26 41 l 1
28 41 m 1
 27 41 l 1
 27 42 l 1
 26 42 l 1
 26 43 l 1
 28 43 l 1
 28 41 l 1
31 41 m 1
 29 41 l 1
 29 43 l 1
 31 43 l 1
 31 41 l 1
41 41 m 1
 39 41 l 1
 39 43 l 1
 41 43 l 1
 41 41 l 1
44 41 m 1
 42 41 l 1
 42 43 l 1
 43 43 l 1
 43 42 l 1
 44 42 l 1
 44 41 l 1
46 41 m 1
 45 41 l 1
 45 42 l 1
 44 42 l 1
 44 43 l 1
 46 43 l 1
 46 41 l 1
49 41 m 1
 47 41 l 1
 47 43 l 1
 49 43 l 1
 49 41 l 1
55 41 m 1
 53 41 l 1
 53 43 l 1
 55 43 l 1
 55 41 l 1
58 41 m 1
 56 41 l 1
 56 43 l 1
 57 43 l 1
 57 42 l 1
 58 42 l 1
 58 41 l 1
60 41 m 1
 59 41 l 1
 59 42 l 1
 58 42 l 1
 58 43 l 1
 60 43 l 1
 60 41 l 1
63 41 m 1
 61 41 l 1
 61 43 l 1
 63 43 l 1
 63 41 l 1
EndSplineSet
Ligature2: "'liga' Standard Ligatures in Latin lookup 0-1" five nine zero five zero
LCarets2: 1 0
EndChar

StartChar: custom_5_9_0_5_1
Encoding: 18007 -1 17762
Width: 70
Flags: H
LayerCount: 2
Fore
SplineSet
9 25 m 1
 7 25 l 1
 7 27 l 1
 9 27 l 1
 9 25 l 1
9 29 m 1
 7 29 l 1
 7 31 l 1
 9 31 l 1
 9 29 l 1
9 33 m 1
 7 33 l 1
 7 35 l 1
 9 35 l 1
 9 33 l 1
9 37 m 1
 7 37 l 1
 7 39 l 1
 9 39 l 1
 9 37 l 1
9 41 m 1
 7 41 l 1
 7 43 l 1
 9 43 l 1
 9 41 l 1
12 25 m 1
 10 25 l 1
 10 27 l 1
 11 27 l 1
 11 26 l 1
 12 26 l 1
 12 25 l 1
14 25 m 1
 13 25 l 1
 13 26 l 1
 12 26 l 1
 12 27 l 1
 14 27 l 1
 14 25 l 1
17 25 m 1
 15 25 l 1
 15 27 l 1
 17 27 l 1
 17 25 l 1
17 29 m 1
 15 29 l 1
 15 31 l 1
 17 31 l 1
 17 29 l 1
23 25 m 1
 21 25 l 1
 21 27 l 1
 23 27 l 1
 23 25 l 1
26 25 m 1
 24 25 l 1
 24 27 l 1
 25 27 l 1
 25 26 l 1
 26 26 l 1
 26 25 l 1
23 29 m 1
 21 29 l 1
 21 31 l 1
 23 31 l 1
 23 29 l 1
17 33 m 1
 15 33 l 1
 15 35 l 1
 17 35 l 1
 17 33 l 1
17 37 m 1
 15 37 l 1
 15 39 l 1
 17 39 l 1
 17 37 l 1
23 33 m 1
 21 33 l 1
 21 35 l 1
 23 35 l 1
 23 33 l 1
23 37 m 1
 21 37 l 1
 21 39 l 1
 23 39 l 1
 23 37 l 1
28 25 m 1
 27 25 l 1
 27 26 l 1
 26 26 l 1
 26 27 l 1
 28 27 l 1
 28 25 l 1
31 25 m 1
 29 25 l 1
 29 27 l 1
 31 27 l 1
 31 25 l 1
31 29 m 1
 29 29 l 1
 29 31 l 1
 31 31 l 1
 31 29 l 1
41 25 m 1
 39 25 l 1
 39 27 l 1
 41 27 l 1
 41 25 l 1
41 29 m 1
 39 29 l 1
 39 31 l 1
 41 31 l 1
 41 29 l 1
31 33 m 1
 29 33 l 1
 29 35 l 1
 31 35 l 1
 31 33 l 1
31 37 m 1
 29 37 l 1
 29 39 l 1
 31 39 l 1
 31 37 l 1
36 31 m 1
 34 31 l 1
 34 33 l 1
 36 33 l 1
 36 31 l 1
41 33 m 1
 39 33 l 1
 39 35 l 1
 41 35 l 1
 41 33 l 1
36 35 m 1
 34 35 l 1
 34 37 l 1
 36 37 l 1
 36 35 l 1
44 25 m 1
 42 25 l 1
 42 27 l 1
 43 27 l 1
 43 26 l 1
 44 26 l 1
 44 25 l 1
46 25 m 1
 45 25 l 1
 45 26 l 1
 44 26 l 1
 44 27 l 1
 46 27 l 1
 46 25 l 1
49 25 m 1
 47 25 l 1
 47 27 l 1
 49 27 l 1
 49 25 l 1
55 25 m 1
 53 25 l 1
 53 27 l 1
 55 27 l 1
 55 25 l 1
58 25 m 1
 56 25 l 1
 56 27 l 1
 57 27 l 1
 57 26 l 1
 58 26 l 1
 58 25 l 1
55 29 m 1
 53 29 l 1
 53 31 l 1
 55 31 l 1
 55 29 l 1
43 33 m 1
 42 33 l 1
 42 35 l 1
 44 35 l 1
 44 34 l 1
 43 34 l 1
 43 33 l 1
46 33 m 1
 44 33 l 1
 44 34 l 1
 45 34 l 1
 45 35 l 1
 46 35 l 1
 46 33 l 1
49 33 m 1
 47 33 l 1
 47 35 l 1
 49 35 l 1
 49 33 l 1
49 37 m 1
 47 37 l 1
 47 39 l 1
 49 39 l 1
 49 37 l 1
55 33 m 1
 53 33 l 1
 53 35 l 1
 55 35 l 1
 55 33 l 1
57 33 m 1
 56 33 l 1
 56 35 l 1
 58 35 l 1
 58 34 l 1
 57 34 l 1
 57 33 l 1
60 25 m 1
 59 25 l 1
 59 26 l 1
 58 26 l 1
 58 27 l 1
 60 27 l 1
 60 25 l 1
63 25 m 1
 61 25 l 1
 61 27 l 1
 63 27 l 1
 63 25 l 1
63 29 m 1
 61 29 l 1
 61 31 l 1
 63 31 l 1
 63 29 l 1
60 33 m 1
 58 33 l 1
 58 34 l 1
 59 34 l 1
 59 35 l 1
 60 35 l 1
 60 33 l 1
63 33 m 1
 61 33 l 1
 61 35 l 1
 63 35 l 1
 63 33 l 1
63 37 m 1
 61 37 l 1
 61 39 l 1
 63 39 l 1
 63 37 l 1
12 41 m 1
 10 41 l 1
 10 43 l 1
 11 43 l 1
 11 42 l 1
 12 42 l 1
 12 41 l 1
14 41 m 1
 13 41 l 1
 13 42 l 1
 12 42 l 1
 12 43 l 1
 14 43 l 1
 14 41 l 1
17 41 m 1
 15 41 l 1
 15 43 l 1
 17 43 l 1
 17 41 l 1
23 41 m 1
 21 41 l 1
 21 43 l 1
 23 43 l 1
 23 41 l 1
26 41 m 1
 24 41 l 1
 24 43 l 1
 25 43 l 1
 25 42 l 1
 26 42 l 1
 26 41 l 1
28 41 m 1
 27 41 l 1
 27 42 l 1
 26 42 l 1
 26 43 l 1
 28 43 l 1
 28 41 l 1
31 41 m 1
 29 41 l 1
 29 43 l 1
 31 43 l 1
 31 41 l 1
41 41 m 1
 39 41 l 1
 39 43 l 1
 41 43 l 1
 41 41 l 1
44 41 m 1
 42 41 l 1
 42 43 l 1
 43 43 l 1
 43 42 l 1
 44 42 l 1
 44 41 l 1
46 41 m 1
 45 41 l 1
 45 42 l 1
 44 42 l 1
 44 43 l 1
 46 43 l 1
 46 41 l 1
49 41 m 1
 47 41 l 1
 47 43 l 1
 49 43 l 1
 49 41 l 1
55 41 m 1
 53 41 l 1
 53 43 l 1
 55 43 l 1
 55 41 l 1
58 41 m 1
 56 41 l 1
 56 43 l 1
 57 43 l 1
 57 42 l 1
 58 42 l 1
 58 41 l 1
60 41 m 1
 59 41 l 1
 59 42 l 1
 58 42 l 1
 58 43 l 1
 60 43 l 1
 60 41 l 1
63 41 m 1
 61 41 l 1
 61 43 l 1
 63 43 l 1
 63 41 l 1
EndSplineSet
Ligature2: "'liga' Standard Ligatures in Latin lookup 0-1" five nine zero five one
LCarets2: 1 0
EndChar

